SplineFontDB: 3.0
FontName: Nobile-Italic
FullName: Nobile Italic
FamilyName: Nobile
Weight: Book
Copyright: Copyright (c) 2010 by vernon adams. All rights reserved.
Version: 1.000;PS 001.000;hotconv 1.0.38
ItalicAngle: -12
UnderlinePosition: -292
UnderlineWidth: 40
Ascent: 1638
Descent: 410
sfntRevision: 0x00010000
LayerCount: 2
Layer: 0 1 "Back"  1
Layer: 1 1 "Fore"  0
XUID: [1021 332 469972825 1856086]
FSType: 0
OS2Version: 2
OS2_WeightWidthSlopeOnly: 0
OS2_UseTypoMetrics: 1
CreationTime: 1291284843
ModificationTime: 1291305095
PfmFamily: 17
TTFWeight: 400
TTFWidth: 5
LineGap: 67
VLineGap: 0
Panose: 2 0 3 3 0 0 0 0 0 0
OS2TypoAscent: 15
OS2TypoAOffset: 1
OS2TypoDescent: -92
OS2TypoDOffset: 1
OS2TypoLinegap: 133
OS2WinAscent: -75
OS2WinAOffset: 1
OS2WinDescent: -125
OS2WinDOffset: 1
HheadAscent: -75
HheadAOffset: 1
HheadDescent: 125
HheadDOffset: 1
OS2SubXSize: 1331
OS2SubYSize: 1433
OS2SubXOff: 0
OS2SubYOff: 286
OS2SupXSize: 1331
OS2SupYSize: 1433
OS2SupXOff: 0
OS2SupYOff: 983
OS2StrikeYSize: 102
OS2StrikeYPos: 512
OS2Vendor: 'pyrs'
OS2CodePages: 00000007.00000000
OS2UnicodeRanges: 80000267.0000000a.00000000.00000000
Lookup: 4 0 1 "'liga' Standard Ligatures in Latin lookup 0"  {"'liga' Standard Ligatures in Latin lookup 0 subtable"  } ['liga' ('latn' <'dflt' > ) ]
Lookup: 258 0 0 "'kern' Horizontal Kerning in Latin lookup 0"  {"'kern' Horizontal Kerning in Latin lookup 0 subtable"  } ['kern' ('latn' <'dflt' > ) ]
MarkAttachClasses: 1
DEI: 91125
TtTable: prep
PUSHW_1
 511
SCANCTRL
PUSHB_1
 1
SCANTYPE
SVTCA[y-axis]
MPPEM
PUSHB_1
 8
LT
IF
PUSHB_2
 1
 1
INSTCTRL
EIF
PUSHB_2
 70
 6
CALL
IF
POP
PUSHB_1
 16
EIF
MPPEM
PUSHB_1
 20
GT
IF
POP
PUSHB_1
 128
EIF
SCVTCI
PUSHB_1
 6
CALL
NOT
IF
SVTCA[y-axis]
PUSHB_1
 5
DUP
RCVT
PUSHB_1
 3
CALL
WCVTP
PUSHB_1
 10
DUP
RCVT
PUSHB_3
 5
 186
 2
CALL
PUSHB_1
 3
CALL
WCVTP
PUSHB_1
 9
DUP
RCVT
PUSHB_3
 10
 82
 2
CALL
PUSHB_1
 3
CALL
WCVTP
PUSHB_1
 8
DUP
RCVT
PUSHB_3
 9
 37
 2
CALL
PUSHB_1
 3
CALL
WCVTP
PUSHB_1
 7
DUP
RCVT
PUSHB_3
 8
 124

StartChar: .notdef
Encoding: 65536 -1 0
Width: 747
Flags: W
HStem: 0 65<139 555> 1298 65<312 728>
DStem2: 67 0 139 65 0.138776 0.990324<74.3629 1319.44> 555 65 609 0 0.138776 0.990324<0 1245.08>
LayerCount: 2
Fore
SplineSet
67 0 m 1,0,-1
 258 1363 l 1,1,-1
 800 1363 l 1,2,-1
 609 0 l 1,3,-1
 67 0 l 1,0,-1
139 65 m 1,4,-1
 555 65 l 1,5,-1
 728 1298 l 1,6,-1
 312 1298 l 1,7,-1
 139 65 l 1,4,-1
EndSplineSet
EndChar

StartChar: exclam
Encoding: 33 33 4
Width: 587
Flags: W
HStem: 0 286<129 347> 1557 20G<331.958 544>
VStem: 89 258<0 258> 129 256<30 286>
LayerCount: 2
Fore
SplineSet
544 1577 m 1,0,-1
 308 392 l 1,1,-1
 213 392 l 1,2,-1
 334 1577 l 1,3,-1
 544 1577 l 1,0,-1
347 0 m 1,4,-1
 89 0 l 1,5,-1
 129 286 l 1,6,-1
 385 286 l 1,7,-1
 347 0 l 1,4,-1
EndSplineSet
EndChar

StartChar: quotedbl
Encoding: 34 34 5
Width: 714
Flags: W
HStem: 1072 504<162 259 531 615>
VStem: 160 99<1072 1133.23> 520 95<1072 1132.72>
LayerCount: 2
Fore
SplineSet
531 1576 m 1,0,-1
 734 1576 l 1,1,-1
 615 1072 l 1,2,-1
 520 1072 l 1,3,-1
 531 1576 l 1,0,-1
162 1576 m 1,4,-1
 377 1576 l 1,5,-1
 259 1072 l 1,6,-1
 160 1072 l 1,7,-1
 162 1576 l 1,4,-1
EndSplineSet
EndChar

StartChar: numbersign
Encoding: 35 35 6
Width: 1213
Flags: W
HStem: 423 93<159 326 473 713 859 1027> 871 90<267 435 583 820 968 1125> 1314 18G<548.692 682 932.771 1067>
VStem: 233 127<51 178> 554 128<1206 1334> 618 129<51 180> 938 129<1203 1332>
DStem2: 233 51 360 51 0.243425 0.96992<30.915 383.449 509.435 844.506 967.826 1322.55> 618 51 747 51 0.242357 0.970187<31.2641 383.934 509.545 844.51 967.695 1320.36>
LayerCount: 2
Fore
SplineSet
713 423 m 1,0,-1
 455 423 l 1,1,-1
 360 51 l 1,2,-1
 233 51 l 1,3,-1
 326 423 l 1,4,-1
 140 423 l 1,5,-1
 159 516 l 1,6,-1
 344 516 l 1,7,-1
 435 871 l 1,8,-1
 246 871 l 1,9,-1
 267 961 l 1,10,-1
 455 961 l 1,11,-1
 554 1334 l 1,12,-1
 682 1334 l 1,13,-1
 583 961 l 1,14,-1
 841 961 l 1,15,-1
 938 1332 l 1,16,-1
 1067 1332 l 1,17,-1
 968 961 l 1,18,-1
 1148 961 l 1,19,-1
 1125 871 l 1,20,-1
 950 871 l 1,21,-1
 859 516 l 1,22,-1
 1044 516 l 1,23,-1
 1027 423 l 1,24,-1
 838 423 l 1,25,-1
 747 51 l 1,26,-1
 618 51 l 1,27,-1
 713 423 l 1,0,-1
473 516 m 1,28,-1
 727 516 l 1,29,-1
 820 871 l 1,30,-1
 567 871 l 1,31,-1
 473 516 l 1,28,-1
EndSplineSet
EndChar

StartChar: dollar
Encoding: 36 36 7
Width: 1106
Flags: W
HStem: -33 131<234.096 400 516 746.682> 1167 121<401.359 602 706 920.436>
VStem: 178 132<843.859 1086.5> 374 90<-190 -100> 648 84<1356 1440> 838 131<182.697 471.588>
DStem2: 374 -190 464 -190 0.165772 0.986164<14.9195 159.138 305.583 795.65 943.159 1376.02 1510.61 1652.87> 531 740 512 605 0.936096 -0.351745<-36.607 0 114.317 367.959> 816 1275 808 1150.5 0.976777 -0.21426<-101.394 183.121>
LayerCount: 2
Fore
SplineSet
969 324 m 0,0,1
 969 231 969 231 930 163 c 128,-1,2
 891 95 891 95 825 51 c 128,-1,3
 759 7 759 7 672.5 -14.5 c 128,-1,4
 586 -36 586 -36 490 -36 c 1,5,-1
 464 -190 l 1,6,-1
 374 -190 l 1,7,-1
 400 -33 l 1,8,9
 328 -30 328 -30 251 -6.5 c 128,-1,10
 174 17 174 17 92 60 c 1,11,-1
 155 182 l 1,12,13
 197 157 197 157 240 140 c 0,14,15
 278 124 278 124 325 110.5 c 128,-1,16
 372 97 372 97 420 98 c 1,17,-1
 512 605 l 1,18,19
 474 622 474 622 451.5 632.5 c 128,-1,20
 429 643 429 643 415 649.5 c 128,-1,21
 401 656 401 656 392.5 661 c 128,-1,22
 384 666 384 666 376 671 c 0,23,24
 330 698 330 698 293 728.5 c 128,-1,25
 256 759 256 759 230.5 795.5 c 128,-1,26
 205 832 205 832 191.5 875.5 c 128,-1,27
 178 919 178 919 178 971 c 0,28,29
 178 1056 178 1056 219.5 1116 c 128,-1,30
 261 1176 261 1176 326 1213.5 c 128,-1,31
 391 1251 391 1251 470 1269 c 128,-1,32
 549 1287 549 1287 623 1288 c 1,33,-1
 648 1440 l 1,34,-1
 732 1440 l 1,35,-1
 706 1286 l 1,36,37
 761 1286 761 1286 816 1275 c 128,-1,38
 871 1264 871 1264 915 1250.5 c 128,-1,39
 959 1237 959 1237 986.5 1226 c 128,-1,40
 1014 1215 1014 1215 1016 1216 c 1,41,-1
 968 1107 l 1,42,43
 927 1121 927 1121 886 1132 c 128,-1,44
 845 1143 845 1143 808 1150.5 c 128,-1,45
 771 1158 771 1158 740 1162 c 128,-1,46
 709 1166 709 1166 687 1166 c 1,47,-1
 612 715 l 1,48,49
 636 704 636 704 656.5 695.5 c 128,-1,50
 677 687 677 687 696 678 c 0,51,52
 775 642 775 642 827.5 607 c 128,-1,53
 880 572 880 572 911.5 531 c 128,-1,54
 943 490 943 490 956 440 c 128,-1,55
 969 390 969 390 969 324 c 0,0,1
602 1167 m 1,56,57
 537 1165 537 1165 483.5 1152.5 c 128,-1,58
 430 1140 430 1140 391.5 1116.5 c 128,-1,59
 353 1093 353 1093 331.5 1058 c 128,-1,60
 310 1023 310 1023 310 976 c 0,61,62
 310 932 310 932 319 899 c 128,-1,63
 328 866 328 866 364 835 c 1,64,65
 390 814 390 814 429 791.5 c 128,-1,66
 468 769 468 769 531 740 c 1,67,-1
 602 1167 l 1,56,57
516 96 m 1,68,69
 677 95 677 95 757.5 149 c 128,-1,70
 838 203 838 203 838 328 c 0,71,72
 838 371 838 371 828.5 407 c 128,-1,73
 819 443 819 443 792 473.5 c 128,-1,74
 765 504 765 504 717 530.5 c 128,-1,75
 669 557 669 557 593 580 c 1,76,-1
 516 96 l 1,68,69
EndSplineSet
EndChar

StartChar: percent
Encoding: 37 37 8
Width: 1681
Flags: W
HStem: -23 106<1038.33 1265.1> 697 99<1116.63 1346> 764 99<334.834 558.249> 1479 98<412.442 637.088>
VStem: 178 115<904.064 1319.96> 679 107<1027.77 1438.29> 887 112<121.271 536.961> 1384 107<241.195 659.315>
DStem2: 355 -53 443 -91 0.448885 0.89359<5.54548 1913.63>
LayerCount: 2
Fore
SplineSet
1141 83 m 0,0,1
 1198 83 1198 83 1238 108 c 128,-1,2
 1278 133 1278 133 1305 172.5 c 128,-1,3
 1332 212 1332 212 1348 261 c 128,-1,4
 1364 310 1364 310 1372 357.5 c 128,-1,5
 1380 405 1380 405 1382 445.5 c 128,-1,6
 1384 486 1384 486 1384 510 c 0,7,8
 1384 553 1384 553 1376 587.5 c 128,-1,9
 1368 622 1368 622 1350.5 646.5 c 128,-1,10
 1333 671 1333 671 1304 684 c 128,-1,11
 1275 697 1275 697 1233 697 c 0,12,13
 1185 697 1185 697 1149.5 676.5 c 128,-1,14
 1114 656 1114 656 1088 622 c 128,-1,15
 1062 588 1062 588 1045 544 c 128,-1,16
 1028 500 1028 500 1017.5 453 c 128,-1,17
 1007 406 1007 406 1003 360 c 128,-1,18
 999 314 999 314 999 276 c 0,19,20
 999 83 999 83 1141 83 c 0,0,1
679 1289 m 0,21,22
 679 1323 679 1323 672.5 1357 c 128,-1,23
 666 1391 666 1391 649.5 1418 c 128,-1,24
 633 1445 633 1445 604 1462 c 128,-1,25
 575 1479 575 1479 529 1479 c 0,26,27
 480 1479 480 1479 444 1457.5 c 128,-1,28
 408 1436 408 1436 381.5 1401 c 128,-1,29
 355 1366 355 1366 338 1321 c 128,-1,30
 321 1276 321 1276 311 1230 c 128,-1,31
 301 1184 301 1184 297 1140 c 128,-1,32
 293 1096 293 1096 293 1063 c 0,33,34
 293 863 293 863 441 863 c 0,35,36
 490 863 490 863 527 885 c 128,-1,37
 564 907 564 907 590.5 942.5 c 128,-1,38
 617 978 617 978 634 1023.5 c 128,-1,39
 651 1069 651 1069 661 1116.5 c 128,-1,40
 671 1164 671 1164 675 1209 c 128,-1,41
 679 1254 679 1254 679 1289 c 0,21,22
355 -53 m 1,42,-1
 1214 1657 l 1,43,-1
 1308 1614 l 1,44,-1
 443 -91 l 1,45,-1
 355 -53 l 1,42,-1
1491 501 m 0,46,47
 1491 440 1491 440 1481 378 c 128,-1,48
 1471 316 1471 316 1452 257.5 c 128,-1,49
 1433 199 1433 199 1404 148 c 128,-1,50
 1375 97 1375 97 1336.5 59 c 128,-1,51
 1298 21 1298 21 1250.5 -1 c 128,-1,52
 1203 -23 1203 -23 1146 -23 c 0,53,54
 1071 -23 1071 -23 1021.5 2 c 128,-1,55
 972 27 972 27 942 68 c 128,-1,56
 912 109 912 109 899.5 163 c 128,-1,57
 887 217 887 217 887 276 c 0,58,59
 887 306 887 306 892 356.5 c 128,-1,60
 897 407 897 407 910.5 464.5 c 128,-1,61
 924 522 924 522 948.5 581 c 128,-1,62
 973 640 973 640 1012.5 688 c 128,-1,63
 1052 736 1052 736 1108 766 c 128,-1,64
 1164 796 1164 796 1241 796 c 0,65,66
 1312 796 1312 796 1360 772 c 128,-1,67
 1408 748 1408 748 1437 707.5 c 128,-1,68
 1466 667 1466 667 1478.5 613.5 c 128,-1,69
 1491 560 1491 560 1491 501 c 0,46,47
786 1282 m 0,70,71
 786 1242 786 1242 779.5 1188 c 128,-1,72
 773 1134 773 1134 757 1076.5 c 128,-1,73
 741 1019 741 1019 714.5 963 c 128,-1,74
 688 907 688 907 648 863 c 128,-1,75
 608 819 608 819 553 791.5 c 128,-1,76
 498 764 498 764 426 764 c 256,77,78
 354 764 354 764 306 791 c 128,-1,79
 258 818 258 818 229.5 861.5 c 128,-1,80
 201 905 201 905 189.5 960 c 128,-1,81
 178 1015 178 1015 178 1071 c 0,82,83
 178 1123 178 1123 186.5 1181 c 128,-1,84
 195 1239 195 1239 213 1295.5 c 128,-1,85
 231 1352 231 1352 259 1403 c 128,-1,86
 287 1454 287 1454 327 1492.5 c 128,-1,87
 367 1531 367 1531 419 1554 c 128,-1,88
 471 1577 471 1577 536 1577 c 0,89,90
 606 1577 606 1577 654 1553.5 c 128,-1,91
 702 1530 702 1530 731.5 1489.5 c 128,-1,92
 761 1449 761 1449 773.5 1395.5 c 128,-1,93
 786 1342 786 1342 786 1282 c 0,70,71
EndSplineSet
EndChar

StartChar: ampersand
Encoding: 38 38 9
Width: 1534
Flags: W
HStem: -39 126<387.712 901.385> -5 21G<1274.71 1312.57> 1305 130<560.558 880.618>
VStem: 110 148<202.189 514.764> 335 148<973.868 1230.65> 933 145<996.211 1256.34>
DStem2: 593 893.5 444.5 878 0.693304 -0.720645<-201.558 4.79151 184.338 746.533> 673.5 861 717 757 0.949551 0.313613<-386.711 -172.187 8.6897 220.49>
LayerCount: 2
Fore
SplineSet
637 848 m 1,0,1
 655 855 655 855 673.5 861 c 128,-1,2
 692 867 692 867 709 875 c 0,3,4
 758 895 758 895 799 918.5 c 128,-1,5
 840 942 840 942 870 974 c 128,-1,6
 900 1006 900 1006 916.5 1047.5 c 128,-1,7
 933 1089 933 1089 933 1145 c 0,8,9
 933 1221 933 1221 880.5 1263 c 128,-1,10
 828 1305 828 1305 732 1305 c 0,11,12
 650 1305 650 1305 601 1283 c 128,-1,13
 552 1261 552 1261 525.5 1228.5 c 128,-1,14
 499 1196 499 1196 491 1160 c 128,-1,15
 483 1124 483 1124 483 1097 c 0,16,17
 483 1058 483 1058 500.5 1021.5 c 128,-1,18
 518 985 518 985 542.5 952.5 c 128,-1,19
 567 920 567 920 593 893.5 c 128,-1,20
 619 867 619 867 637 848 c 1,0,1
1078 1159 m 0,21,22
 1078 1068 1078 1068 1049 1002.5 c 128,-1,23
 1020 937 1020 937 970.5 890 c 128,-1,24
 921 843 921 843 855.5 811.5 c 128,-1,25
 790 780 790 780 717 757 c 1,26,-1
 1109 354 l 1,27,28
 1163 448 1163 448 1203.5 544.5 c 128,-1,29
 1244 641 1244 641 1276 744 c 1,30,-1
 1403 744 l 1,31,32
 1385 686 1385 686 1362.5 623.5 c 128,-1,33
 1340 561 1340 561 1314 499 c 128,-1,34
 1288 437 1288 437 1259 377 c 128,-1,35
 1230 317 1230 317 1199 264 c 1,36,-1
 1385 93 l 1,37,-1
 1294 -5 l 1,38,-1
 1130 165 l 1,39,40
 1089 106 1089 106 1039.5 66.5 c 128,-1,41
 990 27 990 27 926 3.5 c 128,-1,42
 862 -20 862 -20 780.5 -29.5 c 128,-1,43
 699 -39 699 -39 594 -39 c 0,44,45
 485 -39 485 -39 396 -15 c 128,-1,46
 307 9 307 9 243.5 55 c 128,-1,47
 180 101 180 101 145 166.5 c 128,-1,48
 110 232 110 232 110 315 c 0,49,50
 110 386 110 386 133.5 460 c 128,-1,51
 157 534 157 534 205.5 600.5 c 128,-1,52
 254 667 254 667 329.5 721 c 128,-1,53
 405 775 405 775 510 807 c 1,54,55
 476 843 476 843 444.5 878 c 128,-1,56
 413 913 413 913 388.5 949 c 128,-1,57
 364 985 364 985 349.5 1022 c 128,-1,58
 335 1059 335 1059 335 1100 c 0,59,60
 335 1128 335 1128 342 1163.5 c 128,-1,61
 349 1199 349 1199 366.5 1236.5 c 128,-1,62
 384 1274 384 1274 414 1309.5 c 128,-1,63
 444 1345 444 1345 490.5 1373 c 128,-1,64
 537 1401 537 1401 601.5 1418 c 128,-1,65
 666 1435 666 1435 752 1435 c 0,66,67
 833 1435 833 1435 894 1415 c 128,-1,68
 955 1395 955 1395 996 1358.5 c 128,-1,69
 1037 1322 1037 1322 1057.5 1271 c 128,-1,70
 1078 1220 1078 1220 1078 1159 c 0,21,22
579 716 m 1,71,72
 510 701 510 701 451.5 667 c 128,-1,73
 393 633 393 633 350 585 c 128,-1,74
 307 537 307 537 282.5 477 c 128,-1,75
 258 417 258 417 258 350 c 0,76,77
 258 282 258 282 283.5 232.5 c 128,-1,78
 309 183 309 183 355.5 150.5 c 128,-1,79
 402 118 402 118 467.5 102.5 c 128,-1,80
 533 87 533 87 613 87 c 0,81,82
 694 87 694 87 754.5 92 c 128,-1,83
 815 97 815 97 863.5 114.5 c 128,-1,84
 912 132 912 132 953.5 164.5 c 128,-1,85
 995 197 995 197 1038 252 c 1,86,-1
 579 716 l 1,71,72
EndSplineSet
EndChar

StartChar: quotesingle
Encoding: 39 39 10
Width: 504
Flags: W
HStem: 1042 528<276 341>
VStem: 276 65<1042 1087.06>
LayerCount: 2
Fore
SplineSet
276 1570 m 1,0,-1
 509 1570 l 1,1,-1
 341 1042 l 1,2,-1
 276 1042 l 1,3,-1
 276 1570 l 1,0,-1
EndSplineSet
EndChar

StartChar: parenleft
Encoding: 40 40 11
Width: 794
Flags: W
HStem: 1574 20G<694.5 774.894>
VStem: 258 167<140.844 851.554>
LayerCount: 2
Fore
SplineSet
830 1500 m 1,0,1
 766 1440 766 1440 695 1350 c 128,-1,2
 624 1260 624 1260 564 1133.5 c 128,-1,3
 504 1007 504 1007 464.5 841 c 128,-1,4
 425 675 425 675 425 464 c 0,5,6
 425 340 425 340 442.5 246 c 128,-1,7
 460 152 460 152 486 83.5 c 128,-1,8
 512 15 512 15 543.5 -31.5 c 128,-1,9
 575 -78 575 -78 603 -107 c 1,10,-1
 507 -199 l 1,11,12
 460 -164 460 -164 423.5 -115.5 c 128,-1,13
 387 -67 387 -67 359 -10 c 128,-1,14
 331 47 331 47 312 109.5 c 128,-1,15
 293 172 293 172 281 235 c 128,-1,16
 269 298 269 298 263.5 358.5 c 128,-1,17
 258 419 258 419 258 472 c 0,18,19
 258 628 258 628 287.5 784 c 128,-1,20
 317 940 317 940 378.5 1086 c 128,-1,21
 440 1232 440 1232 534.5 1361.5 c 128,-1,22
 629 1491 629 1491 760 1594 c 1,23,-1
 830 1500 l 1,0,1
EndSplineSet
EndChar

StartChar: parenright
Encoding: 41 41 12
Width: 793
Flags: W
HStem: 1574 20G<377.787 433.5>
VStem: 480 166<539.945 1252.44>
DStem2: 516.5 1457.5 347.5 1442 0.623193 -0.782068<-166.29 97.6772>
LayerCount: 2
Fore
SplineSet
77 -107 m 1,0,1
 186 -5 186 -5 262.5 118 c 128,-1,2
 339 241 339 241 387.5 375 c 128,-1,3
 436 509 436 509 458 649 c 128,-1,4
 480 789 480 789 480 926 c 0,5,6
 480 1064 480 1064 458 1164.5 c 128,-1,7
 436 1265 436 1265 406.5 1333.5 c 128,-1,8
 377 1402 377 1402 347.5 1442 c 128,-1,9
 318 1482 318 1482 303 1500 c 1,10,-1
 398 1594 l 1,11,12
 469 1535 469 1535 516.5 1457.5 c 128,-1,13
 564 1380 564 1380 593 1292 c 128,-1,14
 622 1204 622 1204 634 1109.5 c 128,-1,15
 646 1015 646 1015 646 922 c 0,16,17
 646 761 646 761 615 603 c 128,-1,18
 584 445 584 445 522 300 c 128,-1,19
 460 155 460 155 366.5 27.5 c 128,-1,20
 273 -100 273 -100 147 -199 c 1,21,-1
 77 -107 l 1,0,1
EndSplineSet
EndChar

StartChar: asterisk
Encoding: 42 42 13
Width: 853
Flags: W
HStem: 1145 100<156 433 589 869>
DStem2: 234 872 318 819 0.566983 0.82373<3.96888 303.817 506.326 841.295> 580 1137 488 1066 0.3893 -0.921111<29.5833 287.696>
LayerCount: 2
Fore
SplineSet
527 1285 m 1,0,-1
 711 1565 l 1,1,-1
 795 1512 l 1,2,-1
 589 1232 l 1,3,-1
 885 1232 l 1,4,-1
 869 1137 l 1,5,-1
 580 1137 l 1,6,-1
 692 872 l 1,7,-1
 582 819 l 1,8,-1
 488 1066 l 1,9,-1
 318 819 l 1,10,-1
 234 872 l 1,11,-1
 433 1145 l 1,12,-1
 141 1145 l 1,13,-1
 156 1245 l 1,14,-1
 446 1245 l 1,15,-1
 335 1508 l 1,16,-1
 437 1561 l 1,17,-1
 527 1285 l 1,0,-1
EndSplineSet
EndChar

StartChar: plus
Encoding: 43 43 14
Width: 982
Flags: W
HStem: 520 128<222 496 638 912>
VStem: 446 127<175 302> 563 123<871 994>
DStem2: 446 175 573 175 0.141421 0.989949<17.9605 348.604 495.399 827.315>
LayerCount: 2
Fore
SplineSet
912 520 m 1,0,-1
 621 520 l 1,1,-1
 573 175 l 1,2,-1
 446 175 l 1,3,-1
 496 520 l 1,4,-1
 205 520 l 1,5,-1
 222 648 l 1,6,-1
 513 648 l 1,7,-1
 563 994 l 1,8,-1
 686 994 l 1,9,-1
 638 648 l 1,10,-1
 931 648 l 1,11,-1
 912 520 l 1,0,-1
EndSplineSet
EndChar

StartChar: comma
Encoding: 44 44 15
Width: 564
Flags: W
HStem: -248 534
VStem: 133 257<29 286>
LayerCount: 2
Fore
SplineSet
93 0 m 1,0,-1
 133 286 l 1,1,-1
 390 286 l 1,2,-1
 352 2 l 1,3,4
 348 -51 348 -51 329.5 -91 c 128,-1,5
 311 -131 311 -131 279.5 -160.5 c 128,-1,6
 248 -190 248 -190 203.5 -211 c 128,-1,7
 159 -232 159 -232 102 -248 c 1,8,-1
 69 -155 l 1,9,10
 108 -142 108 -142 133 -128 c 128,-1,11
 158 -114 158 -114 174 -96 c 128,-1,12
 190 -78 190 -78 198 -55 c 128,-1,13
 206 -32 206 -32 211 0 c 1,14,-1
 93 0 l 1,0,-1
EndSplineSet
EndChar

StartChar: hyphen
Encoding: 45 45 16
Width: 779
Flags: W
HStem: 503 124<210 725>
VStem: 193 549
LayerCount: 2
Fore
SplineSet
725 503 m 1,0,-1
 193 503 l 1,1,-1
 210 627 l 1,2,-1
 742 627 l 1,3,-1
 725 503 l 1,0,-1
EndSplineSet
EndChar

StartChar: period
Encoding: 46 46 17
Width: 480
Flags: W
HStem: 0 286<133 352>
VStem: 93 259<0 259> 133 257<29 286>
LayerCount: 2
Fore
SplineSet
352 0 m 1,0,-1
 93 0 l 1,1,-1
 133 286 l 1,2,-1
 390 286 l 1,3,-1
 352 0 l 1,0,-1
EndSplineSet
EndChar

StartChar: slash
Encoding: 47 47 18
Width: 939
Flags: W
DStem2: 98 -97 223 -160 0.420501 0.907292<0 2008.25>
LayerCount: 2
Fore
SplineSet
98 -97 m 1,0,-1
 934 1729 l 1,1,-1
 1073 1674 l 1,2,-1
 223 -160 l 1,3,-1
 98 -97 l 1,0,-1
EndSplineSet
EndChar

StartChar: zero
Encoding: 48 48 19
Width: 1277
Flags: W
HStem: -30 134<497.273 846.82> 1075 134<618.149 978.389>
VStem: 203 163<243.852 760.432> 1108 167<435.213 936.548>
LayerCount: 2
Fore
SplineSet
665 104 m 0,0,1
 742 104 742 104 805 129 c 128,-1,2
 868 154 868 154 917 197 c 128,-1,3
 966 240 966 240 1002 298 c 128,-1,4
 1038 356 1038 356 1061.5 422.5 c 128,-1,5
 1085 489 1085 489 1096.5 560 c 128,-1,6
 1108 631 1108 631 1108 701 c 0,7,8
 1108 894 1108 894 1031.5 984.5 c 128,-1,9
 955 1075 955 1075 804 1075 c 0,10,11
 691 1075 691 1075 610 1026 c 128,-1,12
 529 977 529 977 476 897 c 128,-1,13
 423 817 423 817 396.5 713 c 128,-1,14
 370 609 370 609 366 500 c 1,15,16
 360 428 360 428 372 357 c 128,-1,17
 384 286 384 286 418.5 229.5 c 128,-1,18
 453 173 453 173 513.5 138.5 c 128,-1,19
 574 104 574 104 665 104 c 0,0,1
824 1209 m 0,20,21
 952 1209 952 1209 1038.5 1166.5 c 128,-1,22
 1125 1124 1125 1124 1177.5 1054.5 c 128,-1,23
 1230 985 1230 985 1252.5 896 c 128,-1,24
 1275 807 1275 807 1275 714 c 0,25,26
 1275 633 1275 633 1259 547 c 128,-1,27
 1243 461 1243 461 1210 378 c 128,-1,28
 1177 295 1177 295 1126 221 c 128,-1,29
 1075 147 1075 147 1005.5 91.5 c 128,-1,30
 936 36 936 36 847 3 c 128,-1,31
 758 -30 758 -30 648 -30 c 0,32,33
 516 -30 516 -30 429.5 16 c 128,-1,34
 343 62 343 62 293 136.5 c 128,-1,35
 243 211 243 211 223 306 c 128,-1,36
 203 401 203 401 203 500 c 0,37,38
 203 579 203 579 219.5 662 c 128,-1,39
 236 745 236 745 269 824 c 128,-1,40
 302 903 302 903 353 973 c 128,-1,41
 404 1043 404 1043 473 1095.5 c 128,-1,42
 542 1148 542 1148 629.5 1178.5 c 128,-1,43
 717 1209 717 1209 824 1209 c 0,20,21
EndSplineSet
EndChar

StartChar: one
Encoding: 49 49 20
Width: 653
Flags: W
HStem: 0 21G<337 496.793> 1147 20G<436.381 657>
VStem: 337 157<0 157>
DStem2: 236 1083 263 971 0.952592 0.30425<0 223.464> 337 0 494 0 0.138332 0.990386<21.7181 1051.33>
LayerCount: 2
Fore
SplineSet
337 0 m 1,0,-1
 484 1041 l 1,1,-1
 263 971 l 1,2,-1
 236 1083 l 1,3,-1
 499 1167 l 1,4,-1
 657 1167 l 1,5,-1
 494 0 l 1,6,-1
 337 0 l 1,0,-1
EndSplineSet
EndChar

StartChar: two
Encoding: 50 50 21
Width: 988
Flags: W
HStem: 0 144<344 839> 1064 133<375.077 768.862>
VStem: 840 152<729.714 997.425>
DStem2: 135 138 344 144 0.776714 0.629853<166.112 885.568>
LayerCount: 2
Fore
SplineSet
840 880 m 0,0,1
 840 931 840 931 819.5 966 c 128,-1,2
 799 1001 799 1001 765 1022.5 c 128,-1,3
 731 1044 731 1044 687 1054 c 128,-1,4
 643 1064 643 1064 596 1064 c 0,5,6
 525 1065 525 1065 458.5 1045.5 c 128,-1,7
 392 1026 392 1026 320 1001 c 1,8,-1
 282 1118 l 1,9,10
 370 1160 370 1160 456.5 1178.5 c 128,-1,11
 543 1197 543 1197 637 1197 c 0,12,13
 724 1197 724 1197 790 1174.5 c 128,-1,14
 856 1152 856 1152 901 1110 c 128,-1,15
 946 1068 946 1068 969 1008.5 c 128,-1,16
 992 949 992 949 992 876 c 0,17,18
 992 758 992 758 924 642.5 c 128,-1,19
 856 527 856 527 705 414 c 2,20,-1
 344 144 l 1,21,-1
 859 144 l 1,22,-1
 839 0 l 1,23,-1
 118 0 l 1,24,-1
 135 138 l 1,25,-1
 478 412 l 2,26,27
 562 479 562 479 629.5 539 c 128,-1,28
 697 599 697 599 743.5 656 c 128,-1,29
 790 713 790 713 815 768 c 128,-1,30
 840 823 840 823 840 880 c 0,0,1
EndSplineSet
EndChar

StartChar: three
Encoding: 51 51 22
Width: 944
Flags: W
HStem: -199 142<161.097 602.916> 544 67<625 646.754> 1062 140<322.745 745.266>
VStem: 727 158<62.6162 368.51> 798 150<731.429 1010.79>
LayerCount: 2
Fore
SplineSet
470 611 m 1,0,1
 571 611 571 611 635 638.5 c 128,-1,2
 699 666 699 666 735 707.5 c 128,-1,3
 771 749 771 749 784.5 798 c 128,-1,4
 798 847 798 847 798 891 c 0,5,6
 798 984 798 984 738 1023 c 128,-1,7
 678 1062 678 1062 551 1062 c 0,8,9
 519 1062 519 1062 482.5 1057 c 128,-1,10
 446 1052 446 1052 408.5 1043 c 128,-1,11
 371 1034 371 1034 334.5 1022 c 128,-1,12
 298 1010 298 1010 265 997 c 1,13,-1
 239 1125 l 1,14,15
 264 1136 264 1136 300.5 1149.5 c 128,-1,16
 337 1163 337 1163 380 1174.5 c 128,-1,17
 423 1186 423 1186 469.5 1194 c 128,-1,18
 516 1202 516 1202 560 1202 c 0,19,20
 636 1202 636 1202 706 1185 c 128,-1,21
 776 1168 776 1168 830 1132 c 128,-1,22
 884 1096 884 1096 916 1040 c 128,-1,23
 948 984 948 984 948 906 c 0,24,25
 948 843 948 843 932.5 791.5 c 128,-1,26
 917 740 917 740 891.5 699.5 c 128,-1,27
 866 659 866 659 833 630 c 128,-1,28
 800 601 800 601 764 581.5 c 128,-1,29
 728 562 728 562 692 553 c 128,-1,30
 656 544 656 544 625 544 c 1,31,32
 664 535 664 535 709.5 515.5 c 128,-1,33
 755 496 755 496 794 460 c 128,-1,34
 833 424 833 424 859 369 c 128,-1,35
 885 314 885 314 885 234 c 0,36,37
 885 157 885 157 864 95 c 128,-1,38
 843 33 843 33 806.5 -15 c 128,-1,39
 770 -63 770 -63 722 -98 c 128,-1,40
 674 -133 674 -133 619.5 -155.5 c 128,-1,41
 565 -178 565 -178 507.5 -188.5 c 128,-1,42
 450 -199 450 -199 396 -199 c 0,43,44
 302 -199 302 -199 210 -175 c 128,-1,45
 118 -151 118 -151 30 -102 c 1,46,-1
 93 15 l 1,47,48
 114 6 114 6 145.5 -6.5 c 128,-1,49
 177 -19 177 -19 218 -30 c 128,-1,50
 259 -41 259 -41 310 -49 c 128,-1,51
 361 -57 361 -57 420 -57 c 0,52,53
 505 -57 505 -57 564 -32 c 128,-1,54
 623 -7 623 -7 659 32.5 c 128,-1,55
 695 72 695 72 711 121.5 c 128,-1,56
 727 171 727 171 727 220 c 0,57,58
 727 334 727 334 658.5 395 c 128,-1,59
 590 456 590 456 450 473 c 1,60,-1
 470 611 l 1,0,1
EndSplineSet
EndChar

StartChar: four
Encoding: 52 52 23
Width: 1071
Flags: W
HStem: 66 122<265 733 895 1045>
DStem2: 114 196 265 188 0.608234 0.793758<85.4933 1075.54> 680 -293 830 -264 0.140165 0.990128<49.7384 362.885 508.367 1280.7>
LayerCount: 2
Fore
SplineSet
891 1210 m 1,0,-1
 1033 1170 l 1,1,-1
 895 190 l 1,2,-1
 1064 190 l 1,3,-1
 1045 66 l 1,4,-1
 876 66 l 1,5,-1
 830 -264 l 1,6,-1
 680 -293 l 1,7,-1
 733 66 l 1,8,-1
 114 66 l 1,9,-1
 114 196 l 1,10,-1
 891 1210 l 1,0,-1
265 188 m 1,11,-1
 750 188 l 1,12,-1
 867 974 l 1,13,-1
 265 188 l 1,11,-1
EndSplineSet
EndChar

StartChar: five
Encoding: 53 53 24
Width: 1028
Flags: W
HStem: -207 142<198.003 674.386> -20 20G<142.657 145> 542 148<479.02 782.501> 1026 145<465 1016>
VStem: 863 137<121.486 462.862>
DStem2: 80.9063 -207 205.766 -207 0.207912 0.978148<859.167 1285.91>
LayerCount: 2
Fore
SplineSet
1000 328 m 0,0,1
 1000 208 1000 208 960 109.5 c 128,-1,2
 920 11 920 11 848.5 -59.5 c 128,-1,3
 777 -130 777 -130 677.5 -168.5 c 128,-1,4
 578 -207 578 -207 460 -207 c 0,5,6
 415 -207 415 -207 369.5 -201.5 c 128,-1,7
 324 -196 324 -196 281.5 -186.5 c 128,-1,8
 239 -177 239 -177 201.5 -163.5 c 128,-1,9
 164 -150 164 -150 135 -134 c 1,10,-1
 144 0 l 1,11,12
 146 -2 146 -2 171 -12.5 c 128,-1,13
 196 -23 196 -23 240 -34.5 c 128,-1,14
 284 -46 284 -46 346 -55.5 c 128,-1,15
 408 -65 408 -65 484 -65 c 0,16,17
 563 -65 563 -65 632.5 -39.5 c 128,-1,18
 702 -14 702 -14 753 34.5 c 128,-1,19
 804 83 804 83 833.5 152.5 c 128,-1,20
 863 222 863 222 863 311 c 0,21,22
 863 426 863 426 800.5 484 c 128,-1,23
 738 542 738 542 608 542 c 0,24,25
 567 542 567 542 525.5 536 c 128,-1,26
 484 530 484 530 447 521 c 128,-1,27
 410 512 410 512 381.5 503 c 128,-1,28
 353 494 353 494 338 488 c 1,29,-1
 245 565 l 1,30,-1
 359 1171 l 1,31,-1
 1033 1171 l 1,32,-1
 1016 1026 l 1,33,-1
 465 1026 l 1,34,-1
 379 608 l 1,35,36
 394 615 394 615 416 623.5 c 128,-1,37
 438 632 438 632 464 640.5 c 128,-1,38
 490 649 490 649 518.5 657.5 c 128,-1,39
 547 666 547 666 576 673 c 0,40,41
 635 689 635 689 676 690 c 0,42,43
 839 691 839 691 919.5 597 c 128,-1,44
 1000 503 1000 503 1000 328 c 0,0,1
EndSplineSet
EndChar

StartChar: six
Encoding: 54 54 25
Width: 1184
Flags: W
HStem: -156 136<475.725 805.387> 659 132<575.552 911.602>
VStem: 228 148<84.6328 525.3> 998 157<196.678 570.958>
LayerCount: 2
Fore
SplineSet
408 521 m 1,0,1
 403 508 403 508 399.5 493 c 128,-1,2
 396 478 396 478 392 461 c 0,3,4
 386 431 386 431 381 386.5 c 128,-1,5
 376 342 376 342 376 282 c 0,6,7
 376 -20 376 -20 635 -20 c 0,8,9
 729 -20 729 -20 798 20 c 128,-1,10
 867 60 867 60 911 122.5 c 128,-1,11
 955 185 955 185 976.5 260.5 c 128,-1,12
 998 336 998 336 998 407 c 0,13,14
 998 471 998 471 980.5 518.5 c 128,-1,15
 963 566 963 566 931.5 597 c 128,-1,16
 900 628 900 628 857 643.5 c 128,-1,17
 814 659 814 659 764 659 c 0,18,19
 682 659 682 659 617 637.5 c 128,-1,20
 552 616 552 616 504 590 c 1,21,22
 448 558 448 558 408 521 c 1,0,1
1155 419 m 0,23,24
 1155 354 1155 354 1140.5 286 c 128,-1,25
 1126 218 1126 218 1096.5 154 c 128,-1,26
 1067 90 1067 90 1023 34 c 128,-1,27
 979 -22 979 -22 919 -64.5 c 128,-1,28
 859 -107 859 -107 783 -131.5 c 128,-1,29
 707 -156 707 -156 615 -156 c 0,30,31
 514 -156 514 -156 441 -121 c 128,-1,32
 368 -86 368 -86 321 -21.5 c 128,-1,33
 274 43 274 43 251 135 c 128,-1,34
 228 227 228 227 228 341 c 0,35,36
 228 448 228 448 256 553 c 128,-1,37
 284 658 284 658 335 755 c 128,-1,38
 386 852 386 852 458 939.5 c 128,-1,39
 530 1027 530 1027 618 1099.5 c 128,-1,40
 706 1172 706 1172 807.5 1228 c 128,-1,41
 909 1284 909 1284 1020 1318 c 1,42,-1
 1037 1179 l 1,43,44
 987 1168 987 1168 929.5 1145 c 128,-1,45
 872 1122 872 1122 813 1088 c 128,-1,46
 754 1054 754 1054 696 1008.5 c 128,-1,47
 638 963 638 963 588 907 c 128,-1,48
 538 851 538 851 498 784.5 c 128,-1,49
 458 718 458 718 435 641 c 1,50,51
 574 791 574 791 781 791 c 0,52,53
 871 791 871 791 940.5 764 c 128,-1,54
 1010 737 1010 737 1057.5 688 c 128,-1,55
 1105 639 1105 639 1130 570.5 c 128,-1,56
 1155 502 1155 502 1155 419 c 0,23,24
EndSplineSet
EndChar

StartChar: seven
Encoding: 55 55 26
Width: 893
Flags: W
HStem: 1025 144<210 846>
LayerCount: 2
Fore
SplineSet
985 1169 m 1,0,-1
 1018 1048 l 1,1,-1
 263 -237 l 1,2,-1
 122 -164 l 1,3,-1
 846 1025 l 1,4,-1
 191 1025 l 1,5,-1
 210 1169 l 1,6,-1
 985 1169 l 1,0,-1
EndSplineSet
EndChar

StartChar: eight
Encoding: 56 56 27
Width: 1151
Flags: W
HStem: -139 144<414.632 815.049> 1216 131<594.977 957.746>
VStem: 185 167<64.6052 384.21> 319 149<772.395 1090.98> 940 162<129.603 479.869> 1026 149<841.048 1151.18>
LayerCount: 2
Fore
SplineSet
782 1216 m 0,0,1
 688 1216 688 1216 627.5 1188.5 c 128,-1,2
 567 1161 567 1161 531.5 1117.5 c 128,-1,3
 496 1074 496 1074 482 1019.5 c 128,-1,4
 468 965 468 965 468 912 c 0,5,6
 468 858 468 858 482.5 821 c 128,-1,7
 497 784 497 784 527 759 c 128,-1,8
 557 734 557 734 602.5 720 c 128,-1,9
 648 706 648 706 710 699 c 1,10,11
 875 721 875 721 950.5 798.5 c 128,-1,12
 1026 876 1026 876 1026 1021 c 0,13,14
 1026 1216 1026 1216 782 1216 c 0,0,1
690 586 m 1,15,16
 580 569 580 569 513.5 525 c 128,-1,17
 447 481 447 481 411 425 c 128,-1,18
 375 369 375 369 363.5 309 c 128,-1,19
 352 249 352 249 352 200 c 0,20,21
 352 94 352 94 414 49.5 c 128,-1,22
 476 5 476 5 603 5 c 0,23,24
 677 5 677 5 739 19.5 c 128,-1,25
 801 34 801 34 845.5 70 c 128,-1,26
 890 106 890 106 915 167 c 128,-1,27
 940 228 940 228 940 321 c 0,28,29
 941 550 941 550 690 586 c 1,15,16
319 916 m 0,30,31
 319 997 319 997 348.5 1074.5 c 128,-1,32
 378 1152 378 1152 437 1212.5 c 128,-1,33
 496 1273 496 1273 586 1310 c 128,-1,34
 676 1347 676 1347 798 1347 c 0,35,36
 884 1347 884 1347 954 1325.5 c 128,-1,37
 1024 1304 1024 1304 1073 1263.5 c 128,-1,38
 1122 1223 1122 1223 1148.5 1164.5 c 128,-1,39
 1175 1106 1175 1106 1175 1033 c 0,40,41
 1175 965 1175 965 1159 912 c 128,-1,42
 1143 859 1143 859 1117 818 c 128,-1,43
 1091 777 1091 777 1059 747 c 128,-1,44
 1027 717 1027 717 995 696.5 c 128,-1,45
 963 676 963 676 935 663.5 c 128,-1,46
 907 651 907 651 889 645 c 0,47,48
 887 644 887 644 902 639 c 128,-1,49
 917 634 917 634 940.5 620.5 c 128,-1,50
 964 607 964 607 992.5 584.5 c 128,-1,51
 1021 562 1021 562 1045 526.5 c 128,-1,52
 1069 491 1069 491 1085.5 440 c 128,-1,53
 1102 389 1102 389 1102 320 c 0,54,55
 1102 200 1102 200 1059 113 c 128,-1,56
 1016 26 1016 26 944.5 -30 c 128,-1,57
 873 -86 873 -86 780 -112.5 c 128,-1,58
 687 -139 687 -139 587 -139 c 0,59,60
 504 -139 504 -139 431 -120 c 128,-1,61
 358 -101 358 -101 303.5 -62 c 128,-1,62
 249 -23 249 -23 217 37 c 128,-1,63
 185 97 185 97 185 179 c 0,64,65
 185 259 185 259 209 331.5 c 128,-1,66
 233 404 233 404 275.5 464.5 c 128,-1,67
 318 525 318 525 377.5 571 c 128,-1,68
 437 617 437 617 509 645 c 1,69,70
 480 657 480 657 447 676.5 c 128,-1,71
 414 696 414 696 385.5 727.5 c 128,-1,72
 357 759 357 759 338 805 c 128,-1,73
 319 851 319 851 319 916 c 0,30,31
EndSplineSet
EndChar

StartChar: nine
Encoding: 57 57 28
Width: 1128
Flags: W
HStem: 263 131<448.973 786.371> 1074 136<556.29 885.552>
VStem: 205 158<482.014 854.154> 984 156<534.565 971.638>
LayerCount: 2
Fore
SplineSet
953 534 m 1,0,1
 958 552 958 552 963.5 582 c 128,-1,2
 969 612 969 612 973.5 646 c 128,-1,3
 978 680 978 680 981 714 c 128,-1,4
 984 748 984 748 984 772 c 0,5,6
 986 1074 986 1074 726 1074 c 0,7,8
 662 1074 662 1074 610 1054.5 c 128,-1,9
 558 1035 558 1035 517.5 1002.5 c 128,-1,10
 477 970 477 970 448 927 c 128,-1,11
 419 884 419 884 400 836.5 c 128,-1,12
 381 789 381 789 372 739.5 c 128,-1,13
 363 690 363 690 363 646 c 0,14,15
 363 581 363 581 381 533.5 c 128,-1,16
 399 486 399 486 430.5 455 c 128,-1,17
 462 424 462 424 504.5 409 c 128,-1,18
 547 394 547 394 597 394 c 0,19,20
 625 394 625 394 653.5 398.5 c 128,-1,21
 682 403 682 403 710 410 c 0,22,23
 750 421 750 421 788.5 436.5 c 128,-1,24
 827 452 827 452 859.5 469.5 c 128,-1,25
 892 487 892 487 916.5 503.5 c 128,-1,26
 941 520 941 520 953 534 c 1,0,1
205 636 m 0,27,28
 205 697 205 697 219 763 c 128,-1,29
 233 829 233 829 261.5 893 c 128,-1,30
 290 957 290 957 334 1014.5 c 128,-1,31
 378 1072 378 1072 438 1115.5 c 128,-1,32
 498 1159 498 1159 575 1184.5 c 128,-1,33
 652 1210 652 1210 746 1210 c 0,34,35
 844 1210 844 1210 918 1180 c 128,-1,36
 992 1150 992 1150 1041.5 1093 c 128,-1,37
 1091 1036 1091 1036 1115.5 954 c 128,-1,38
 1140 872 1140 872 1140 769 c 0,39,40
 1140 581 1140 581 1081 413.5 c 128,-1,41
 1022 246 1022 246 916 111 c 128,-1,42
 810 -24 810 -24 663.5 -121 c 128,-1,43
 517 -218 517 -218 342 -265 c 1,44,-1
 323 -126 l 1,45,46
 400 -109 400 -109 489.5 -70 c 128,-1,47
 579 -31 579 -31 663 34.5 c 128,-1,48
 747 100 747 100 817 193.5 c 128,-1,49
 887 287 887 287 926 413 c 1,50,51
 789 263 789 263 578 263 c 0,52,53
 489 263 489 263 420 289.5 c 128,-1,54
 351 316 351 316 303 364.5 c 128,-1,55
 255 413 255 413 230 482 c 128,-1,56
 205 551 205 551 205 636 c 0,27,28
EndSplineSet
EndChar

StartChar: colon
Encoding: 58 58 29
Width: 705
Flags: W
HStem: 0 255<197 407> 605 255<287 497>
VStem: 156 251<0 251> 197 251<4 255> 246 251<605 856> 287 251<609 860>
DStem2: 156 0 407 0 0.150589 0.988597<37.7977 258.266 649.452 869.92>
LayerCount: 2
Fore
SplineSet
246 605 m 1,0,-1
 287 860 l 1,1,-1
 538 860 l 1,2,-1
 497 605 l 1,3,-1
 246 605 l 1,0,-1
156 0 m 1,4,-1
 197 255 l 1,5,-1
 448 255 l 1,6,-1
 407 0 l 1,7,-1
 156 0 l 1,4,-1
EndSplineSet
EndChar

StartChar: semicolon
Encoding: 59 59 30
Width: 736
Flags: W
HStem: 605 255<286 496>
VStem: 225 259<27 286> 245 251<605 856> 286 251<609 860>
DStem2: 185 0 444 -1 0.11664 0.993174<14.5651 288.713 637.146 865.911>
LayerCount: 2
Fore
SplineSet
185 0 m 1,0,-1
 225 286 l 1,1,-1
 484 286 l 1,2,-1
 444 -1 l 1,3,4
 441 -54 441 -54 423.5 -92.5 c 128,-1,5
 406 -131 406 -131 374.5 -160 c 128,-1,6
 343 -189 343 -189 297.5 -210 c 128,-1,7
 252 -231 252 -231 194 -248 c 1,8,-1
 161 -155 l 1,9,10
 200 -142 200 -142 225 -128 c 128,-1,11
 250 -114 250 -114 266 -96 c 128,-1,12
 282 -78 282 -78 290 -55 c 128,-1,13
 298 -32 298 -32 303 0 c 1,14,-1
 185 0 l 1,0,-1
245 605 m 1,15,-1
 286 860 l 1,16,-1
 537 860 l 1,17,-1
 496 605 l 1,18,-1
 245 605 l 1,15,-1
EndSplineSet
EndChar

StartChar: less
Encoding: 60 60 31
Width: 976
Flags: W
VStem: 245 634
DStem2: 402 576 245 482 0.801718 -0.597702<0 467.199> 270 664 402 576 0.85089 0.525344<66.0872 594.182>
LayerCount: 2
Fore
SplineSet
851 854 m 1,0,-1
 402 576 l 1,1,-1
 776 296 l 1,2,-1
 748 107 l 1,3,-1
 245 482 l 1,4,-1
 270 664 l 1,5,-1
 879 1040 l 1,6,-1
 851 854 l 1,0,-1
EndSplineSet
EndChar

StartChar: equal
Encoding: 61 61 32
Width: 905
Flags: W
HStem: 262 124<179 695> 521 124<216 732>
VStem: 162 587
LayerCount: 2
Fore
SplineSet
732 521 m 1,0,-1
 199 521 l 1,1,-1
 216 645 l 1,2,-1
 749 645 l 1,3,-1
 732 521 l 1,0,-1
695 262 m 1,4,-1
 162 262 l 1,5,-1
 179 386 l 1,6,-1
 712 386 l 1,7,-1
 695 262 l 1,4,-1
EndSplineSet
EndChar

StartChar: greater
Encoding: 62 62 33
Width: 905
Flags: W
VStem: 176 636
DStem2: 204 306 176 105 0.85089 0.525344<0 507.526> 309 1040 280 839 0.800954 -0.598725<97.1161 540.117>
LayerCount: 2
Fore
SplineSet
280 839 m 1,0,-1
 309 1040 l 1,1,-1
 812 664 l 1,2,-1
 785 481 l 1,3,-1
 176 105 l 1,4,-1
 204 306 l 1,5,-1
 635 574 l 1,6,-1
 280 839 l 1,0,-1
EndSplineSet
EndChar

StartChar: question
Encoding: 63 63 34
Width: 1043
Flags: W
HStem: 0 286<209 428> 1364 146<413.701 821.045>
VStem: 169 259<0 259> 209 256<30 286> 289 138<416 495.872> 874 159<1031.04 1312.22>
DStem2: 388 697 455 572 0.904994 0.425424<7.45653 389.342>
LayerCount: 2
Fore
SplineSet
874 1190 m 0,0,1
 874 1233 874 1233 861 1266 c 128,-1,2
 848 1299 848 1299 819.5 1320.5 c 128,-1,3
 791 1342 791 1342 745.5 1353 c 128,-1,4
 700 1364 700 1364 634 1364 c 0,5,6
 592 1364 592 1364 549.5 1356.5 c 128,-1,7
 507 1349 507 1349 467 1337 c 128,-1,8
 427 1325 427 1325 390 1310.5 c 128,-1,9
 353 1296 353 1296 323 1283 c 1,10,-1
 268 1417 l 1,11,12
 304 1433 304 1433 345.5 1449.5 c 128,-1,13
 387 1466 387 1466 434 1479.5 c 128,-1,14
 481 1493 481 1493 533.5 1501.5 c 128,-1,15
 586 1510 586 1510 645 1510 c 0,16,17
 756 1510 756 1510 830.5 1485.5 c 128,-1,18
 905 1461 905 1461 950 1418.5 c 128,-1,19
 995 1376 995 1376 1014 1319.5 c 128,-1,20
 1033 1263 1033 1263 1033 1199 c 0,21,22
 1033 1104 1033 1104 998 1023.5 c 128,-1,23
 963 943 963 943 908 877.5 c 128,-1,24
 853 812 853 812 785.5 760.5 c 128,-1,25
 718 709 718 709 654 671 c 128,-1,26
 590 633 590 633 536.5 608.5 c 128,-1,27
 483 584 483 584 455 572 c 1,28,-1
 427 416 l 1,29,-1
 289 416 l 1,30,-1
 318 665 l 1,31,-1
 351 680 l 2,32,33
 367 687 367 687 388 697 c 128,-1,34
 409 707 409 707 435 720 c 0,35,36
 479 742 479 742 529 769.5 c 128,-1,37
 579 797 579 797 627.5 830 c 128,-1,38
 676 863 676 863 720.5 902 c 128,-1,39
 765 941 765 941 799.5 986 c 128,-1,40
 834 1031 834 1031 854 1082 c 128,-1,41
 874 1133 874 1133 874 1190 c 0,0,1
428 0 m 1,42,-1
 169 0 l 1,43,-1
 209 286 l 1,44,-1
 465 286 l 1,45,-1
 428 0 l 1,42,-1
EndSplineSet
EndChar

StartChar: at
Encoding: 64 64 35
Width: 1924
Flags: W
HStem: -135 130<651.645 1202.46> 192 129<718.561 1009.16 1284 1458> 1008 115<960.779 1302.69> 1313 129<881.825 1397.95>
VStem: 217 141<261.798 747.618> 531 140<369.128 708.014> 1656 144<595.215 1079.21>
DStem2: 1060.74 -135 1200.72 -135 0.207912 0.978148<641.357 1147.08> 1083.92 -135 1190.05 -135 0.207912 0.978148<473.939 641.028>
LayerCount: 2
Fore
SplineSet
1150 1008 m 1,0,1
 1092 1009 1092 1009 1035 992.5 c 128,-1,2
 978 976 978 976 926 945 c 128,-1,3
 874 914 874 914 829 870.5 c 128,-1,4
 784 827 784 827 750 774 c 1,5,6
 713 714 713 714 692 646.5 c 128,-1,7
 671 579 671 579 671 504 c 0,8,9
 671 321 671 321 854 321 c 0,10,11
 1006 321 1006 321 1110 446 c 0,12,13
 1158 503 1158 503 1192.5 579 c 128,-1,14
 1227 655 1227 655 1248 746 c 2,15,-1
 1304 986 l 1,16,17
 1262 995 1262 995 1221 1000.5 c 128,-1,18
 1180 1006 1180 1006 1145 1006 c 0,19,20
 1144 1006 1144 1006 1150 1008 c 1,0,1
1270 193 m 0,21,22
 1216 193 1216 193 1196 215 c 128,-1,23
 1176 237 1176 237 1176 282 c 0,24,25
 1176 294 1176 294 1180 317 c 128,-1,26
 1184 340 1184 340 1191 368.5 c 128,-1,27
 1198 397 1198 397 1206 428.5 c 128,-1,28
 1214 460 1214 460 1222 491 c 1,29,30
 1205 446 1205 446 1174 393.5 c 128,-1,31
 1143 341 1143 341 1094.5 296 c 128,-1,32
 1046 251 1046 251 977.5 221.5 c 128,-1,33
 909 192 909 192 816 192 c 0,34,35
 748 192 748 192 695.5 213.5 c 128,-1,36
 643 235 643 235 606 275.5 c 128,-1,37
 569 316 569 316 550 374 c 128,-1,38
 531 432 531 432 531 504 c 0,39,40
 531 582 531 582 555 658.5 c 128,-1,41
 579 735 579 735 621.5 804 c 128,-1,42
 664 873 664 873 721.5 931.5 c 128,-1,43
 779 990 779 990 847 1032 c 0,44,45
 916 1075 916 1075 991 1099 c 128,-1,46
 1066 1123 1066 1123 1144 1123 c 0,47,48
 1152 1123 1152 1123 1174.5 1120 c 128,-1,49
 1197 1117 1197 1117 1225.5 1113 c 128,-1,50
 1254 1109 1254 1109 1285 1104 c 128,-1,51
 1316 1099 1316 1099 1342 1095.5 c 128,-1,52
 1368 1092 1368 1092 1384.5 1090 c 128,-1,53
 1401 1088 1401 1088 1401 1090 c 2,54,55
 1407 1074 l 256,56,57
 1413 1058 1413 1058 1420 1038 c 128,-1,58
 1427 1018 1427 1018 1433 1002 c 2,59,-1
 1439 986 l 1,60,-1
 1284 307 l 1,61,62
 1353 309 1353 309 1408 335.5 c 128,-1,63
 1463 362 1463 362 1504 405.5 c 128,-1,64
 1545 449 1545 449 1574 505.5 c 128,-1,65
 1603 562 1603 562 1621 623.5 c 128,-1,66
 1639 685 1639 685 1647.5 747.5 c 128,-1,67
 1656 810 1656 810 1656 866 c 0,68,69
 1656 978 1656 978 1619.5 1062 c 128,-1,70
 1583 1146 1583 1146 1514.5 1202 c 128,-1,71
 1446 1258 1446 1258 1347.5 1285.5 c 128,-1,72
 1249 1313 1249 1313 1125 1313 c 0,73,74
 1024 1313 1024 1313 931 1285 c 128,-1,75
 838 1257 838 1257 756.5 1207 c 128,-1,76
 675 1157 675 1157 606.5 1086.5 c 128,-1,77
 538 1016 538 1016 487 932 c 0,78,79
 424 830 424 830 391.5 714.5 c 128,-1,80
 359 599 359 599 358 478 c 0,81,82
 358 367 358 367 395.5 277.5 c 128,-1,83
 433 188 433 188 505.5 125 c 128,-1,84
 578 62 578 62 683.5 28.5 c 128,-1,85
 789 -5 789 -5 925 -5 c 0,86,87
 1022 -5 1022 -5 1102.5 11 c 128,-1,88
 1183 27 1183 27 1245 50.5 c 128,-1,89
 1307 74 1307 74 1351.5 102 c 128,-1,90
 1396 130 1396 130 1422 154 c 0,91,92
 1422 155 1422 155 1432 141.5 c 128,-1,93
 1442 128 1442 128 1453.5 111.5 c 128,-1,94
 1465 95 1465 95 1475 81.5 c 128,-1,95
 1485 68 1485 68 1485 70 c 1,96,97
 1458 42 1458 42 1407.5 6.5 c 128,-1,98
 1357 -29 1357 -29 1284 -60.5 c 128,-1,99
 1211 -92 1211 -92 1115 -113.5 c 128,-1,100
 1019 -135 1019 -135 901 -135 c 0,101,102
 746 -135 746 -135 620 -94 c 128,-1,103
 494 -53 494 -53 404.5 24 c 128,-1,104
 315 101 315 101 266 212.5 c 128,-1,105
 217 324 217 324 217 464 c 0,106,107
 217 590 217 590 250.5 711 c 128,-1,108
 284 832 284 832 344 941 c 128,-1,109
 404 1050 404 1050 488 1141.5 c 128,-1,110
 572 1233 572 1233 674 1300 c 0,111,112
 777 1367 777 1367 892 1404.5 c 128,-1,113
 1007 1442 1007 1442 1135 1442 c 0,114,115
 1280 1442 1280 1442 1402 1405.5 c 128,-1,116
 1524 1369 1524 1369 1612.5 1297.5 c 128,-1,117
 1701 1226 1701 1226 1750.5 1119.5 c 128,-1,118
 1800 1013 1800 1013 1800 873 c 0,119,120
 1800 792 1800 792 1785 710 c 128,-1,121
 1770 628 1770 628 1739.5 552.5 c 128,-1,122
 1709 477 1709 477 1664.5 411.5 c 128,-1,123
 1620 346 1620 346 1561 297.5 c 128,-1,124
 1502 249 1502 249 1429 221 c 128,-1,125
 1356 193 1356 193 1270 193 c 0,21,22
EndSplineSet
EndChar

StartChar: A
Encoding: 65 65 36
Width: 1295
Flags: W
HStem: 0 21G<43 223.162 1101.23 1277> 382 99<435 1038> 1557 20G<763.742 1052.88>
VStem: 1104 173<0 173>
DStem2: 43 0 214 0 0.42008 0.907487<71.8336 492.008 601.173 1710.84> 1050 1577 899 1489 0.142476 -0.989798<65.5884 1083.11 1182.95 1568.61>
LayerCount: 2
Fore
SplineSet
899 1489 m 1,0,-1
 709 1076 l 1,1,-1
 435 481 l 1,2,-1
 1038 481 l 1,3,-1
 953 1083 l 1,4,-1
 899 1489 l 1,0,-1
773 1577 m 1,5,-1
 1050 1577 l 1,6,-1
 1277 0 l 1,7,-1
 1104 0 l 1,8,-1
 1051 382 l 1,9,-1
 389 382 l 1,10,-1
 214 0 l 1,11,-1
 43 0 l 1,12,-1
 773 1577 l 1,5,-1
EndSplineSet
EndChar

StartChar: B
Encoding: 66 66 37
Width: 1240
Flags: W
HStem: 0 138<337 878.104> 789 124<445 920.962> 1439 138<520 1029.24>
VStem: 1088 159<317.601 681.332> 1132 149<1058.24 1357.74>
DStem2: 147 0 337 138 0.138167 0.990409<162.928 820.396 945.417 1476.73>
LayerCount: 2
Fore
SplineSet
669 913 m 2,0,1
 781 913 781 913 867.5 927.5 c 128,-1,2
 954 942 954 942 1012.5 980 c 128,-1,3
 1071 1018 1071 1018 1101.5 1084.5 c 128,-1,4
 1132 1151 1132 1151 1132 1255 c 0,5,6
 1132 1317 1132 1317 1093 1353.5 c 128,-1,7
 1054 1390 1054 1390 991 1409 c 128,-1,8
 928 1428 928 1428 847.5 1433.5 c 128,-1,9
 767 1439 767 1439 684 1439 c 2,10,-1
 520 1439 l 1,11,-1
 445 913 l 1,12,-1
 669 913 l 2,0,1
551 138 m 2,13,14
 678 138 678 138 778 155.5 c 128,-1,15
 878 173 878 173 947 216 c 128,-1,16
 1016 259 1016 259 1052 332.5 c 128,-1,17
 1088 406 1088 406 1088 518 c 0,18,19
 1088 550 1088 550 1084 582.5 c 128,-1,20
 1080 615 1080 615 1066 645.5 c 128,-1,21
 1052 676 1052 676 1024.5 702 c 128,-1,22
 997 728 997 728 949.5 747.5 c 128,-1,23
 902 767 902 767 831.5 778 c 128,-1,24
 761 789 761 789 662 789 c 2,25,-1
 429 789 l 1,26,-1
 337 138 l 1,27,-1
 551 138 l 2,13,14
1247 514 m 0,28,29
 1247 378 1247 378 1199 280.5 c 128,-1,30
 1151 183 1151 183 1059.5 121 c 128,-1,31
 968 59 968 59 835.5 29.5 c 128,-1,32
 703 0 703 0 534 0 c 2,33,-1
 147 0 l 1,34,-1
 367 1577 l 1,35,-1
 701 1577 l 2,36,37
 863 1577 863 1577 973.5 1558.5 c 128,-1,38
 1084 1540 1084 1540 1152.5 1502 c 128,-1,39
 1221 1464 1221 1464 1251 1406 c 128,-1,40
 1281 1348 1281 1348 1281 1269 c 0,41,42
 1281 1174 1281 1174 1259.5 1106 c 128,-1,43
 1238 1038 1238 1038 1193.5 990 c 128,-1,44
 1149 942 1149 942 1081.5 911.5 c 128,-1,45
 1014 881 1014 881 922 862 c 1,46,47
 1091 841 1091 841 1169 755 c 128,-1,48
 1247 669 1247 669 1247 514 c 0,28,29
EndSplineSet
EndChar

StartChar: C
Encoding: 67 67 38
Width: 1168
Flags: W
HStem: -41 145<565.176 969.27> 1464 145<781.098 1227.16>
VStem: 219 182<283.303 906.55>
DStem2: 1127 1596.5 1114.5 1451 0.969407 -0.24546<-104.223 216.943> 1231.5 1572.5 1197.5 1429 0.934564 -0.355796<-190.889 129.173>
LayerCount: 2
Fore
SplineSet
219 530 m 256,0,1
 219 667 219 667 241.5 800 c 128,-1,2
 264 933 264 933 307.5 1053 c 128,-1,3
 351 1173 351 1173 414.5 1275 c 128,-1,4
 478 1377 478 1377 560.5 1451 c 128,-1,5
 643 1525 643 1525 743 1567 c 128,-1,6
 843 1609 843 1609 960 1609 c 0,7,8
 1000 1609 1000 1609 1040 1607 c 128,-1,9
 1080 1605 1080 1605 1127 1596.5 c 128,-1,10
 1174 1588 1174 1588 1231.5 1572.5 c 128,-1,11
 1289 1557 1289 1557 1364 1530 c 1,12,-1
 1301 1392 l 1,13,14
 1243 1415 1243 1415 1197.5 1429 c 128,-1,15
 1152 1443 1152 1443 1114.5 1451 c 128,-1,16
 1077 1459 1077 1459 1046 1461.5 c 128,-1,17
 1015 1464 1015 1464 985 1464 c 0,18,19
 880 1464 880 1464 796 1426.5 c 128,-1,20
 712 1389 712 1389 647 1324 c 128,-1,21
 582 1259 582 1259 535.5 1170.5 c 128,-1,22
 489 1082 489 1082 459 979 c 128,-1,23
 429 876 429 876 415 764.5 c 128,-1,24
 401 653 401 653 401 541 c 0,25,26
 401 316 401 316 490.5 210 c 128,-1,27
 580 104 580 104 756 104 c 0,28,29
 816 104 816 104 913 131.5 c 128,-1,30
 1010 159 1010 159 1131 211 c 1,31,-1
 1160 78 l 1,32,33
 1103 55 1103 55 1050.5 33.5 c 128,-1,34
 998 12 998 12 946.5 -4.5 c 128,-1,35
 895 -21 895 -21 842.5 -31 c 128,-1,36
 790 -41 790 -41 733 -41 c 0,37,38
 604 -41 604 -41 507.5 -3.5 c 128,-1,39
 411 34 411 34 347 107 c 128,-1,40
 283 180 283 180 251 286.5 c 128,-1,41
 219 393 219 393 219 530 c 256,0,1
EndSplineSet
EndChar

StartChar: D
Encoding: 68 68 39
Width: 1342
Flags: W
HStem: 0 138<336 873.978> 1439 138<520 1033.4>
VStem: 1200 176<600.649 1252.73>
DStem2: 147 0 336 138 0.138167 0.990409<162.79 1476.73>
LayerCount: 2
Fore
SplineSet
1200 987 m 0,0,1
 1200 1106 1200 1106 1177.5 1191.5 c 128,-1,2
 1155 1277 1155 1277 1109.5 1332 c 128,-1,3
 1064 1387 1064 1387 994 1413 c 128,-1,4
 924 1439 924 1439 830 1439 c 2,5,-1
 520 1439 l 1,6,-1
 336 138 l 1,7,-1
 675 138 l 2,8,9
 761 138 761 138 829 163 c 128,-1,10
 897 188 897 188 950 232 c 128,-1,11
 1003 276 1003 276 1042 334.5 c 128,-1,12
 1081 393 1081 393 1109 459.5 c 128,-1,13
 1137 526 1137 526 1154.5 597.5 c 128,-1,14
 1172 669 1172 669 1182 738.5 c 128,-1,15
 1192 808 1192 808 1196 871.5 c 128,-1,16
 1200 935 1200 935 1200 987 c 0,0,1
1376 982 m 0,17,18
 1376 928 1376 928 1371.5 857 c 128,-1,19
 1367 786 1367 786 1354 706.5 c 128,-1,20
 1341 627 1341 627 1318 544 c 128,-1,21
 1295 461 1295 461 1257.5 382.5 c 128,-1,22
 1220 304 1220 304 1166.5 234.5 c 128,-1,23
 1113 165 1113 165 1040 113 c 128,-1,24
 967 61 967 61 872 30.5 c 128,-1,25
 777 0 777 0 657 0 c 2,26,-1
 147 0 l 1,27,-1
 367 1577 l 1,28,-1
 850 1577 l 2,29,30
 1110 1577 1110 1577 1243 1431 c 128,-1,31
 1376 1285 1376 1285 1376 982 c 0,17,18
EndSplineSet
EndChar

StartChar: E
Encoding: 69 69 40
Width: 1080
Flags: W
HStem: 0 138<339 1058> 779 108<444 1063> 1439 138<522 1248>
DStem2: 147 0 339 138 0.138783 0.990323<163.311 810.598 919.635 1477.12>
LayerCount: 2
Fore
SplineSet
1058 0 m 1,0,-1
 147 0 l 1,1,-1
 368 1577 l 1,2,-1
 1268 1577 l 1,3,-1
 1248 1439 l 1,4,-1
 522 1439 l 1,5,-1
 444 887 l 1,6,-1
 1078 887 l 1,7,-1
 1063 779 l 1,8,-1
 429 779 l 1,9,-1
 339 138 l 1,10,-1
 1077 138 l 1,11,-1
 1058 0 l 1,0,-1
EndSplineSet
EndChar

StartChar: F
Encoding: 70 70 41
Width: 1062
Flags: W
HStem: 0 21G<147 321.794> 766 108<441 1057> 1441 136<522 1218>
VStem: 147 172<0 172>
DStem2: 147 0 319 0 0.138783 0.990323<23.8707 797.308 906.344 1479.1>
LayerCount: 2
Fore
SplineSet
426 766 m 1,0,-1
 319 0 l 1,1,-1
 147 0 l 1,2,-1
 368 1577 l 1,3,-1
 1235 1577 l 1,4,-1
 1218 1441 l 1,5,-1
 522 1441 l 1,6,-1
 441 874 l 1,7,-1
 1070 874 l 1,8,-1
 1057 766 l 1,9,-1
 426 766 l 1,0,-1
EndSplineSet
EndChar

StartChar: G
Encoding: 71 71 42
Width: 1380
Flags: W
HStem: -40 143<569.859 984.14> 0 21G<1184 1277.8> 686 122<843 1213> 1347 21G<1298.5 1342.84> 1464 145<780.918 1173.42>
VStem: 219 179<291.986 922.055> 1184 91<0 102.509>
DStem2: 1269 1546.5 1211.5 1403.5 0.900962 -0.433898<-213.965 144.224>
LayerCount: 2
Fore
SplineSet
219 551 m 0,0,1
 219 622 219 622 226.5 705 c 128,-1,2
 234 788 234 788 252.5 875.5 c 128,-1,3
 271 963 271 963 300.5 1051.5 c 128,-1,4
 330 1140 330 1140 374 1221.5 c 128,-1,5
 418 1303 418 1303 477 1373.5 c 128,-1,6
 536 1444 536 1444 613.5 1496.5 c 128,-1,7
 691 1549 691 1549 788 1579 c 128,-1,8
 885 1609 885 1609 1004 1609 c 0,9,10
 1032 1609 1032 1609 1071.5 1605 c 128,-1,11
 1111 1601 1111 1601 1160.5 1587 c 128,-1,12
 1210 1573 1210 1573 1269 1546.5 c 128,-1,13
 1328 1520 1328 1520 1396 1475 c 1,14,-1
 1333 1347 l 1,15,16
 1264 1381 1264 1381 1211.5 1403.5 c 128,-1,17
 1159 1426 1159 1426 1118.5 1439.5 c 128,-1,18
 1078 1453 1078 1453 1047 1458.5 c 128,-1,19
 1016 1464 1016 1464 991 1464 c 0,20,21
 898 1464 898 1464 823 1437 c 128,-1,22
 748 1410 748 1410 689 1363 c 128,-1,23
 630 1316 630 1316 585.5 1253 c 128,-1,24
 541 1190 541 1190 508.5 1118.5 c 128,-1,25
 476 1047 476 1047 455 970.5 c 128,-1,26
 434 894 434 894 421 820 c 128,-1,27
 408 746 408 746 403 677.5 c 128,-1,28
 398 609 398 609 398 554 c 0,29,30
 398 435 398 435 422 349.5 c 128,-1,31
 446 264 446 264 493.5 209 c 128,-1,32
 541 154 541 154 610.5 128.5 c 128,-1,33
 680 103 680 103 770 103 c 0,34,35
 867 103 867 103 939.5 124.5 c 128,-1,36
 1012 146 1012 146 1062 184.5 c 128,-1,37
 1112 223 1112 223 1140 275.5 c 128,-1,38
 1168 328 1168 328 1175 390 c 1,39,40
 1175 388 1175 388 1174.5 387 c 128,-1,41
 1174 386 1174 386 1174 384 c 2,42,-1
 1213 686 l 1,43,-1
 824 686 l 1,44,-1
 843 808 l 1,45,-1
 1388 808 l 1,46,-1
 1275 0 l 1,47,-1
 1184 0 l 1,48,-1
 1184 172 l 1,49,50
 1163 139 1163 139 1129 102 c 128,-1,51
 1095 65 1095 65 1042 33.5 c 128,-1,52
 989 2 989 2 914.5 -19 c 128,-1,53
 840 -40 840 -40 739 -40 c 0,54,55
 614 -40 614 -40 517 -4.5 c 128,-1,56
 420 31 420 31 354 104 c 128,-1,57
 288 177 288 177 253.5 288 c 128,-1,58
 219 399 219 399 219 551 c 0,0,1
EndSplineSet
EndChar

StartChar: H
Encoding: 72 72 43
Width: 1402
Flags: W
HStem: 0 21G<147 321.794 1104 1279.8> 766 109<441 1211> 1558 20G<365.199 540 1322.18 1498>
VStem: 147 172<0 172> 368 172<1406 1578> 1104 173<0 173> 1325 173<1405 1578>
DStem2: 147 0 319 0 0.138697 0.990335<23.8559 797.293 907.32 1593.4> 1104 0 1277 0 0.138697 0.990335<23.9946 773.437 883.464 1593.4>
LayerCount: 2
Fore
SplineSet
1104 0 m 1,0,-1
 1211 766 l 1,1,-1
 426 766 l 1,2,-1
 319 0 l 1,3,-1
 147 0 l 1,4,-1
 368 1578 l 1,5,-1
 540 1578 l 1,6,-1
 441 875 l 1,7,-1
 1226 875 l 1,8,-1
 1325 1578 l 1,9,-1
 1498 1578 l 1,10,-1
 1277 0 l 1,11,-1
 1104 0 l 1,0,-1
EndSplineSet
EndChar

StartChar: I
Encoding: 73 73 44
Width: 845
Flags: W
HStem: 0 110<176 361 533 707> 1462 116<380 549 723 910>
DStem2: 361 110 533 110 0.139165 0.990269<23.9364 1365.01>
LayerCount: 2
Fore
SplineSet
176 110 m 1,0,-1
 361 110 l 1,1,-1
 549 1462 l 1,2,-1
 365 1462 l 1,3,-1
 380 1578 l 1,4,-1
 926 1578 l 1,5,-1
 910 1462 l 1,6,-1
 723 1462 l 1,7,-1
 533 110 l 1,8,-1
 722 110 l 1,9,-1
 707 0 l 1,10,-1
 161 0 l 1,11,-1
 176 110 l 1,0,-1
EndSplineSet
EndChar

StartChar: J
Encoding: 74 74 45
Width: 657
Flags: W
HStem: -90 119<83.5064 210.26> 1558 20G<577.191 753>
VStem: 580 173<1405 1578>
DStem2: 420 439 603 512 0.140535 0.990076<-291.889 1150.18>
LayerCount: 2
Fore
SplineSet
58 29 m 1,0,1
 137 47 137 47 192 67 c 128,-1,2
 247 87 247 87 284.5 112 c 128,-1,3
 322 137 322 137 344 167.5 c 128,-1,4
 366 198 366 198 380 238 c 128,-1,5
 394 278 394 278 402.5 327.5 c 128,-1,6
 411 377 411 377 420 439 c 2,7,-1
 580 1578 l 1,8,-1
 753 1578 l 1,9,-1
 603 512 l 2,10,11
 588 403 588 403 569.5 318.5 c 128,-1,12
 551 234 551 234 524.5 170 c 128,-1,13
 498 106 498 106 460.5 61 c 128,-1,14
 423 16 423 16 371 -14.5 c 128,-1,15
 319 -45 319 -45 249 -63 c 128,-1,16
 179 -81 179 -81 87 -90 c 1,17,-1
 58 29 l 1,0,1
EndSplineSet
EndChar

StartChar: K
Encoding: 75 75 46
Width: 1182
Flags: W
HStem: 0 21G<146 322.773 1033.96 1224> 750 100<439 631> 1558 20G<366.174 542 1197.64 1384>
VStem: 146 174<0 174> 369 173<1405 1578> 1213 171<1407 1578>
DStem2: 146 0 320 0 0.139928 0.990162<24.3474 781.521 882.636 1593.68> 783 798 631 750 0.483686 -0.875242<0 825.169> 654 850 783 798 0.610349 0.792133<37.5441 917.858>
LayerCount: 2
Fore
SplineSet
1213 1578 m 1,0,-1
 1384 1578 l 1,1,-1
 783 798 l 1,2,-1
 873 635 l 1,3,-1
 1224 0 l 1,4,-1
 1045 0 l 1,5,-1
 631 750 l 1,6,-1
 424 750 l 1,7,-1
 320 0 l 1,8,-1
 146 0 l 1,9,-1
 369 1578 l 1,10,-1
 542 1578 l 1,11,-1
 439 850 l 1,12,-1
 654 850 l 1,13,-1
 1213 1578 l 1,0,-1
EndSplineSet
EndChar

StartChar: L
Encoding: 76 76 47
Width: 1037
Flags: W
HStem: 0 138<338 1019> 1558 20G<365.186 541>
VStem: 368 173<1405 1578>
DStem2: 146 0 338 138 0.139313 0.990248<163.402 1593.54>
LayerCount: 2
Fore
SplineSet
1019 0 m 1,0,-1
 146 0 l 1,1,-1
 368 1578 l 1,2,-1
 541 1578 l 1,3,-1
 338 138 l 1,4,-1
 1036 138 l 1,5,-1
 1019 0 l 1,0,-1
EndSplineSet
EndChar

StartChar: M
Encoding: 77 77 48
Width: 1768
Flags: W
HStem: 0 21G<146 323.817 791.432 1001.22 1467 1643.83> 1558 20G<366.157 670.52 1553.61 1864>
VStem: 146 175<0 175> 1467 174<0 174>
DStem2: 146 0 321 0 0.139928 0.990162<24.4874 1523.13> 667 1578 530 1484 0.175791 -0.984428<68.4529 1407.66> 913 192 1075 180 0.41836 0.908281<0 1493.62> 1467 0 1641 0 0.139928 0.990162<24.3474 1499.64>
LayerCount: 2
Fore
SplineSet
795 0 m 1,0,-1
 729 370 l 1,1,-1
 530 1484 l 1,2,-1
 321 0 l 1,3,-1
 146 0 l 1,4,-1
 313 1184 l 1,5,-1
 369 1578 l 1,6,-1
 667 1578 l 1,7,-1
 736 1186 l 1,8,-1
 841 594 l 1,9,-1
 913 192 l 1,10,-1
 1078 543 l 1,11,-1
 1402 1235 l 1,12,-1
 1563 1578 l 1,13,-1
 1864 1578 l 1,14,-1
 1780 983 l 1,15,-1
 1641 0 l 1,16,-1
 1467 0 l 1,17,-1
 1676 1485 l 1,18,-1
 1075 180 l 1,19,-1
 992 0 l 1,20,-1
 795 0 l 1,0,-1
EndSplineSet
EndChar

StartChar: N
Encoding: 78 78 49
Width: 1494
Flags: W
HStem: 0 21G<146 322.802 1091.07 1371.8> 1558 20G<365.186 644.934 1413.19 1590>
VStem: 146 174<0 174> 1416 174<1404 1578>
DStem2: 146 0 320 0 0.139313 0.990248<24.2404 1487.39> 637 1578 523 1449 0.368626 -0.929578<77.8922 1559.85> 1212 128 1369 0 0.138697 0.990335<0 1464.28>
LayerCount: 2
Fore
SplineSet
1369 0 m 1,0,-1
 1099 0 l 1,1,-1
 907 484 l 1,2,-1
 523 1449 l 1,3,-1
 320 0 l 1,4,-1
 146 0 l 1,5,-1
 368 1578 l 1,6,-1
 637 1578 l 1,7,-1
 829 1094 l 1,8,-1
 1212 128 l 1,9,-1
 1416 1578 l 1,10,-1
 1590 1578 l 1,11,-1
 1369 0 l 1,0,-1
EndSplineSet
EndChar

StartChar: O
Encoding: 79 79 50
Width: 1446
Flags: W
HStem: -41 145<554.355 928.701> 1464 145<768.722 1139.78>
VStem: 219 182<268.332 898.393> 1302 179<660.87 1289.17>
LayerCount: 2
Fore
SplineSet
1481 1043 m 0,0,1
 1481 888 1481 888 1456 747 c 128,-1,2
 1431 606 1431 606 1384.5 486 c 128,-1,3
 1338 366 1338 366 1271 268.5 c 128,-1,4
 1204 171 1204 171 1119.5 102 c 128,-1,5
 1035 33 1035 33 935 -4 c 128,-1,6
 835 -41 835 -41 722 -41 c 0,7,8
 606 -41 606 -41 513 -8.5 c 128,-1,9
 420 24 420 24 355 91.5 c 128,-1,10
 290 159 290 159 254.5 262.5 c 128,-1,11
 219 366 219 366 219 509 c 0,12,13
 219 660 219 660 243.5 800.5 c 128,-1,14
 268 941 268 941 314 1063 c 128,-1,15
 360 1185 360 1185 425.5 1285.5 c 128,-1,16
 491 1386 491 1386 574.5 1458 c 128,-1,17
 658 1530 658 1530 757 1569.5 c 128,-1,18
 856 1609 856 1609 968 1609 c 0,19,20
 1110 1609 1110 1609 1208 1567.5 c 128,-1,21
 1306 1526 1306 1526 1366.5 1451 c 128,-1,22
 1427 1376 1427 1376 1454 1272 c 128,-1,23
 1481 1168 1481 1168 1481 1043 c 0,0,1
1302 1050 m 0,24,25
 1302 1136 1302 1136 1284.5 1211.5 c 128,-1,26
 1267 1287 1267 1287 1226 1343 c 128,-1,27
 1185 1399 1185 1399 1118.5 1431.5 c 128,-1,28
 1052 1464 1052 1464 954 1464 c 0,29,30
 853 1464 853 1464 773 1422 c 128,-1,31
 693 1380 693 1380 631.5 1309 c 128,-1,32
 570 1238 570 1238 526.5 1142.5 c 128,-1,33
 483 1047 483 1047 455 941 c 128,-1,34
 427 835 427 835 414 723 c 128,-1,35
 401 611 401 611 401 506 c 0,36,37
 401 303 401 303 488 203.5 c 128,-1,38
 575 104 575 104 744 104 c 0,39,40
 838 104 838 104 916.5 142 c 128,-1,41
 995 180 995 180 1057 247 c 128,-1,42
 1119 314 1119 314 1165 405 c 128,-1,43
 1211 496 1211 496 1241.5 601 c 128,-1,44
 1272 706 1272 706 1287 820.5 c 128,-1,45
 1302 935 1302 935 1302 1050 c 0,24,25
EndSplineSet
EndChar

StartChar: P
Encoding: 80 80 51
Width: 1215
Flags: W
HStem: 0 21G<147 321.777> 641 142<428 940.067> 1439 138<521 1056.11>
VStem: 147 172<0 172> 1161 164<969.173 1345.03>
DStem2: 147 0 319 0 0.138783 0.990323<23.8707 671.019 814.421 1476.98>
LayerCount: 2
Fore
SplineSet
593 783 m 2,0,1
 754 783 754 783 863 806 c 128,-1,2
 972 829 972 829 1038 878 c 128,-1,3
 1104 927 1104 927 1132.5 1003.5 c 128,-1,4
 1161 1080 1161 1080 1161 1187 c 0,5,6
 1161 1250 1161 1250 1144.5 1293.5 c 128,-1,7
 1128 1337 1128 1337 1098 1365 c 128,-1,8
 1068 1393 1068 1393 1027 1408 c 128,-1,9
 986 1423 986 1423 938 1430 c 128,-1,10
 890 1437 890 1437 836 1438 c 128,-1,11
 782 1439 782 1439 727 1439 c 2,12,-1
 521 1439 l 1,13,-1
 428 783 l 1,14,-1
 593 783 l 2,0,1
368 1577 m 1,15,-1
 735 1577 l 2,16,17
 899 1577 899 1577 1012 1555.5 c 128,-1,18
 1125 1534 1125 1534 1194.5 1488.5 c 128,-1,19
 1264 1443 1264 1443 1294.5 1372.5 c 128,-1,20
 1325 1302 1325 1302 1325 1204 c 0,21,22
 1325 1091 1325 1091 1299 1005.5 c 128,-1,23
 1273 920 1273 920 1225.5 857.5 c 128,-1,24
 1178 795 1178 795 1110 753 c 128,-1,25
 1042 711 1042 711 958.5 686.5 c 128,-1,26
 875 662 875 662 777.5 651.5 c 128,-1,27
 680 641 680 641 573 641 c 2,28,-1
 408 641 l 1,29,-1
 319 0 l 1,30,-1
 147 0 l 1,31,-1
 368 1577 l 1,15,-1
EndSplineSet
EndChar

StartChar: Q
Encoding: 81 81 52
Width: 1449
Flags: W
HStem: -424 21G<1029.18 1068.74> 1464 145<751.975 1140.08>
VStem: 219 178<287.226 939> 1307 176<624.395 1279.44>
DStem2: 860 -30 644 -34 0.721174 -0.692754<0 408.075>
LayerCount: 2
Fore
SplineSet
397 547 m 1,0,1
 397 430 397 430 421 346 c 0,2,3
 456 220 456 220 539.5 161.5 c 128,-1,4
 623 103 623 103 758 103 c 0,5,6
 838 103 838 103 903.5 126 c 128,-1,7
 969 149 969 149 1022 190 c 128,-1,8
 1075 231 1075 231 1116 286.5 c 128,-1,9
 1157 342 1157 342 1188 406 c 128,-1,10
 1219 470 1219 470 1240.5 540.5 c 128,-1,11
 1262 611 1262 611 1276 682 c 0,12,13
 1293 770 1293 770 1300 854.5 c 128,-1,14
 1307 939 1307 939 1307 1014 c 0,15,16
 1307 1246 1307 1246 1217 1355 c 128,-1,17
 1127 1464 1127 1464 948 1464 c 0,18,19
 838 1464 838 1464 754 1420.5 c 128,-1,20
 670 1377 670 1377 608.5 1305 c 128,-1,21
 547 1233 547 1233 506 1138.5 c 128,-1,22
 465 1044 465 1044 440.5 942.5 c 128,-1,23
 416 841 416 841 406 738.5 c 128,-1,24
 396 636 396 636 397 547 c 1,0,1
1483 1010 m 0,25,26
 1483 952 1483 952 1478 880 c 128,-1,27
 1473 808 1473 808 1459.5 729 c 128,-1,28
 1446 650 1446 650 1424 568 c 128,-1,29
 1402 486 1402 486 1368.5 407 c 128,-1,30
 1335 328 1335 328 1288 256 c 128,-1,31
 1241 184 1241 184 1179 126 c 128,-1,32
 1117 68 1117 68 1037.5 27 c 128,-1,33
 958 -14 958 -14 860 -30 c 1,34,-1
 1154 -313 l 1,35,-1
 1050 -424 l 1,36,-1
 644 -34 l 1,37,38
 551 -22 551 -22 472.5 17 c 128,-1,39
 394 56 394 56 338 127 c 128,-1,40
 282 198 282 198 250.5 303.5 c 128,-1,41
 219 409 219 409 219 555 c 0,42,43
 219 628 219 628 226.5 712 c 128,-1,44
 234 796 234 796 251.5 884 c 128,-1,45
 269 972 269 972 297.5 1060 c 128,-1,46
 326 1148 326 1148 368 1228.5 c 128,-1,47
 410 1309 410 1309 467 1378.5 c 128,-1,48
 524 1448 524 1448 598 1499 c 128,-1,49
 672 1550 672 1550 764 1579.5 c 128,-1,50
 856 1609 856 1609 969 1609 c 0,51,52
 1075 1609 1075 1609 1169 1578 c 128,-1,53
 1263 1547 1263 1547 1332.5 1476 c 128,-1,54
 1402 1405 1402 1405 1442.5 1290.5 c 128,-1,55
 1483 1176 1483 1176 1483 1010 c 0,25,26
EndSplineSet
EndChar

StartChar: R
Encoding: 82 82 53
Width: 1250
Flags: W
HStem: 0 21G<147 322.776 997 1180.5> 735 124<438 872.612> 795 67<874 939.419> 1439 138<521 1045.41>
VStem: 147 173<0 173> 997 173<0 173> 1059 168<125.221 620.283> 1151 152<1027.51 1348.44>
DStem2: 147 0 320 0 0.138783 0.990323<24.0095 766.053 891.073 1476.98> 997 0 1170 0 0.128004 0.991774<22.1448 487.922>
LayerCount: 2
Fore
SplineSet
997 0 m 1,0,1
 1012 107 1012 107 1022.5 184.5 c 128,-1,2
 1033 262 1033 262 1040 315.5 c 128,-1,3
 1047 369 1047 369 1050.5 401.5 c 128,-1,4
 1054 434 1054 434 1056 452 c 128,-1,5
 1058 470 1058 470 1058.5 476.5 c 128,-1,6
 1059 483 1059 483 1059 484 c 0,7,8
 1057 542 1057 542 1039 585 c 1,9,10
 1000 662 1000 662 897 699 c 1,11,12
 839 718 839 718 761 726.5 c 128,-1,13
 683 735 683 735 580 735 c 2,14,-1
 422 735 l 1,15,-1
 320 0 l 1,16,-1
 147 0 l 1,17,-1
 368 1577 l 1,18,-1
 761 1577 l 2,19,20
 818 1577 818 1577 880 1575 c 128,-1,21
 942 1573 942 1573 1003 1562 c 0,22,23
 1063 1552 1063 1552 1117.5 1531 c 128,-1,24
 1172 1510 1172 1510 1213.5 1473 c 128,-1,25
 1255 1436 1255 1436 1279 1380 c 128,-1,26
 1303 1324 1303 1324 1303 1243 c 0,27,28
 1303 1154 1303 1154 1281 1085.5 c 128,-1,29
 1259 1017 1259 1017 1223 967 c 128,-1,30
 1187 917 1187 917 1141.5 883.5 c 128,-1,31
 1096 850 1096 850 1048.5 830 c 128,-1,32
 1001 810 1001 810 955 802 c 128,-1,33
 909 794 909 794 874 795 c 1,34,35
 1043 774 1043 774 1134 698.5 c 128,-1,36
 1225 623 1225 623 1227 484 c 0,37,38
 1227 482 1227 482 1227 477 c 128,-1,39
 1227 472 1227 472 1226 462 c 128,-1,40
 1225 452 1225 452 1223.5 435 c 128,-1,41
 1222 418 1222 418 1219 392 c 0,42,43
 1214 344 1214 344 1202.5 250.5 c 128,-1,44
 1191 157 1191 157 1170 0 c 1,45,-1
 997 0 l 1,0,1
569 859 m 2,46,47
 647 859 647 859 721 862 c 128,-1,48
 795 865 795 865 859.5 876 c 128,-1,49
 924 887 924 887 977.5 909.5 c 128,-1,50
 1031 932 1031 932 1069.5 972 c 128,-1,51
 1108 1012 1108 1012 1129.5 1071 c 128,-1,52
 1151 1130 1151 1130 1151 1215 c 0,53,54
 1151 1268 1151 1268 1134 1305 c 128,-1,55
 1117 1342 1117 1342 1087.5 1367 c 128,-1,56
 1058 1392 1058 1392 1018 1406.5 c 128,-1,57
 978 1421 978 1421 933 1428 c 128,-1,58
 888 1435 888 1435 840 1437 c 128,-1,59
 792 1439 792 1439 746 1439 c 2,60,-1
 521 1439 l 1,61,-1
 438 859 l 1,62,-1
 569 859 l 2,46,47
EndSplineSet
EndChar

StartChar: S
Encoding: 83 83 54
Width: 1218
Flags: W
HStem: -41 145<335.146 827.459> 1341 21G<1184 1206.48> 1464 145<601.448 1059.05>
VStem: 283 176<1044.63 1333.82> 1008 178<283.682 611.101>
DStem2: 637 972 556 810 0.929232 -0.369498<-193.044 453.423>
LayerCount: 2
Fore
SplineSet
1199 1341 m 1,0,1
 1169 1363 1169 1363 1129.5 1385.5 c 128,-1,2
 1090 1408 1090 1408 1045 1425 c 128,-1,3
 1000 1442 1000 1442 950.5 1453 c 128,-1,4
 901 1464 901 1464 850 1464 c 0,5,6
 732 1464 732 1464 656 1440.5 c 128,-1,7
 580 1417 580 1417 536.5 1376.5 c 128,-1,8
 493 1336 493 1336 476 1282 c 128,-1,9
 459 1228 459 1228 459 1168 c 0,10,11
 459 1129 459 1129 468 1100.5 c 128,-1,12
 477 1072 477 1072 498 1049.5 c 128,-1,13
 519 1027 519 1027 553 1008.5 c 128,-1,14
 587 990 587 990 637 972 c 2,15,-1
 888 880 l 2,16,17
 956 855 956 855 1011 823.5 c 128,-1,18
 1066 792 1066 792 1105 749.5 c 128,-1,19
 1144 707 1144 707 1165 651 c 128,-1,20
 1186 595 1186 595 1186 522 c 0,21,22
 1186 412 1186 412 1151.5 310.5 c 128,-1,23
 1117 209 1117 209 1043.5 131 c 128,-1,24
 970 53 970 53 853.5 6 c 128,-1,25
 737 -41 737 -41 574 -41 c 0,26,27
 511 -41 511 -41 451.5 -31.5 c 128,-1,28
 392 -22 392 -22 340 -6 c 128,-1,29
 288 10 288 10 245.5 31 c 128,-1,30
 203 52 203 52 173 74 c 1,31,-1
 214 217 l 1,32,33
 265 185 265 185 305 163.5 c 128,-1,34
 345 142 345 142 385.5 128.5 c 128,-1,35
 426 115 426 115 472 109.5 c 128,-1,36
 518 104 518 104 580 104 c 0,37,38
 795 104 795 104 901.5 195 c 128,-1,39
 1008 286 1008 286 1008 474 c 0,40,41
 1008 522 1008 522 994.5 557.5 c 128,-1,42
 981 593 981 593 955.5 620.5 c 128,-1,43
 930 648 930 648 893 669 c 128,-1,44
 856 690 856 690 810 709 c 2,45,-1
 556 810 l 2,46,47
 519 824 519 824 488.5 840.5 c 128,-1,48
 458 857 458 857 432 874 c 0,49,50
 354 928 354 928 318.5 994 c 128,-1,51
 283 1060 283 1060 283 1139 c 0,52,53
 283 1214 283 1214 304.5 1278 c 128,-1,54
 326 1342 326 1342 363.5 1394 c 128,-1,55
 401 1446 401 1446 452 1486.5 c 128,-1,56
 503 1527 503 1527 562 1554 c 128,-1,57
 621 1581 621 1581 685.5 1595 c 128,-1,58
 750 1609 750 1609 814 1609 c 0,59,60
 938 1609 938 1609 1044.5 1577.5 c 128,-1,61
 1151 1546 1151 1546 1251 1480 c 1,62,-1
 1199 1341 l 1,0,1
EndSplineSet
EndChar

StartChar: T
Encoding: 84 84 55
Width: 1003
Flags: W
HStem: 0 21G<419 594.806> 1440 137<213 620 794 1220>
VStem: 419 173<0 173>
DStem2: 419 0 592 0 0.138918 0.990304<24.0328 1453.96>
LayerCount: 2
Fore
SplineSet
1220 1440 m 1,0,-1
 794 1440 l 1,1,-1
 592 0 l 1,2,-1
 419 0 l 1,3,-1
 620 1440 l 1,4,-1
 193 1440 l 1,5,-1
 213 1577 l 1,6,-1
 1239 1577 l 1,7,-1
 1220 1440 l 1,0,-1
EndSplineSet
EndChar

StartChar: U
Encoding: 85 85 56
Width: 1373
Flags: W
HStem: -40 133<522.268 934.891> 1557 20G<303 490 1314.14 1489>
VStem: 185 170<272.087 922.125> 318 172<1405 1577> 1317 172<1405 1577>
DStem2: 185.5 566.5 359 596.5 0.13001 0.991513<-14.2249 1019.15> 1193 709 1367 713 0.141421 0.989949<-369.401 876.812>
LayerCount: 2
Fore
SplineSet
717 93 m 0,0,1
 827 93 827 93 906 124 c 128,-1,2
 985 155 985 155 1040.5 227 c 128,-1,3
 1096 299 1096 299 1132 417 c 128,-1,4
 1168 535 1168 535 1193 709 c 2,5,-1
 1317 1577 l 1,6,-1
 1489 1577 l 1,7,-1
 1367 713 l 2,8,9
 1346 564 1346 564 1311.5 450 c 128,-1,10
 1277 336 1277 336 1230.5 252.5 c 128,-1,11
 1184 169 1184 169 1126.5 112.5 c 128,-1,12
 1069 56 1069 56 1002 22.5 c 128,-1,13
 935 -11 935 -11 859 -25.5 c 128,-1,14
 783 -40 783 -40 700 -40 c 0,15,16
 575 -40 575 -40 478.5 1.5 c 128,-1,17
 382 43 382 43 317 119.5 c 128,-1,18
 252 196 252 196 218.5 305.5 c 128,-1,19
 185 415 185 415 185 552 c 0,20,21
 185 559 185 559 185.5 566.5 c 128,-1,22
 186 574 186 574 186.5 586.5 c 128,-1,23
 187 599 187 599 189 618 c 128,-1,24
 191 637 191 637 194 666 c 0,25,26
 198 706 198 706 206.5 774 c 128,-1,27
 215 842 215 842 230 949.5 c 128,-1,28
 245 1057 245 1057 266.5 1211 c 128,-1,29
 288 1365 288 1365 318 1577 c 1,30,-1
 490 1577 l 1,31,32
 460 1362 460 1362 438.5 1205.5 c 128,-1,33
 417 1049 417 1049 402 939 c 128,-1,34
 387 829 387 829 378 759 c 128,-1,35
 369 689 369 689 364 647 c 0,36,37
 361 617 361 617 359 596.5 c 128,-1,38
 357 576 357 576 356.5 562.5 c 128,-1,39
 356 549 356 549 355.5 539.5 c 128,-1,40
 355 530 355 530 355 522 c 0,41,42
 355 432 355 432 372.5 353.5 c 128,-1,43
 390 275 390 275 432 217 c 128,-1,44
 474 159 474 159 543.5 126 c 128,-1,45
 613 93 613 93 717 93 c 0,0,1
EndSplineSet
EndChar

StartChar: V
Encoding: 86 86 57
Width: 1227
Flags: W
HStem: 0 21G<269.971 528.573> 1558 19G<34 203.754 1011.64 1196>
VStem: 34 167<1411 1578>
DStem2: 201 1578 34 1578 0.14975 -0.988724<0 1487.78> 404 104 520 0 0.39399 0.919115<0 1596.55>
LayerCount: 2
Fore
SplineSet
201 1578 m 1,0,-1
 404 104 l 1,1,-1
 1020 1577 l 1,2,-1
 1196 1577 l 1,3,-1
 520 0 l 1,4,-1
 273 0 l 1,5,-1
 34 1578 l 1,6,-1
 201 1578 l 1,0,-1
EndSplineSet
EndChar

StartChar: W
Encoding: 87 87 58
Width: 2002
Flags: W
HStem: 0 21G<298 578.102 1163.2 1430> 1558 19G<302.937 455 957.118 1238 1803.27 1975>
VStem: 298 154<90 1577> 1104 133<1290.51 1501> 1164 147<94 358.639>
DStem2: 1311 94 1423 0 0.330377 0.943849<0 1564.59>
LayerCount: 2
Fore
SplineSet
964 1578 m 1,0,-1
 1237 1578 l 1,1,-1
 1311 94 l 1,2,-1
 1810 1577 l 1,3,-1
 1975 1577 l 1,4,-1
 1423 0 l 1,5,-1
 1164 0 l 1,6,-1
 1104 1501 l 1,7,-1
 571 0 l 1,8,-1
 298 0 l 1,9,-1
 303 1577 l 1,10,-1
 455 1577 l 1,11,-1
 452 90 l 1,12,-1
 964 1578 l 1,0,-1
EndSplineSet
EndChar

StartChar: X
Encoding: 88 88 59
Width: 1199
Flags: W
HStem: 0 21G<33 242.062 949.526 1152> 1557 20G<286 467.446 1213.25 1401>
VStem: 33 195<0 195> 1228 173<1404 1577>
DStem2: 33 0 228 0 0.603955 0.797018<117.771 864.286 1154.87 1978.62> 459 1577 286 1577 0.397906 -0.917426<0 719.667>
LayerCount: 2
Fore
SplineSet
817 800 m 1,0,-1
 1152 0 l 1,1,-1
 957 0 l 1,2,-1
 704 677 l 1,3,-1
 228 0 l 1,4,-1
 33 0 l 1,5,-1
 623 800 l 1,6,-1
 286 1577 l 1,7,-1
 459 1577 l 1,8,-1
 739 914 l 1,9,-1
 1228 1577 l 1,10,-1
 1401 1577 l 1,11,-1
 817 800 l 1,0,-1
EndSplineSet
EndChar

StartChar: Y
Encoding: 89 89 60
Width: 1138
Flags: W
HStem: 0 21G<481 653.81> 1552 20G<235 391.648 1170.75 1349>
VStem: 235 151<1421 1572> 481 170<0 170>
DStem2: 481 0 651 0 0.138459 0.990368<23.5381 512.291> 652 630 719 484 0.501099 0.86539<0 1080.78>
LayerCount: 2
Fore
SplineSet
652 630 m 1,0,-1
 1182 1572 l 1,1,-1
 1349 1572 l 1,2,-1
 719 484 l 1,3,-1
 651 0 l 1,4,-1
 481 0 l 1,5,-1
 553 515 l 1,6,-1
 235 1572 l 1,7,-1
 386 1572 l 1,8,-1
 652 630 l 1,0,-1
EndSplineSet
EndChar

StartChar: Z
Encoding: 90 90 61
Width: 1091
Flags: W
HStem: 0 138<284 1058> 1440 132<325 1088>
DStem2: 128 176 284 138 0.603965 0.797011<63.9322 1587.23>
LayerCount: 2
Fore
SplineSet
1278 1572 m 1,0,-1
 1257 1422 l 1,1,-1
 284 138 l 1,2,-1
 1078 138 l 1,3,-1
 1058 0 l 1,4,-1
 105 0 l 1,5,-1
 128 176 l 1,6,-1
 1088 1440 l 1,7,-1
 305 1440 l 1,8,-1
 325 1572 l 1,9,-1
 1278 1572 l 1,0,-1
EndSplineSet
EndChar

StartChar: bracketleft
Encoding: 91 91 62
Width: 1193
Flags: W
HStem: 0 138<475 899> 1442 138<659 1099>
DStem2: 284 0 475 138 0.138525 0.990359<163.128 1480.04>
LayerCount: 2
Fore
SplineSet
505 1580 m 1,0,-1
 1116 1580 l 1,1,-1
 1099 1442 l 1,2,-1
 659 1442 l 1,3,-1
 475 138 l 1,4,-1
 915 138 l 1,5,-1
 899 0 l 1,6,-1
 284 0 l 1,7,-1
 505 1580 l 1,0,-1
EndSplineSet
EndChar

StartChar: backslash
Encoding: 92 92 63
Width: 794
Flags: W
VStem: 312 460
DStem2: 455 1731 312 1710 0.168396 -0.985719<0 1898.65>
LayerCount: 2
Fore
SplineSet
455 1731 m 1,0,-1
 772 -141 l 1,1,-1
 633 -169 l 1,2,-1
 312 1710 l 1,3,-1
 455 1731 l 1,0,-1
EndSplineSet
EndChar

StartChar: bracketright
Encoding: 93 93 64
Width: 1133
Flags: W
HStem: 0 138<246 686> 1442 138<455 874>
DStem2: 686 138 844 0 0.139754 0.990186<0 1317.48>
LayerCount: 2
Fore
SplineSet
455 1580 m 1,0,-1
 1067 1580 l 1,1,-1
 844 0 l 1,2,-1
 228 0 l 1,3,-1
 246 138 l 1,4,-1
 686 138 l 1,5,-1
 874 1442 l 1,6,-1
 438 1442 l 1,7,-1
 455 1580 l 1,0,-1
EndSplineSet
EndChar

StartChar: asciicircum
Encoding: 94 94 65
Width: 1294
Flags: W
HStem: 347 524<724 747>
VStem: 420 153<347 500> 831 130<347 477>
DStem2: 420 347 573 347 0.529417 0.848362<81.0008 454.546> 854 871 769 665 0.20007 -0.979782<184.829 508.804>
LayerCount: 2
Fore
SplineSet
747 871 m 1,0,-1
 854 871 l 1,1,-1
 961 347 l 1,2,-1
 831 347 l 1,3,-1
 769 665 l 1,4,-1
 573 347 l 1,5,-1
 420 347 l 1,6,-1
 747 871 l 1,0,-1
EndSplineSet
EndChar

StartChar: underscore
Encoding: 95 95 66
Width: 1168
Flags: W
HStem: -111 136<121 972>
LayerCount: 2
Fore
SplineSet
972 -111 m 1,0,-1
 102 -111 l 1,1,-1
 121 25 l 1,2,-1
 994 25 l 1,3,-1
 972 -111 l 1,0,-1
EndSplineSet
EndChar

StartChar: grave
Encoding: 96 96 67
Width: 725
Flags: W
HStem: 148 614<374 399>
VStem: 141 303
LayerCount: 2
Fore
SplineSet
444 148 m 1,0,-1
 374 148 l 1,1,-1
 141 762 l 1,2,-1
 399 762 l 1,3,-1
 444 148 l 1,0,-1
EndSplineSet
EndChar

StartChar: a
Encoding: 97 97 68
Width: 1093
Flags: W
HStem: -21 125<411.331 694.914> 0 21G<855 982.871> 1040 128<637.633 967.846>
VStem: 176 154<190.673 652.017> 864 116<0 99.8835>
DStem2: 968 1002 1133 1066 0.142071 0.989856<-776.473 10.8134>
LayerCount: 2
Fore
SplineSet
1133 1066 m 1,0,-1
 980 0 l 1,1,-1
 855 0 l 1,2,-1
 864 197 l 1,3,4
 804 92 804 92 715 35.5 c 128,-1,5
 626 -21 626 -21 523 -21 c 0,6,7
 429 -21 429 -21 363 12.5 c 128,-1,8
 297 46 297 46 255.5 103 c 128,-1,9
 214 160 214 160 195 236.5 c 128,-1,10
 176 313 176 313 176 400 c 0,11,12
 176 477 176 477 196 564.5 c 128,-1,13
 216 652 216 652 254 737 c 128,-1,14
 292 822 292 822 346.5 900 c 128,-1,15
 401 978 401 978 469.5 1037.5 c 128,-1,16
 538 1097 538 1097 619.5 1132.5 c 128,-1,17
 701 1168 701 1168 793 1168 c 0,18,19
 825 1168 825 1168 864.5 1161 c 128,-1,20
 904 1154 904 1154 943.5 1142.5 c 128,-1,21
 983 1131 983 1131 1019 1118 c 128,-1,22
 1055 1105 1055 1105 1080 1093 c 2,23,-1
 1133 1066 l 1,0,-1
330 404 m 0,24,25
 330 324 330 324 344 267 c 128,-1,26
 358 210 358 210 386.5 174 c 128,-1,27
 415 138 415 138 458 121 c 128,-1,28
 501 104 501 104 560 104 c 0,29,30
 611 104 611 104 658.5 125 c 128,-1,31
 706 146 706 146 746 177 c 128,-1,32
 786 208 786 208 816.5 243 c 128,-1,33
 847 278 847 278 864 305 c 1,34,-1
 968 1002 l 2,35,36
 969 1003 969 1003 953.5 1009.5 c 128,-1,37
 938 1016 938 1016 912.5 1022.5 c 128,-1,38
 887 1029 887 1029 855 1034.5 c 128,-1,39
 823 1040 823 1040 792 1040 c 0,40,41
 735 1040 735 1040 679 1016 c 128,-1,42
 623 992 623 992 571.5 949.5 c 128,-1,43
 520 907 520 907 476 848 c 128,-1,44
 432 789 432 789 399.5 718.5 c 128,-1,45
 367 648 367 648 348.5 568 c 128,-1,46
 330 488 330 488 330 404 c 0,24,25
EndSplineSet
EndChar

StartChar: b
Encoding: 98 98 69
Width: 1099
Flags: W
HStem: -21 125<479.966 760.747> 0 21G<155 272.435> 1041 127<676.544 920.812>
VStem: 155 112<0 52.7565> 970 152<439.911 990.085> 1122 1<732.76 736>
DStem2: 155 0 352 280 0.138885 0.990309<256.601 748.003 889.563 1656.05>
LayerCount: 2
Fore
SplineSet
1123 740 m 1,0,1
 1123 663 1123 663 1110 576.5 c 128,-1,2
 1097 490 1097 490 1070.5 405.5 c 128,-1,3
 1044 321 1044 321 1003 243.5 c 128,-1,4
 962 166 962 166 906 107.5 c 128,-1,5
 850 49 850 49 778.5 14 c 128,-1,6
 707 -21 707 -21 619 -21 c 0,7,8
 428 -21 428 -21 317 184 c 1,9,-1
 267 0 l 1,10,-1
 155 0 l 1,11,-1
 385 1640 l 1,12,-1
 548 1652 l 1,13,-1
 435 859 l 1,14,15
 456 913 456 913 497.5 968 c 128,-1,16
 539 1023 539 1023 592 1067.5 c 128,-1,17
 645 1112 645 1112 704 1140 c 128,-1,18
 763 1168 763 1168 819 1168 c 0,19,20
 915 1168 915 1168 974.5 1130.5 c 128,-1,21
 1034 1093 1034 1093 1066.5 1032 c 128,-1,22
 1099 971 1099 971 1110.5 892.5 c 128,-1,23
 1122 814 1122 814 1122 732 c 1,24,25
 1122 734 1122 734 1122.5 736 c 128,-1,26
 1123 738 1123 738 1123 740 c 1,0,1
629 104 m 0,27,28
 701 104 701 104 754.5 143.5 c 128,-1,29
 808 183 808 183 846 244.5 c 128,-1,30
 884 306 884 306 908 381.5 c 128,-1,31
 932 457 932 457 946 528.5 c 128,-1,32
 960 600 960 600 965 659.5 c 128,-1,33
 970 719 970 719 970 749 c 0,34,35
 970 801 970 801 967.5 853 c 128,-1,36
 965 905 965 905 950 947 c 128,-1,37
 935 989 935 989 901.5 1015 c 128,-1,38
 868 1041 868 1041 806 1041 c 0,39,40
 770 1041 770 1041 731.5 1025 c 128,-1,41
 693 1009 693 1009 655 982 c 128,-1,42
 617 955 617 955 581 920.5 c 128,-1,43
 545 886 545 886 513 850 c 128,-1,44
 481 814 481 814 455.5 778.5 c 128,-1,45
 430 743 430 743 413 714 c 1,46,47
 413 716 413 716 413.5 716.5 c 128,-1,48
 414 717 414 717 414 719 c 2,49,-1
 352 280 l 1,50,51
 351 281 351 281 358.5 268 c 128,-1,52
 366 255 366 255 382 235.5 c 128,-1,53
 398 216 398 216 421.5 193 c 128,-1,54
 445 170 445 170 476 150 c 128,-1,55
 507 130 507 130 545 117 c 128,-1,56
 583 104 583 104 629 104 c 0,27,28
EndSplineSet
EndChar

StartChar: c
Encoding: 99 99 70
Width: 988
Flags: W
HStem: -21 125<438.739 773.256> 1041 127<587.501 915.798>
VStem: 176 168<206.338 711.422>
LayerCount: 2
Fore
SplineSet
176 415 m 0,0,1
 176 586 176 586 222.5 725.5 c 128,-1,2
 269 865 269 865 348 963 c 128,-1,3
 427 1061 427 1061 531 1114.5 c 128,-1,4
 635 1168 635 1168 750 1168 c 0,5,6
 847 1168 847 1168 931.5 1138 c 128,-1,7
 1016 1108 1016 1108 1085 1045 c 1,8,-1
 1014 920 l 1,9,10
 995 943 995 943 965.5 965 c 128,-1,11
 936 987 936 987 901 1004 c 128,-1,12
 866 1021 866 1021 827.5 1031 c 128,-1,13
 789 1041 789 1041 752 1041 c 0,14,15
 669 1041 669 1041 605.5 1007 c 128,-1,16
 542 973 542 973 495.5 917.5 c 128,-1,17
 449 862 449 862 418.5 791 c 128,-1,18
 388 720 388 720 371 647 c 0,19,20
 357 584 357 584 350.5 525 c 128,-1,21
 344 466 344 466 344 414 c 0,22,23
 344 257 344 257 406.5 180.5 c 128,-1,24
 469 104 469 104 578 104 c 0,25,26
 641 104 641 104 695.5 119.5 c 128,-1,27
 750 135 750 135 804 164 c 0,28,29
 830 178 830 178 856 196 c 128,-1,30
 882 214 882 214 908 234 c 1,31,-1
 938 112 l 1,32,33
 750 -21 750 -21 559 -21 c 0,34,35
 480 -21 480 -21 410.5 4 c 128,-1,36
 341 29 341 29 289 81.5 c 128,-1,37
 237 134 237 134 206.5 216.5 c 128,-1,38
 176 299 176 299 176 415 c 0,0,1
EndSplineSet
EndChar

StartChar: d
Encoding: 100 100 71
Width: 1095
Flags: W
HStem: -21 125<406.953 677.443> 0 21G<867 976.833> 1040 128<537.513 817.456>
VStem: 177 151<193.673 710.782> 867 107<0 101.21>
DStem2: 856 281 974 0 0.140247 0.990117<-57.9727 604.071 713.047 1371.23>
LayerCount: 2
Fore
SplineSet
678 1168 m 0,0,1
 731 1168 731 1168 775.5 1149 c 128,-1,2
 820 1130 820 1130 855 1102.5 c 128,-1,3
 890 1075 890 1075 915.5 1043.5 c 128,-1,4
 941 1012 941 1012 956 987 c 1,5,-1
 1046 1639 l 1,6,-1
 1208 1652 l 1,7,-1
 974 0 l 1,8,-1
 867 0 l 1,9,-1
 869 183 l 1,10,11
 833 139 833 139 790.5 102 c 128,-1,12
 748 65 748 65 702 37.5 c 128,-1,13
 656 10 656 10 607.5 -5.5 c 128,-1,14
 559 -21 559 -21 512 -21 c 0,15,16
 419 -21 419 -21 355 14 c 128,-1,17
 291 49 291 49 251.5 109 c 128,-1,18
 212 169 212 169 194.5 248 c 128,-1,19
 177 327 177 327 177 416 c 0,20,21
 177 488 177 488 189.5 572 c 128,-1,22
 202 656 202 656 228 739.5 c 128,-1,23
 254 823 254 823 294.5 900.5 c 128,-1,24
 335 978 335 978 390.5 1037.5 c 128,-1,25
 446 1097 446 1097 517.5 1132.5 c 128,-1,26
 589 1168 589 1168 678 1168 c 0,0,1
328 402 m 0,27,28
 328 378 328 378 330 352 c 128,-1,29
 332 326 332 326 337 300 c 0,30,31
 344 262 344 262 357 226.5 c 128,-1,32
 370 191 370 191 392.5 164 c 128,-1,33
 415 137 415 137 448.5 120.5 c 128,-1,34
 482 104 482 104 530 104 c 0,35,36
 581 104 581 104 630 122.5 c 128,-1,37
 679 141 679 141 722 168 c 128,-1,38
 765 195 765 195 799.5 226 c 128,-1,39
 834 257 834 257 856 281 c 1,40,41
 876 420 876 420 890 519 c 128,-1,42
 904 618 904 618 913.5 685 c 128,-1,43
 923 752 923 752 928.5 791.5 c 128,-1,44
 934 831 934 831 937 851 c 128,-1,45
 940 871 940 871 940.5 876 c 128,-1,46
 941 881 941 881 941 879 c 1,47,48
 942 878 942 878 933.5 890 c 128,-1,49
 925 902 925 902 908.5 919.5 c 128,-1,50
 892 937 892 937 868 958 c 128,-1,51
 844 979 844 979 813.5 997.5 c 128,-1,52
 783 1016 783 1016 746 1028 c 128,-1,53
 709 1040 709 1040 667 1040 c 0,54,55
 600 1040 600 1040 549.5 1005 c 128,-1,56
 499 970 499 970 461 914 c 128,-1,57
 423 858 423 858 397.5 788 c 128,-1,58
 372 718 372 718 356.5 647 c 128,-1,59
 341 576 341 576 334.5 511.5 c 128,-1,60
 328 447 328 447 328 402 c 0,27,28
EndSplineSet
EndChar

StartChar: e
Encoding: 101 101 72
Width: 1058
Flags: W
HStem: -21 126<447.62 776.826> 1039 129<580.98 880.494>
VStem: 176 167<210.304 556.661> 946 143<775.603 972.119>
DStem2: 375 670 357 557 0.991518 0.129972<0 577.166>
LayerCount: 2
Fore
SplineSet
375 670 m 1,0,1
 517 688 517 688 614.5 703 c 128,-1,2
 712 718 712 718 775.5 730.5 c 128,-1,3
 839 743 839 743 873.5 753.5 c 128,-1,4
 908 764 908 764 924 773 c 128,-1,5
 940 782 940 782 943 790.5 c 128,-1,6
 946 799 946 799 946 807 c 0,7,8
 946 922 946 922 895.5 980.5 c 128,-1,9
 845 1039 845 1039 755 1039 c 0,10,11
 683 1039 683 1039 622 1014.5 c 128,-1,12
 561 990 561 990 512.5 942.5 c 128,-1,13
 464 895 464 895 429 826.5 c 128,-1,14
 394 758 394 758 375 670 c 1,0,1
938 102 m 1,15,16
 896 72 896 72 849.5 49 c 128,-1,17
 803 26 803 26 755 10.5 c 128,-1,18
 707 -5 707 -5 660 -13 c 128,-1,19
 613 -21 613 -21 571 -21 c 0,20,21
 473 -21 473 -21 399 9 c 128,-1,22
 325 39 325 39 275.5 95 c 128,-1,23
 226 151 226 151 201 231 c 128,-1,24
 176 311 176 311 176 411 c 0,25,26
 176 492 176 492 191.5 579.5 c 128,-1,27
 207 667 207 667 238.5 751 c 128,-1,28
 270 835 270 835 316.5 911 c 128,-1,29
 363 987 363 987 425 1044 c 128,-1,30
 487 1101 487 1101 563.5 1134.5 c 128,-1,31
 640 1168 640 1168 732 1168 c 0,32,33
 916 1168 916 1168 1002.5 1076 c 128,-1,34
 1089 984 1089 984 1089 788 c 0,35,36
 1089 764 1089 764 1084.5 742.5 c 128,-1,37
 1080 721 1080 721 1058.5 701 c 128,-1,38
 1037 681 1037 681 991.5 662.5 c 128,-1,39
 946 644 946 644 865 626 c 128,-1,40
 784 608 784 608 660 591 c 128,-1,41
 536 574 536 574 357 557 c 1,42,43
 349 512 349 512 346 473.5 c 128,-1,44
 343 435 343 435 343 400 c 0,45,46
 343 248 343 248 414 176.5 c 128,-1,47
 485 105 485 105 610 105 c 0,48,49
 685 105 685 105 758 140 c 128,-1,50
 831 175 831 175 903 233 c 1,51,-1
 938 102 l 1,15,16
EndSplineSet
EndChar

StartChar: f
Encoding: 102 102 73
Width: 737
Flags: W
HStem: 0 21G<259 418.87> 1073 74<260 413 580 881> 1443 136<662.682 866.703>
VStem: 259 157<0 157>
DStem2: 413 1073 570 1073 0.142067 0.989857<-1061.69 0 96.9746 356.253>
LayerCount: 2
Fore
SplineSet
760 1443 m 0,0,1
 731 1443 731 1443 705.5 1433 c 128,-1,2
 680 1423 680 1423 657.5 1392 c 128,-1,3
 635 1361 635 1361 615.5 1302.5 c 128,-1,4
 596 1244 596 1244 580 1147 c 1,5,-1
 889 1147 l 1,6,-1
 881 1073 l 1,7,-1
 570 1073 l 1,8,-1
 416 0 l 1,9,-1
 259 0 l 1,10,-1
 413 1073 l 1,11,-1
 253 1073 l 1,12,-1
 260 1147 l 1,13,-1
 423 1147 l 1,14,15
 443 1249 443 1249 466.5 1320.5 c 128,-1,16
 490 1392 490 1392 517 1440 c 128,-1,17
 544 1488 544 1488 574 1515.5 c 128,-1,18
 604 1543 604 1543 637.5 1557.5 c 128,-1,19
 671 1572 671 1572 706.5 1575.5 c 128,-1,20
 742 1579 742 1579 781 1579 c 0,21,22
 822 1579 822 1579 857 1564 c 128,-1,23
 892 1549 892 1549 917.5 1531.5 c 128,-1,24
 943 1514 943 1514 956.5 1499 c 128,-1,25
 970 1484 970 1484 969 1484 c 2,26,-1
 895 1367 l 1,27,28
 886 1378 l 0,29,30
 877 1390 877 1390 859.5 1404.5 c 128,-1,31
 842 1419 842 1419 816.5 1431 c 128,-1,32
 791 1443 791 1443 760 1443 c 0,0,1
EndSplineSet
EndChar

StartChar: g
Encoding: 103 103 74
Width: 1099
Flags: W
HStem: -389 132<284.013 819.745> 1047 121<518.476 858.66>
VStem: 86 135<-198.599 9.43597> 186 118<278.953 398.297> 263 146<661.139 942.915> 928 127<-170.777 36.4459> 934 140<697.217 975.031>
DStem2: 388 519 409 419 0.980303 0.197497<-112.489 113.949> 521 237 413 141 0.992335 -0.123574<-147.006 382.582>
LayerCount: 2
Fore
SplineSet
409 788 m 0,0,1
 409 734 409 734 427.5 698.5 c 128,-1,2
 446 663 446 663 476.5 641.5 c 128,-1,3
 507 620 507 620 546.5 611.5 c 128,-1,4
 586 603 586 603 629 603 c 0,5,6
 785 601 785 601 859.5 664 c 128,-1,7
 934 727 934 727 934 858 c 0,8,9
 934 904 934 904 915 939 c 128,-1,10
 896 974 896 974 864.5 998 c 128,-1,11
 833 1022 833 1022 792 1034.5 c 128,-1,12
 751 1047 751 1047 707 1047 c 0,13,14
 632 1047 632 1047 576 1028.5 c 128,-1,15
 520 1010 520 1010 483 976.5 c 128,-1,16
 446 943 446 943 427.5 895 c 128,-1,17
 409 847 409 847 409 788 c 0,0,1
221 -99 m 0,18,19
 221 -183 221 -183 298 -220 c 128,-1,20
 375 -257 375 -257 538 -257 c 0,21,22
 730 -257 730 -257 829 -208 c 128,-1,23
 928 -159 928 -159 928 -62 c 0,24,25
 928 -15 928 -15 903.5 15.5 c 128,-1,26
 879 46 879 46 842 65 c 128,-1,27
 805 84 805 84 761 93.5 c 128,-1,28
 717 103 717 103 678 108 c 2,29,-1
 413 141 l 1,30,31
 314 81 314 81 267.5 22.5 c 128,-1,32
 221 -36 221 -36 221 -99 c 0,18,19
1074 854 m 0,33,34
 1074 785 1074 785 1048 723.5 c 128,-1,35
 1022 662 1022 662 971.5 612.5 c 128,-1,36
 921 563 921 563 848 527.5 c 128,-1,37
 775 492 775 492 682 474 c 2,38,-1
 409 419 l 2,39,40
 301 398 301 398 304 342 c 1,41,42
 303 316 303 316 321 298 c 128,-1,43
 339 280 339 280 369.5 268 c 128,-1,44
 400 256 400 256 439.5 249 c 128,-1,45
 479 242 479 242 521 237 c 128,-1,46
 563 232 563 232 604 228 c 128,-1,47
 645 224 645 224 679 219 c 0,48,49
 772 205 772 205 842.5 186 c 128,-1,50
 913 167 913 167 960.5 134.5 c 128,-1,51
 1008 102 1008 102 1031.5 53.5 c 128,-1,52
 1055 5 1055 5 1055 -67 c 0,53,54
 1055 -138 1055 -138 1027.5 -189 c 128,-1,55
 1000 -240 1000 -240 954.5 -276 c 128,-1,56
 909 -312 909 -312 851 -334 c 128,-1,57
 793 -356 793 -356 732 -368.5 c 128,-1,58
 671 -381 671 -381 611.5 -385 c 128,-1,59
 552 -389 552 -389 505 -389 c 0,60,61
 417 -389 417 -389 340.5 -370.5 c 128,-1,62
 264 -352 264 -352 207.5 -318.5 c 128,-1,63
 151 -285 151 -285 118.5 -237.5 c 128,-1,64
 86 -190 86 -190 86 -131 c 1,65,66
 91 -59 91 -59 119.5 -9 c 128,-1,67
 148 41 148 41 184 76 c 0,68,69
 202 94 202 94 227 111 c 128,-1,70
 252 128 252 128 275 140.5 c 128,-1,71
 298 153 298 153 313.5 160.5 c 128,-1,72
 329 168 329 168 328 167 c 1,73,74
 314 173 314 173 301.5 179 c 128,-1,75
 289 185 289 185 277 192 c 0,76,77
 257 203 257 203 237.5 217 c 128,-1,78
 218 231 218 231 209 246 c 0,79,80
 186 286 186 286 186 347 c 0,81,82
 184 473 184 473 388 519 c 1,83,-1
 499 545 l 1,84,85
 446 554 446 554 403 574 c 128,-1,86
 360 594 360 594 328.5 624.5 c 128,-1,87
 297 655 297 655 280 696 c 128,-1,88
 263 737 263 737 263 789 c 0,89,90
 263 871 263 871 293 940.5 c 128,-1,91
 323 1010 323 1010 378.5 1060.5 c 128,-1,92
 434 1111 434 1111 512 1139.5 c 128,-1,93
 590 1168 590 1168 686 1168 c 0,94,95
 763 1168 763 1168 825.5 1149 c 128,-1,96
 888 1130 888 1130 952 1085 c 1,97,98
 1003 1110 1003 1110 1041.5 1126.5 c 128,-1,99
 1080 1143 1080 1143 1114 1154 c 0,100,101
 1149 1165 1149 1165 1182 1170 c 128,-1,102
 1215 1175 1215 1175 1250 1178 c 1,103,-1
 1252 1028 l 1,104,-1
 997 1028 l 1,105,106
 1019 995 1019 995 1034 969.5 c 128,-1,107
 1049 944 1049 944 1058 923.5 c 128,-1,108
 1067 903 1067 903 1070.5 886.5 c 128,-1,109
 1074 870 1074 870 1074 854 c 0,33,34
EndSplineSet
EndChar

StartChar: h
Encoding: 104 104 75
Width: 1169
Flags: W
HStem: 0 21G<155 326.805 889 1059.8> 1041 127<657.805 946.141>
VStem: 155 169<0 169> 889 168<0 168> 997 170<617.489 989.292>
DStem2: 155 0 324 0 0.138401 0.990376<23.3898 952.513 997.787 1657.04> 889 0 1057 0 0.137143 0.990551<23.0401 823.256>
LayerCount: 2
Fore
SplineSet
555 1653 m 1,0,-1
 459 965 l 1,1,2
 523 1029 523 1029 574 1068.5 c 128,-1,3
 625 1108 625 1108 670.5 1130 c 128,-1,4
 716 1152 716 1152 759.5 1160 c 128,-1,5
 803 1168 803 1168 851 1168 c 0,6,7
 924 1168 924 1168 982.5 1149 c 128,-1,8
 1041 1130 1041 1130 1082 1091 c 128,-1,9
 1123 1052 1123 1052 1145 993 c 128,-1,10
 1167 934 1167 934 1167 854 c 0,11,12
 1167 821 1167 821 1164.5 787 c 128,-1,13
 1162 753 1162 753 1157 714 c 2,14,-1
 1057 0 l 1,15,-1
 889 0 l 1,16,-1
 989 712 l 2,17,18
 992 734 992 734 994.5 762 c 128,-1,19
 997 790 997 790 997 817 c 0,20,21
 997 931 997 931 955.5 986 c 128,-1,22
 914 1041 914 1041 820 1041 c 0,23,24
 760 1041 760 1041 701 1022 c 128,-1,25
 642 1003 642 1003 592 976 c 128,-1,26
 542 949 542 949 503.5 919.5 c 128,-1,27
 465 890 465 890 446 870 c 1,28,-1
 324 0 l 1,29,-1
 155 0 l 1,30,-1
 385 1641 l 1,31,-1
 555 1653 l 1,0,-1
EndSplineSet
EndChar

StartChar: i
Encoding: 105 105 76
Width: 534
Flags: W
HStem: 0 21G<199 363.825> 1127 20G<357.193 523> 1349 223<416.953 558.031> 1484 2<586 588>
VStem: 199 162<0 162> 360 163<984 1147> 386 201<1376.85 1542.2>
DStem2: 199 0 361 0 0.13985 0.990173<22.6557 1158.24>
LayerCount: 2
Fore
SplineSet
587 1486 m 2,0,1
 587 1458 587 1458 578.5 1433 c 128,-1,2
 570 1408 570 1408 555 1389.5 c 128,-1,3
 540 1371 540 1371 519 1360 c 128,-1,4
 498 1349 498 1349 472 1349 c 0,5,6
 430 1349 430 1349 408 1376 c 128,-1,7
 386 1403 386 1403 386 1441 c 0,8,9
 386 1466 386 1466 395 1489.5 c 128,-1,10
 404 1513 404 1513 420 1531.5 c 128,-1,11
 436 1550 436 1550 457.5 1561 c 128,-1,12
 479 1572 479 1572 504 1572 c 0,13,14
 541 1572 541 1572 564 1547 c 128,-1,15
 587 1522 587 1522 587 1484 c 2,16,-1
 587 1486 l 2,0,1
361 0 m 1,17,-1
 199 0 l 1,18,-1
 360 1147 l 1,19,-1
 523 1147 l 1,20,-1
 361 0 l 1,17,-1
EndSplineSet
EndChar

StartChar: j
Encoding: 106 106 77
Width: 581
Flags: W
HStem: -374 21G<63.4128 105> 1127 20G<412.166 583> 1349 223<470.953 612.807> 1484 2<641 643>
VStem: 415 168<979 1147> 440 202<1376.85 1542.2>
DStem2: 277 173 444 151 0.138219 0.990402<-276.735 983.725>
LayerCount: 2
Fore
SplineSet
642 1486 m 2,0,1
 642 1458 642 1458 633.5 1433 c 128,-1,2
 625 1408 625 1408 609.5 1389.5 c 128,-1,3
 594 1371 594 1371 572.5 1360 c 128,-1,4
 551 1349 551 1349 526 1349 c 0,5,6
 484 1349 484 1349 462 1376 c 128,-1,7
 440 1403 440 1403 440 1441 c 0,8,9
 440 1466 440 1466 449 1489.5 c 128,-1,10
 458 1513 458 1513 474 1531.5 c 128,-1,11
 490 1550 490 1550 511.5 1561 c 128,-1,12
 533 1572 533 1572 558 1572 c 0,13,14
 596 1572 596 1572 619 1547 c 128,-1,15
 642 1522 642 1522 642 1484 c 2,16,-1
 642 1486 l 2,0,1
43 -265 m 1,17,18
 104 -226 104 -226 144 -183 c 128,-1,19
 184 -140 184 -140 209.5 -88.5 c 128,-1,20
 235 -37 235 -37 250 27 c 128,-1,21
 265 91 265 91 277 173 c 2,22,-1
 415 1147 l 1,23,-1
 583 1147 l 1,24,-1
 444 151 l 2,25,26
 429 47 429 47 396 -40.5 c 128,-1,27
 363 -128 363 -128 315 -196 c 128,-1,28
 267 -264 267 -264 204.5 -309.5 c 128,-1,29
 142 -355 142 -355 68 -374 c 1,30,-1
 43 -265 l 1,17,18
EndSplineSet
EndChar

StartChar: k
Encoding: 107 107 78
Width: 1021
Flags: W
HStem: 0 21G<155 314.937 818.795 994> 1127 20G<968.743 1174>
VStem: 155 157<0 157> 832 162<0 162> 990 184<963 1147>
DStem2: 155 0 312 0 0.139659 0.9902<21.9264 455.521 618.155 1656.05> 398 590 595 600 0.728308 0.68525<150.329 812.843> 595 600 490 518 0.553739 -0.83269<10.138 630.85>
LayerCount: 2
Fore
SplineSet
375 429 m 1,0,-1
 312 0 l 1,1,-1
 155 0 l 1,2,-1
 385 1640 l 1,3,-1
 545 1652 l 1,4,-1
 398 590 l 1,5,-1
 990 1147 l 1,6,-1
 1174 1147 l 1,7,-1
 595 600 l 1,8,-1
 994 0 l 1,9,-1
 832 0 l 1,10,-1
 490 518 l 1,11,-1
 375 429 l 1,0,-1
EndSplineSet
EndChar

StartChar: l
Encoding: 108 108 79
Width: 485
Flags: W
HStem: 0 21G<186 346.821>
VStem: 186 158<0 158>
DStem2: 186 0 344 0 0.139659 0.9902<22.0661 1653.22>
LayerCount: 2
Fore
SplineSet
577 1652 m 1,0,-1
 344 0 l 1,1,-1
 186 0 l 1,2,-1
 417 1637 l 1,3,-1
 577 1652 l 1,0,-1
EndSplineSet
EndChar

StartChar: m
Encoding: 109 109 80
Width: 1716
Flags: W
HStem: 0 21G<155 314.849 807 963.897 1437 1608.5> 1041 127<656.822 896.976 1290.24 1528.68> 1128 20G<316.143 435>
VStem: 155 157<0 157> 319 116<1047.65 1148> 807 154<0 154> 926 152<872 997.162> 1437 157<0 157> 1555 159<526.984 998.193>
DStem2: 155 0 312 0 0.141421 0.989949<22.2032 752.503> 807 0 961 0 0.139367 0.990241<21.4626 746.95> 1437 0 1594 0 0.138408 0.990375<21.7301 882.662>
LayerCount: 2
Fore
SplineSet
1467 1168 m 0,0,1
 1594 1168 1594 1168 1653.5 1094 c 128,-1,2
 1713 1020 1713 1020 1714 871 c 0,3,4
 1714 863 1714 863 1713 851.5 c 128,-1,5
 1712 840 1712 840 1708.5 810.5 c 128,-1,6
 1705 781 1705 781 1697.5 726.5 c 128,-1,7
 1690 672 1690 672 1676.5 577.5 c 128,-1,8
 1663 483 1663 483 1643 342.5 c 128,-1,9
 1623 202 1623 202 1594 0 c 1,10,-1
 1437 0 l 1,11,12
 1466 202 1466 202 1486 343 c 128,-1,13
 1506 484 1506 484 1519 578.5 c 128,-1,14
 1532 673 1532 673 1539.5 728.5 c 128,-1,15
 1547 784 1547 784 1550.5 813.5 c 128,-1,16
 1554 843 1554 843 1554.5 855 c 128,-1,17
 1555 867 1555 867 1555 875 c 0,18,19
 1555 958 1555 958 1528.5 999.5 c 128,-1,20
 1502 1041 1502 1041 1429 1041 c 0,21,22
 1379 1041 1379 1041 1329 1022 c 128,-1,23
 1279 1003 1279 1003 1232 962.5 c 128,-1,24
 1185 922 1185 922 1142 860 c 128,-1,25
 1099 798 1099 798 1064 712 c 1,26,27
 1064 717 1064 717 1065 718 c 2,28,-1
 961 0 l 1,29,-1
 807 0 l 1,30,31
 837 205 837 205 857.5 347.5 c 128,-1,32
 878 490 878 490 891 584 c 128,-1,33
 904 678 904 678 911 731 c 128,-1,34
 918 784 918 784 921 810 c 0,35,36
 925 841 925 841 925.5 852.5 c 128,-1,37
 926 864 926 864 926 872 c 0,38,39
 926 956 926 956 898.5 998.5 c 128,-1,40
 871 1041 871 1041 798 1041 c 0,41,42
 750 1041 750 1041 699 1018.5 c 128,-1,43
 648 996 648 996 598 954 c 128,-1,44
 548 912 548 912 501 852 c 128,-1,45
 454 792 454 792 414 716 c 1,46,47
 415 717 415 717 415 723 c 2,48,-1
 312 0 l 1,49,-1
 155 0 l 1,50,-1
 319 1148 l 1,51,-1
 435 1148 l 1,52,-1
 433 881 l 1,53,54
 469 955 469 955 515 1009 c 128,-1,55
 561 1063 561 1063 613 1098.5 c 128,-1,56
 665 1134 665 1134 720.5 1151 c 128,-1,57
 776 1168 776 1168 832 1168 c 0,58,59
 1078 1168 1078 1168 1078 872 c 1,60,61
 1109 956 1109 956 1156 1012.5 c 128,-1,62
 1203 1069 1203 1069 1256.5 1103.5 c 128,-1,63
 1310 1138 1310 1138 1365 1153 c 128,-1,64
 1420 1168 1420 1168 1467 1168 c 0,0,1
EndSplineSet
EndChar

StartChar: n
Encoding: 110 110 81
Width: 1169
Flags: W
HStem: 0 21G<155 327.784 888 1067.5> 1041 127<679.715 941.735> 1127 20G<313.193 436>
VStem: 155 170<0 170> 316 120<1044.87 1147> 888 168<0 168> 994 172<476.562 985.155>
DStem2: 155 0 325 0 0.139003 0.990292<23.6306 942.095> 888 0 1056 0 0.131051 0.991376<22.0165 817.649>
LayerCount: 2
Fore
SplineSet
888 0 m 1,0,1
 915 191 915 191 933 323.5 c 128,-1,2
 951 456 951 456 963 543.5 c 128,-1,3
 975 631 975 631 981 680 c 128,-1,4
 987 729 987 729 990 754 c 0,5,6
 993 782 993 782 993.5 792.5 c 128,-1,7
 994 803 994 803 994 811 c 0,8,9
 994 863 994 863 985.5 905.5 c 128,-1,10
 977 948 977 948 957 978 c 128,-1,11
 937 1008 937 1008 903.5 1024.5 c 128,-1,12
 870 1041 870 1041 821 1041 c 0,13,14
 777 1041 777 1041 721 1021 c 128,-1,15
 665 1001 665 1001 611 972.5 c 128,-1,16
 557 944 557 944 512 913.5 c 128,-1,17
 467 883 467 883 445 862 c 1,18,-1
 325 0 l 1,19,-1
 155 0 l 1,20,-1
 316 1147 l 1,21,-1
 436 1147 l 1,22,-1
 434 959 l 1,23,24
 467 995 467 995 518.5 1032.5 c 128,-1,25
 570 1070 570 1070 629.5 1100 c 128,-1,26
 689 1130 689 1130 751 1149 c 128,-1,27
 813 1168 813 1168 868 1168 c 0,28,29
 1015 1168 1015 1168 1090.5 1090.5 c 128,-1,30
 1166 1013 1166 1013 1166 854 c 0,31,32
 1166 846 1166 846 1165.5 837.5 c 128,-1,33
 1165 829 1165 829 1164 817 c 128,-1,34
 1163 805 1163 805 1161 787 c 128,-1,35
 1159 769 1159 769 1156 742 c 0,36,37
 1152 706 1152 706 1144.5 648.5 c 128,-1,38
 1137 591 1137 591 1125 503 c 128,-1,39
 1113 415 1113 415 1096 291.5 c 128,-1,40
 1079 168 1079 168 1056 0 c 1,41,-1
 888 0 l 1,0,1
EndSplineSet
EndChar

StartChar: o
Encoding: 111 111 82
Width: 1150
Flags: W
HStem: -21 125<445.148 770.051> 1041 127<582.237 903.4>
VStem: 176 162<218.708 716.649> 1011 162<431.185 922.714>
LayerCount: 2
Fore
SplineSet
176 428 m 0,0,1
 176 519 176 519 192.5 609.5 c 128,-1,2
 209 700 209 700 242.5 782.5 c 128,-1,3
 276 865 276 865 325.5 935.5 c 128,-1,4
 375 1006 375 1006 440.5 1057.5 c 128,-1,5
 506 1109 506 1109 588.5 1138.5 c 128,-1,6
 671 1168 671 1168 769 1168 c 0,7,8
 849 1168 849 1168 910.5 1150 c 128,-1,9
 972 1132 972 1132 1017 1101 c 128,-1,10
 1062 1070 1062 1070 1092 1028 c 128,-1,11
 1122 986 1122 986 1140 937 c 128,-1,12
 1158 888 1158 888 1165.5 835 c 128,-1,13
 1173 782 1173 782 1173 729 c 0,14,15
 1173 561 1173 561 1125.5 422.5 c 128,-1,16
 1078 284 1078 284 996.5 185.5 c 128,-1,17
 915 87 915 87 807 33 c 128,-1,18
 699 -21 699 -21 579 -21 c 0,19,20
 489 -21 489 -21 414.5 10 c 128,-1,21
 340 41 340 41 287 98.5 c 128,-1,22
 234 156 234 156 205 239.5 c 128,-1,23
 176 323 176 323 176 428 c 0,0,1
602 104 m 256,24,25
 679 104 679 104 739.5 132 c 128,-1,26
 800 160 800 160 845.5 206.5 c 128,-1,27
 891 253 891 253 922.5 314.5 c 128,-1,28
 954 376 954 376 973.5 443.5 c 128,-1,29
 993 511 993 511 1002 579 c 128,-1,30
 1011 647 1011 647 1011 708 c 0,31,32
 1011 775 1011 775 998 835.5 c 128,-1,33
 985 896 985 896 955 942 c 128,-1,34
 925 988 925 988 874.5 1014.5 c 128,-1,35
 824 1041 824 1041 749 1041 c 0,36,37
 672 1041 672 1041 612 1012.5 c 128,-1,38
 552 984 552 984 506 936 c 128,-1,39
 460 888 460 888 428 825.5 c 128,-1,40
 396 763 396 763 376 695.5 c 128,-1,41
 356 628 356 628 347 559.5 c 128,-1,42
 338 491 338 491 338 432 c 0,43,44
 338 365 338 365 350.5 305.5 c 128,-1,45
 363 246 363 246 393.5 201 c 128,-1,46
 424 156 424 156 474.5 130 c 128,-1,47
 525 104 525 104 602 104 c 256,24,25
EndSplineSet
EndChar

StartChar: p
Encoding: 112 112 83
Width: 1161
Flags: W
HStem: -491 21G<97.7961 245.435> -21 125<523.609 820.183> 1041 127<660.823 936.896> 1127 20G<321.204 454>
VStem: 324 130<1044.46 1147> 1022 163<408.908 943.839>
DStem2: 95 -491 268 -468 0.138458 0.990368<46.7317 685.819 759.202 1449.31>
LayerCount: 2
Fore
SplineSet
1185 716 m 0,0,1
 1185 633 1185 633 1171.5 546.5 c 128,-1,2
 1158 460 1158 460 1130.5 378 c 128,-1,3
 1103 296 1103 296 1060.5 223.5 c 128,-1,4
 1018 151 1018 151 959 96.5 c 128,-1,5
 900 42 900 42 824.5 10.5 c 128,-1,6
 749 -21 749 -21 656 -21 c 0,7,8
 608 -21 608 -21 563 -6 c 128,-1,9
 518 9 518 9 479 34.5 c 128,-1,10
 440 60 440 60 408.5 93.5 c 128,-1,11
 377 127 377 127 356 165 c 1,12,-1
 268 -468 l 1,13,-1
 95 -491 l 1,14,-1
 324 1147 l 1,15,-1
 454 1147 l 1,16,-1
 452 948 l 1,17,18
 490 993 490 993 534.5 1033 c 128,-1,19
 579 1073 579 1073 626 1103 c 128,-1,20
 673 1133 673 1133 721.5 1150.5 c 128,-1,21
 770 1168 770 1168 817 1168 c 0,22,23
 896 1168 896 1168 963.5 1144.5 c 128,-1,24
 1031 1121 1031 1121 1080 1067.5 c 128,-1,25
 1129 1014 1129 1014 1157 928 c 128,-1,26
 1185 842 1185 842 1185 716 c 0,0,1
1022 718 m 1,27,28
 1021 760 1021 760 1017.5 796.5 c 128,-1,29
 1014 833 1014 833 1006 864 c 0,30,31
 985 955 985 955 937.5 998 c 128,-1,32
 890 1041 890 1041 818 1041 c 0,33,34
 739 1041 739 1041 644 999.5 c 128,-1,35
 549 958 549 958 455 873 c 1,36,-1
 373 279 l 1,37,38
 394 245 394 245 430 213.5 c 128,-1,39
 466 182 466 182 508 157.5 c 128,-1,40
 550 133 550 133 592.5 118.5 c 128,-1,41
 635 104 635 104 670 104 c 0,42,43
 743 104 743 104 797.5 134 c 128,-1,44
 852 164 852 164 891 213 c 128,-1,45
 930 262 930 262 955.5 326 c 128,-1,46
 981 390 981 390 995.5 458.5 c 128,-1,47
 1010 527 1010 527 1016 594 c 128,-1,48
 1022 661 1022 661 1022 718 c 1,27,28
EndSplineSet
EndChar

StartChar: q
Encoding: 113 113 84
Width: 1136
Flags: W
HStem: -507 21G<780.866 918> -21 125<437.538 703.27> 1041 127<557.677 826.032> 1128 20G<1055.12 1171>
VStem: 205 151<197.477 716.617> 1061 110<1099.21 1148>
DStem2: 778 -507 939 -484 0.140742 0.990046<45.4305 676.842 732.668 1422.33>
LayerCount: 2
Fore
SplineSet
699 1168 m 0,0,1
 760 1168 760 1168 809.5 1145.5 c 128,-1,2
 859 1123 859 1123 897 1090.5 c 128,-1,3
 935 1058 935 1058 962 1021 c 128,-1,4
 989 984 989 984 1004 954 c 1,5,-1
 1061 1148 l 1,6,-1
 1171 1148 l 1,7,-1
 939 -484 l 1,8,-1
 778 -507 l 1,9,-1
 874 163 l 1,10,11
 843 125 843 125 803.5 91.5 c 128,-1,12
 764 58 764 58 720 33 c 128,-1,13
 676 8 676 8 629.5 -6.5 c 128,-1,14
 583 -21 583 -21 539 -21 c 0,15,16
 445 -21 445 -21 381 16 c 128,-1,17
 317 53 317 53 278 114 c 128,-1,18
 239 175 239 175 222 254.5 c 128,-1,19
 205 334 205 334 205 418 c 0,20,21
 205 478 205 478 214.5 550 c 128,-1,22
 224 622 224 622 244 697 c 128,-1,23
 264 772 264 772 295.5 845.5 c 128,-1,24
 327 919 327 919 371 981 c 0,25,26
 400 1022 400 1022 434.5 1056.5 c 128,-1,27
 469 1091 469 1091 510 1115.5 c 128,-1,28
 551 1140 551 1140 598 1154 c 128,-1,29
 645 1168 645 1168 699 1168 c 0,0,1
356 400 m 1,30,31
 357 374 357 374 359.5 348 c 128,-1,32
 362 322 362 322 367 296 c 0,33,34
 374 257 374 257 388 222.5 c 128,-1,35
 402 188 402 188 425 161.5 c 128,-1,36
 448 135 448 135 481 119.5 c 128,-1,37
 514 104 514 104 559 104 c 0,38,39
 610 104 610 104 659.5 121.5 c 128,-1,40
 709 139 709 139 752.5 164.5 c 128,-1,41
 796 190 796 190 831.5 220 c 128,-1,42
 867 250 867 250 890 274 c 1,43,-1
 972 862 l 1,44,45
 954 886 954 886 925 917 c 128,-1,46
 896 948 896 948 858 975.5 c 128,-1,47
 820 1003 820 1003 774.5 1022 c 128,-1,48
 729 1041 729 1041 679 1041 c 0,49,50
 628 1041 628 1041 584 1014.5 c 128,-1,51
 540 988 540 988 504.5 941.5 c 128,-1,52
 469 895 469 895 441 832.5 c 128,-1,53
 413 770 413 770 394.5 699 c 128,-1,54
 376 628 376 628 366 551.5 c 128,-1,55
 356 475 356 475 356 400 c 1,30,31
EndSplineSet
EndChar

StartChar: r
Encoding: 114 114 85
Width: 709
Flags: W
HStem: 0 21G<155 314.82> 1012 155<651.938 843.03> 1127 20G<314.175 436>
VStem: 155 157<0 157> 317 119<1045.5 1147>
DStem2: 155 0 312 0 0.13985 0.990173<21.9565 865.961>
LayerCount: 2
Fore
SplineSet
434 880 m 1,0,1
 467 943 467 943 511 996 c 128,-1,2
 555 1049 555 1049 602 1087 c 128,-1,3
 649 1125 649 1125 696 1146 c 128,-1,4
 743 1167 743 1167 781 1167 c 0,5,6
 794 1167 794 1167 808 1165.5 c 128,-1,7
 822 1164 822 1164 833 1162.5 c 128,-1,8
 844 1161 844 1161 851 1159.5 c 128,-1,9
 858 1158 858 1158 857 1158 c 2,10,-1
 843 1006 l 2,11,12
 844 1006 844 1006 839 1007 c 128,-1,13
 834 1008 834 1008 826 1009 c 128,-1,14
 818 1010 818 1010 808 1011 c 128,-1,15
 798 1012 798 1012 789 1012 c 0,16,17
 735 1012 735 1012 681 987 c 128,-1,18
 627 962 627 962 578 924.5 c 128,-1,19
 529 887 529 887 488 844 c 128,-1,20
 447 801 447 801 420 766 c 1,21,-1
 312 0 l 1,22,-1
 155 0 l 1,23,-1
 317 1147 l 1,24,-1
 436 1147 l 1,25,-1
 434 880 l 1,0,1
EndSplineSet
EndChar

StartChar: s
Encoding: 115 115 86
Width: 916
Flags: W
HStem: -21 125<244.095 629.194> 1041 127<411.071 770.237>
VStem: 209 145<782.778 986.479> 736 157<206.503 448.616>
DStem2: 424 765.5 336.5 619 0.883833 -0.467802<-98.1327 465.789> 877.5 1086 825 970.5 0.865579 -0.500773<-202.861 82.0558>
LayerCount: 2
Fore
SplineSet
209 874 m 0,0,1
 209 947 209 947 239 1002 c 128,-1,2
 269 1057 269 1057 321 1094 c 128,-1,3
 373 1131 373 1131 442.5 1149.5 c 128,-1,4
 512 1168 512 1168 591 1168 c 0,5,6
 645 1168 645 1168 696 1156 c 128,-1,7
 747 1144 747 1144 792.5 1126 c 128,-1,8
 838 1108 838 1108 877.5 1086 c 128,-1,9
 917 1064 917 1064 948 1044 c 1,10,-1
 891 934 l 1,11,12
 861 952 861 952 825 970.5 c 128,-1,13
 789 989 789 989 749.5 1005 c 128,-1,14
 710 1021 710 1021 668.5 1031 c 128,-1,15
 627 1041 627 1041 588 1041 c 0,16,17
 538 1041 538 1041 495.5 1031.5 c 128,-1,18
 453 1022 453 1022 421.5 1003 c 128,-1,19
 390 984 390 984 372 956 c 128,-1,20
 354 928 354 928 354 892 c 0,21,22
 354 860 354 860 361 837.5 c 128,-1,23
 368 815 368 815 383.5 797.5 c 128,-1,24
 399 780 399 780 424 765.5 c 128,-1,25
 449 751 449 751 486 736 c 2,26,-1
 632 676 l 2,27,28
 681 656 681 656 727.5 629.5 c 128,-1,29
 774 603 774 603 811 568 c 128,-1,30
 848 533 848 533 870.5 487.5 c 128,-1,31
 893 442 893 442 893 385 c 0,32,33
 893 287 893 287 856.5 211.5 c 128,-1,34
 820 136 820 136 760.5 84 c 128,-1,35
 701 32 701 32 624.5 5.5 c 128,-1,36
 548 -21 548 -21 468 -21 c 0,37,38
 401 -21 401 -21 343 -9 c 128,-1,39
 285 3 285 3 238 21.5 c 128,-1,40
 191 40 191 40 156 62 c 128,-1,41
 121 84 121 84 100 104 c 1,42,-1
 154 204 l 1,43,44
 203 164 203 164 278 134 c 128,-1,45
 353 104 353 104 457 104 c 0,46,47
 517 104 517 104 568 120.5 c 128,-1,48
 619 137 619 137 656.5 168.5 c 128,-1,49
 694 200 694 200 715 246.5 c 128,-1,50
 736 293 736 293 736 353 c 0,51,52
 736 378 736 378 728 399 c 128,-1,53
 720 420 720 420 702.5 438 c 128,-1,54
 685 456 685 456 656 473 c 128,-1,55
 627 490 627 490 585 508 c 2,56,-1
 433 571 l 2,57,58
 378 593 378 593 336.5 619 c 128,-1,59
 295 645 295 645 266.5 680.5 c 128,-1,60
 238 716 238 716 223.5 763 c 128,-1,61
 209 810 209 810 209 874 c 0,0,1
EndSplineSet
EndChar

StartChar: t
Encoding: 116 116 87
Width: 749
Flags: W
HStem: -16 130<419.763 617.772> 1073 74<229 375 542 787> 1582 20G<531.818 602.231>
VStem: 219 579
DStem2: 257.5 239 413 212 0.13683 0.990595<-14.7409 842.233 938.388 1332.11> 662.5 186.5 726.5 78 0.816666 0.577111<-187.703 45.9184>
LayerCount: 2
Fore
SplineSet
480 114 m 0,0,1
 515 114 515 114 554 129 c 128,-1,2
 593 144 593 144 625 163 c 0,3,4
 644 174 644 174 662.5 186.5 c 128,-1,5
 681 199 681 199 700 213 c 1,6,-1
 774 112 l 1,7,8
 751 94 751 94 726.5 78 c 128,-1,9
 702 62 702 62 676 48 c 0,10,11
 631 24 631 24 576.5 4 c 128,-1,12
 522 -16 522 -16 465 -16 c 0,13,14
 418 -16 418 -16 380 0.5 c 128,-1,15
 342 17 342 17 314.5 48.5 c 128,-1,16
 287 80 287 80 272 124 c 128,-1,17
 257 168 257 168 257 224 c 0,18,19
 257 230 257 230 257.5 239 c 128,-1,20
 258 248 258 248 262 270 c 0,21,22
 264 284 264 284 266.5 306.5 c 128,-1,23
 269 329 269 329 274 362 c 2,24,-1
 375 1073 l 1,25,-1
 219 1073 l 1,26,-1
 229 1147 l 1,27,-1
 385 1147 l 1,28,-1
 444 1558 l 1,29,-1
 605 1602 l 1,30,-1
 542 1147 l 1,31,-1
 798 1147 l 1,32,-1
 787 1073 l 1,33,-1
 531 1073 l 1,34,-1
 413 212 l 2,35,36
 410 191 410 191 414.5 173 c 128,-1,37
 419 155 419 155 429 142 c 128,-1,38
 439 129 439 129 452 121.5 c 128,-1,39
 465 114 465 114 480 114 c 0,0,1
EndSplineSet
EndChar

StartChar: u
Encoding: 117 117 88
Width: 1156
Flags: W
HStem: -21 125<428.539 712.833> 0 21G<909 1037.79> 1127 20G<1024.19 1195>
VStem: 204 169<160.267 674.009> 909 126<0 102.771> 1027 168<979 1147>
DStem2: 206 322.5 375 349 0.127539 0.991834<25.8592 831.499> 904 270 1035 0 0.138157 0.99041<-49.1157 885.583>
LayerCount: 2
Fore
SplineSet
482 1147 m 1,0,1
 482 1150 482 1150 476.5 1109.5 c 128,-1,2
 471 1069 471 1069 462 1002.5 c 128,-1,3
 453 936 453 936 441.5 852 c 128,-1,4
 430 768 430 768 419 684 c 128,-1,5
 408 600 408 600 398 524.5 c 128,-1,6
 388 449 388 449 381 399 c 0,7,8
 377 368 377 368 375 349 c 128,-1,9
 373 330 373 330 373 327 c 0,10,11
 373 248 373 248 395 197 c 1,12,13
 417 149 417 149 456 126.5 c 128,-1,14
 495 104 495 104 552 104 c 0,15,16
 643 104 643 104 728 146.5 c 128,-1,17
 813 189 813 189 904 270 c 1,18,-1
 1027 1147 l 1,19,-1
 1195 1147 l 1,20,-1
 1035 0 l 1,21,-1
 909 0 l 1,22,23
 910 45 910 45 909.5 87.5 c 128,-1,24
 909 130 909 130 910 175 c 1,25,26
 813 75 813 75 719.5 27 c 128,-1,27
 626 -21 626 -21 532 -21 c 0,28,29
 370 -21 370 -21 287 57.5 c 128,-1,30
 204 136 204 136 204 298 c 0,31,32
 204 302 204 302 206 322.5 c 128,-1,33
 208 343 208 343 212 375.5 c 128,-1,34
 216 408 216 408 221 450.5 c 128,-1,35
 226 493 226 493 232 541 c 0,36,37
 240 604 240 604 249 674 c 128,-1,38
 258 744 258 744 267 812.5 c 128,-1,39
 276 881 276 881 284.5 942.5 c 128,-1,40
 293 1004 293 1004 299 1050.5 c 128,-1,41
 305 1097 305 1097 309 1123.5 c 128,-1,42
 313 1150 313 1150 313 1147 c 1,43,-1
 482 1147 l 1,0,1
EndSplineSet
EndChar

StartChar: v
Encoding: 118 118 89
Width: 945
Flags: W
HStem: 0 21G<393.6 588.945> 1127 20G<202 355.982 919.849 1093>
VStem: 202 151<996 1147>
DStem2: 353 1147 202 1147 0.167604 -0.985854<0 1044.2>
LayerCount: 2
Fore
SplineSet
580 0 m 1,0,-1
 397 0 l 1,1,-1
 202 1147 l 1,2,-1
 353 1147 l 1,3,-1
 507 114 l 1,4,-1
 928 1147 l 1,5,-1
 1093 1147 l 1,6,-1
 580 0 l 1,0,-1
EndSplineSet
EndChar

StartChar: w
Encoding: 119 119 90
Width: 1418
Flags: W
HStem: 0 21G<320.888 511.128 920.987 1114.03> 1126 20G<202 350.678 785.034 962.424 1399.72 1566>
VStem: 202 147<999 1146>
DStem2: 349 1146 202 1146 0.105001 -0.994472<0 1028.36> 435 121 504 0 0.335697 0.94197<0 999.453>
LayerCount: 2
Fore
SplineSet
922 0 m 1,0,-1
 870 1027 l 1,1,-1
 504 0 l 1,2,-1
 323 0 l 1,3,-1
 202 1146 l 1,4,-1
 349 1146 l 1,5,-1
 435 121 l 1,6,-1
 792 1146 l 1,7,-1
 961 1146 l 1,8,-1
 1034 121 l 1,9,-1
 1407 1146 l 1,10,-1
 1566 1146 l 1,11,-1
 1106 0 l 1,12,-1
 922 0 l 1,0,-1
EndSplineSet
EndChar

StartChar: x
Encoding: 120 120 91
Width: 1003
Flags: W
HStem: 0 21G<71 271.473 778.152 965> 1127 20G<249 448.086 956.247 1156>
VStem: 971 185<962 1147>
DStem2: 628 682 692 572 0.632557 0.774514<0 539.488>
LayerCount: 2
Fore
SplineSet
600 474 m 1,0,-1
 257 0 l 1,1,-1
 71 0 l 1,2,-1
 536 572 l 1,3,-1
 249 1147 l 1,4,-1
 440 1147 l 1,5,-1
 628 682 l 1,6,-1
 971 1147 l 1,7,-1
 1156 1147 l 1,8,-1
 692 572 l 1,9,-1
 965 0 l 1,10,-1
 786 0 l 1,11,-1
 600 474 l 1,0,-1
EndSplineSet
EndChar

StartChar: y
Encoding: 121 121 92
Width: 1018
Flags: W
HStem: -458 119<102.988 225.074> 1127 20G<214 380.978 973.732 1157>
VStem: 214 163<984 1147>
DStem2: 377 1147 214 1147 0.222537 -0.974924<0 932.557> 404 -82 537 -101.5 0.444773 0.895643<-233.96 139.531 350.172 1304.68>
LayerCount: 2
Fore
SplineSet
81 -339 m 1,0,1
 156 -329 156 -329 207 -304 c 1,2,3
 246 -286 246 -286 279.5 -255.5 c 128,-1,4
 313 -225 313 -225 343.5 -181.5 c 128,-1,5
 374 -138 374 -138 404 -82 c 128,-1,6
 434 -26 434 -26 466 43 c 1,7,-1
 432 190 l 1,8,-1
 214 1147 l 1,9,-1
 377 1147 l 1,10,-1
 559 232 l 1,11,-1
 983 1147 l 1,12,-1
 1157 1147 l 1,13,-1
 631 95 l 2,14,15
 609 51 609 51 586 0.5 c 128,-1,16
 563 -50 563 -50 537 -101.5 c 128,-1,17
 511 -153 511 -153 481 -203 c 128,-1,18
 451 -253 451 -253 415.5 -296.5 c 128,-1,19
 380 -340 380 -340 337.5 -374.5 c 128,-1,20
 295 -409 295 -409 244 -430 c 1,21,22
 185 -453 185 -453 106 -458 c 1,23,-1
 81 -339 l 1,0,1
EndSplineSet
EndChar

StartChar: z
Encoding: 122 122 93
Width: 833
Flags: W
HStem: 0 126<240 774> 1022 125<278 773>
DStem2: 110 160 240 126 0.61616 0.787621<53.3217 1087.44>
LayerCount: 2
Fore
SplineSet
773 1022 m 1,0,-1
 260 1022 l 1,1,-1
 278 1147 l 1,2,-1
 933 1147 l 1,3,-1
 912 985 l 1,4,-1
 240 126 l 1,5,-1
 774 126 l 1,6,-1
 776 0 l 1,7,-1
 90 0 l 1,8,-1
 110 160 l 1,9,-1
 773 1022 l 1,0,-1
EndSplineSet
EndChar

StartChar: braceleft
Encoding: 123 123 94
Width: 918
Flags: W
HStem: -217 160<482.302 603.672> 1328.5 167.5<647.659 821>
VStem: 285 153<-14.2166 384.126> 302 153<-31.9666 151.627 155.75 160.657 163.874 529.857>
LayerCount: 2
Fore
SplineSet
546 1002 m 0,0,1
 526 855 526 855 472 765.5 c 128,-1,2
 418 676 418 676 327 644 c 1,3,4
 352 632 352 632 375 611 c 128,-1,5
 398 590 398 590 416 558.5 c 128,-1,6
 434 527 434 527 444.5 485 c 128,-1,7
 455 443 455 443 455 390 c 0,8,9
 455 332 455 332 446.5 277 c 128,-1,10
 438 222 438 222 438 162 c 0,11,12
 438 119 438 119 445 79 c 128,-1,13
 452 39 452 39 468 8.5 c 128,-1,14
 484 -22 484 -22 510 -40 c 128,-1,15
 536 -58 536 -58 575 -57 c 1,16,17
 581 -55 581 -55 590.5 -52.5 c 128,-1,18
 600 -50 600 -50 609 -47.5 c 128,-1,19
 618 -45 618 -45 624 -43.5 c 128,-1,20
 630 -42 630 -42 629 -42 c 2,21,-1
 604 -210 l 1,22,23
 594 -212 594 -212 583 -214 c 0,24,25
 574 -216 574 -216 564.5 -216.5 c 128,-1,26
 555 -217 555 -217 548 -217 c 0,27,28
 488 -217 488 -217 439 -187.5 c 128,-1,29
 390 -158 390 -158 356 -107.5 c 128,-1,30
 322 -57 322 -57 303.5 10.5 c 128,-1,31
 285 78 285 78 285 154 c 0,32,33
 285 210 285 210 293.5 265 c 128,-1,34
 302 320 302 320 302 382 c 0,35,36
 302 411 302 411 298.5 434.5 c 128,-1,37
 295 458 295 458 290 477 c 1,38,39
 266 549 266 549 203 549 c 1,40,-1
 230 738 l 1,41,42
 296 738 296 738 338 810 c 128,-1,43
 380 882 380 882 400 1026 c 0,44,45
 420 1173 420 1173 463.5 1264.5 c 128,-1,46
 507 1356 507 1356 566.5 1408 c 128,-1,47
 626 1460 626 1460 697.5 1478.5 c 128,-1,48
 769 1497 769 1497 844 1496 c 1,49,-1
 821 1330 l 1,50,51
 789 1330 789 1330 759 1328.5 c 128,-1,52
 729 1327 729 1327 702.5 1317.5 c 128,-1,53
 676 1308 676 1308 652 1288 c 128,-1,54
 628 1268 628 1268 608.5 1231.5 c 128,-1,55
 589 1195 589 1195 573 1139 c 128,-1,56
 557 1083 557 1083 546 1002 c 0,0,1
EndSplineSet
EndChar

StartChar: bar
Encoding: 124 124 95
Width: 535
Flags: W
VStem: 208 159<-109 50> 475 160<1535 1695>
DStem2: 208 -109 367 -109 0.146946 0.989145<23.3644 1823.65>
LayerCount: 2
Fore
SplineSet
208 -109 m 1,0,-1
 475 1695 l 1,1,-1
 635 1695 l 1,2,-1
 367 -109 l 1,3,-1
 208 -109 l 1,0,-1
EndSplineSet
EndChar

StartChar: braceright
Encoding: 125 125 96
Width: 907
Flags: W
HStem: -210 168<148 306.438> 1330 167<389 506.63>
VStem: 513 143<752.016 1166.97> 537 144<885.501 1299.93>
DStem2: 411 286 547 262 0.150491 0.988611<-270.864 245.719 636.898 874.945>
LayerCount: 2
Fore
SplineSet
513 877 m 0,0,1
 513 911 513 911 516.5 944.5 c 128,-1,2
 520 978 520 978 524.5 1012 c 128,-1,3
 529 1046 529 1046 533 1081 c 128,-1,4
 537 1116 537 1116 537 1153 c 0,5,6
 537 1211 537 1211 526.5 1245.5 c 128,-1,7
 516 1280 516 1280 494.5 1299 c 128,-1,8
 473 1318 473 1318 440 1324 c 128,-1,9
 407 1330 407 1330 362 1330 c 1,10,-1
 389 1497 l 1,11,12
 446 1497 446 1497 498.5 1485 c 128,-1,13
 551 1473 551 1473 591.5 1439 c 128,-1,14
 632 1405 632 1405 656.5 1343.5 c 128,-1,15
 681 1282 681 1282 681 1183 c 0,16,17
 681 1154 681 1154 677 1116 c 128,-1,18
 673 1078 673 1078 668.5 1038 c 128,-1,19
 664 998 664 998 660 960 c 128,-1,20
 656 922 656 922 656 892 c 0,21,22
 656 738 656 738 743 738 c 1,23,-1
 713 549 l 1,24,25
 592 549 592 549 547 262 c 0,26,27
 531 161 531 161 505.5 87 c 128,-1,28
 480 13 480 13 447.5 -39.5 c 128,-1,29
 415 -92 415 -92 376.5 -125 c 128,-1,30
 338 -158 338 -158 296.5 -177 c 128,-1,31
 255 -196 255 -196 211 -203 c 128,-1,32
 167 -210 167 -210 123 -210 c 1,33,-1
 148 -42 l 1,34,35
 181 -42 181 -42 210 -39 c 128,-1,36
 239 -36 239 -36 264 -25.5 c 128,-1,37
 289 -15 289 -15 310.5 6.5 c 128,-1,38
 332 28 332 28 350.5 64.5 c 128,-1,39
 369 101 369 101 384 155 c 128,-1,40
 399 209 399 209 411 286 c 0,41,42
 424 371 424 371 448 433 c 128,-1,43
 472 495 472 495 501.5 538 c 128,-1,44
 531 581 531 581 563.5 606.5 c 128,-1,45
 596 632 596 632 625 644 c 1,46,47
 513 693 513 693 513 877 c 0,0,1
EndSplineSet
EndChar

StartChar: asciitilde
Encoding: 126 126 97
Width: 685
Flags: W
HStem: 123 137<468.42 630.62> 241 142<217.699 371.533>
VStem: 55 143<127 211.602> 647 143<268.065 370>
DStem2: 364.5 364 322 222.5 0.883788 -0.467888<-24.6087 235.552>
LayerCount: 2
Fore
SplineSet
575 123 m 0,0,1
 533 123 533 123 487 141.5 c 128,-1,2
 441 160 441 160 398.5 182 c 128,-1,3
 356 204 356 204 322 222.5 c 128,-1,4
 288 241 288 241 271 241 c 0,5,6
 236 241 236 241 220.5 212.5 c 128,-1,7
 205 184 205 184 198 127 c 1,8,-1
 55 127 l 1,9,10
 72 259 72 259 127.5 321 c 128,-1,11
 183 383 183 383 277 383 c 0,12,13
 324 383 324 383 364.5 364 c 128,-1,14
 405 345 405 345 441.5 321.5 c 128,-1,15
 478 298 478 298 511 279 c 128,-1,16
 544 260 544 260 577 260 c 256,17,18
 610 260 610 260 625 289.5 c 128,-1,19
 640 319 640 319 647 370 c 1,20,-1
 790 370 l 1,21,22
 773 242 773 242 721 182.5 c 128,-1,23
 669 123 669 123 575 123 c 0,0,1
EndSplineSet
EndChar

StartChar: exclamdown
Encoding: 161 161 98
Width: 774
Flags: W
HStem: 1286 294<401 641.816>
VStem: 214 461
LayerCount: 2
Fore
SplineSet
675 1580 m 1,0,1
 670 1554 670 1554 666 1530 c 128,-1,2
 662 1506 662 1506 658 1481 c 0,3,4
 650 1433 650 1433 646 1385 c 128,-1,5
 642 1337 642 1337 639 1286 c 1,6,7
 572 1286 572 1286 505 1284 c 128,-1,8
 438 1282 438 1282 369 1279 c 1,9,10
 379 1354 379 1354 386 1426.5 c 128,-1,11
 393 1499 393 1499 401 1577 c 1,12,13
 537 1577 537 1577 675 1580 c 1,0,1
214 2 m 1,14,-1
 452 1180 l 1,15,-1
 547 1180 l 1,16,-1
 424 2 l 1,17,-1
 214 2 l 1,14,-1
EndSplineSet
EndChar

StartChar: cent
Encoding: 162 162 99
Width: 1108
Flags: W
HStem: -20 136<473.068 599 717 887.531> 1050 137<573.429 744.029 867 1042.25>
VStem: 198 161<231.156 734.231> 584 97<-134 -37> 783 99<1195 1294>
DStem2: 584 -134 681 -133 0.139382 0.990239<14.5103 114.978 267.088 1197.71 1347.55 1441.8> 867 147 813 3 0.964458 0.264235<-150.298 23.7151>
LayerCount: 2
Fore
SplineSet
198 440 m 0,0,1
 198 565 198 565 226.5 686 c 128,-1,2
 255 807 255 807 312.5 907.5 c 128,-1,3
 370 1008 370 1008 458 1080 c 128,-1,4
 546 1152 546 1152 665 1179 c 0,5,6
 690 1184 690 1184 715.5 1187.5 c 128,-1,7
 741 1191 741 1191 768 1192 c 1,8,-1
 783 1294 l 1,9,-1
 882 1295 l 1,10,-1
 867 1187 l 1,11,12
 928 1181 928 1181 983 1163.5 c 128,-1,13
 1038 1146 1038 1146 1080 1126 c 1,14,-1
 1085 986 l 2,15,16
 1084 986 1084 986 1068 994 c 128,-1,17
 1052 1002 1052 1002 1021.5 1013 c 128,-1,18
 991 1024 991 1024 947 1034.5 c 128,-1,19
 903 1045 903 1045 846 1050 c 1,20,-1
 717 117 l 1,21,22
 791 125 791 125 867 147 c 1,23,-1
 940 167 l 1,24,-1
 922 36 l 1,25,26
 871 19 871 19 813 3 c 128,-1,27
 755 -13 755 -13 698 -18 c 1,28,-1
 681 -133 l 1,29,-1
 584 -134 l 1,30,-1
 599 -20 l 1,31,32
 506 -19 506 -19 431.5 12.5 c 128,-1,33
 357 44 357 44 305 102.5 c 128,-1,34
 253 161 253 161 225.5 246 c 128,-1,35
 198 331 198 331 198 440 c 0,0,1
744 1053 m 2,36,37
 745 1053 745 1053 735.5 1054.5 c 128,-1,38
 726 1056 726 1056 720 1056 c 0,39,40
 662 1057 662 1057 612.5 1031.5 c 128,-1,41
 563 1006 563 1006 523 961 c 128,-1,42
 483 916 483 916 452.5 855.5 c 128,-1,43
 422 795 422 795 401 725.5 c 128,-1,44
 380 656 380 656 369.5 581.5 c 128,-1,45
 359 507 359 507 359 434 c 0,46,47
 359 277 359 277 425.5 200.5 c 128,-1,48
 492 124 492 124 620 116 c 1,49,-1
 744 1053 l 2,36,37
EndSplineSet
EndChar

StartChar: sterling
Encoding: 163 163 100
Width: 1140
Flags: W
HStem: 0 129<293 867> 576 111<173 337 478.15 884> 1185 136<522.969 877.767>
VStem: 265 145<732.62 1072.53> 343 142<392.498 576>
LayerCount: 2
Fore
SplineSet
699 1185 m 0,0,1
 617 1185 617 1185 561.5 1160.5 c 128,-1,2
 506 1136 506 1136 472.5 1096.5 c 128,-1,3
 439 1057 439 1057 424.5 1007.5 c 128,-1,4
 410 958 410 958 410 909 c 0,5,6
 410 834 410 834 433.5 777.5 c 128,-1,7
 457 721 457 721 484 687 c 1,8,-1
 900 687 l 1,9,-1
 884 576 l 1,10,-1
 485 576 l 1,11,12
 468 461 468 461 437.5 378.5 c 128,-1,13
 407 296 407 296 376.5 242 c 128,-1,14
 346 188 346 188 321.5 160.5 c 128,-1,15
 297 133 297 133 293 129 c 1,16,-1
 885 129 l 1,17,-1
 867 0 l 1,18,-1
 126 0 l 1,19,-1
 141 134 l 1,20,21
 151 142 151 142 178 170.5 c 128,-1,22
 205 199 205 199 236 254 c 1,23,24
 268 308 268 308 297 387.5 c 128,-1,25
 326 467 326 467 343 576 c 1,26,-1
 157 576 l 1,27,-1
 173 686 l 1,28,-1
 337 686 l 1,29,30
 300 735 300 735 282.5 796 c 128,-1,31
 265 857 265 857 265 911 c 0,32,33
 265 992 265 992 300.5 1066 c 128,-1,34
 336 1140 336 1140 394.5 1197 c 128,-1,35
 453 1254 453 1254 527.5 1287.5 c 128,-1,36
 602 1321 602 1321 680 1321 c 0,37,38
 759 1321 759 1321 822 1307 c 128,-1,39
 885 1293 885 1293 933 1272.5 c 128,-1,40
 981 1252 981 1252 1014.5 1229 c 128,-1,41
 1048 1206 1048 1206 1068 1188 c 1,42,-1
 1007 1061 l 1,43,44
 984 1079 984 1079 950 1101 c 128,-1,45
 916 1123 916 1123 875.5 1141.5 c 128,-1,46
 835 1160 835 1160 790 1172.5 c 128,-1,47
 745 1185 745 1185 699 1185 c 0,0,1
EndSplineSet
EndChar

StartChar: currency
Encoding: 164 164 101
Width: 1309
Flags: W
HStem: 558 139<557.411 833.503> 1266 141<642.909 913.021>
VStem: 336 131<789.923 1086.08> 1005 133<877.635 1171.71>
DStem2: 171 555 268 431 0.731313 0.682042<0 272.533 1139.59 1407.1> 424 1523 291 1400 0.618645 -0.785671<14.3577 249.515 985.034 1231.94>
LayerCount: 2
Fore
SplineSet
1005 1031 m 0,0,1
 1005 1081 1005 1081 987 1124 c 128,-1,2
 969 1167 969 1167 939 1198.5 c 128,-1,3
 909 1230 909 1230 869 1248 c 128,-1,4
 829 1266 829 1266 785 1266 c 0,5,6
 728 1266 728 1266 671.5 1238 c 128,-1,7
 615 1210 615 1210 569.5 1163.5 c 128,-1,8
 524 1117 524 1117 495.5 1057.5 c 128,-1,9
 467 998 467 998 467 934 c 0,10,11
 467 881 467 881 485 837.5 c 128,-1,12
 503 794 503 794 534 762.5 c 128,-1,13
 565 731 565 731 606 714 c 128,-1,14
 647 697 647 697 694 697 c 0,15,16
 751 697 751 697 806.5 726 c 128,-1,17
 862 755 862 755 906 802.5 c 128,-1,18
 950 850 950 850 977.5 909.5 c 128,-1,19
 1005 969 1005 969 1005 1031 c 0,0,1
1107 1213 m 1,20,21
 1138 1155 1138 1155 1138 1063 c 0,22,23
 1137 894 1137 894 1028 757 c 1,24,-1
 1186 555 l 1,25,-1
 1054 431 l 1,26,-1
 894 633 l 1,27,28
 781 558 781 558 661 558 c 0,29,30
 549 558 549 558 470 619 c 1,31,-1
 268 431 l 1,32,-1
 171 555 l 1,33,-1
 370 742 l 1,34,35
 336 819 336 819 336 904 c 0,36,37
 336 1066 336 1066 443 1206 c 1,38,-1
 291 1400 l 1,39,-1
 424 1523 l 1,40,-1
 576 1331 l 1,41,42
 688 1407 688 1407 812 1407 c 0,43,44
 925 1407 925 1407 1011 1339 c 1,45,-1
 1209 1523 l 1,46,-1
 1307 1400 l 1,47,-1
 1107 1213 l 1,20,21
EndSplineSet
EndChar

StartChar: yen
Encoding: 165 165 102
Width: 1139
Flags: W
HStem: 0 21G<425 597.841> 352 132<215 475 663 918> 614 131<251 513 717 955> 1557 20G<213 372.143 1088.9 1254>
VStem: 425 170<0 170> 1102 152<1425 1577>
DStem2: 365 1577 213 1577 0.3392 -0.940714<0 773.032> 425 0 595 0 0.146607 0.989195<24.9232 355.527 513.663 620.707> 625 849 717 745 0.542288 0.840193<0 870.332>
LayerCount: 2
Fore
SplineSet
625 849 m 1,0,-1
 1102 1577 l 1,1,-1
 1254 1577 l 1,2,-1
 717 745 l 1,3,-1
 974 745 l 1,4,-1
 955 614 l 1,5,-1
 678 614 l 1,6,-1
 663 484 l 1,7,-1
 937 484 l 1,8,-1
 918 352 l 1,9,-1
 645 352 l 1,10,-1
 595 0 l 1,11,-1
 425 0 l 1,12,-1
 475 352 l 1,13,-1
 196 352 l 1,14,-1
 215 484 l 1,15,-1
 495 484 l 1,16,-1
 516 614 l 1,17,-1
 233 614 l 1,18,-1
 251 745 l 1,19,-1
 513 745 l 1,20,-1
 213 1577 l 1,21,-1
 365 1577 l 1,22,-1
 625 849 l 1,0,-1
EndSplineSet
EndChar

StartChar: brokenbar
Encoding: 166 166 103
Width: 539
Flags: W
VStem: 157 170<7 177> 255 168<525 693> 281 170<885 1055> 375 174<1394 1568>
DStem2: 157 7 327 7 0.1408 0.990038<23.936 692.965 910.649 1576.14>
LayerCount: 2
Fore
SplineSet
157 7 m 1,0,-1
 255 693 l 1,1,-1
 423 693 l 1,2,-1
 327 7 l 1,3,-1
 157 7 l 1,0,-1
281 885 m 1,4,-1
 375 1568 l 1,5,-1
 549 1568 l 1,6,-1
 451 885 l 1,7,-1
 281 885 l 1,4,-1
EndSplineSet
EndChar

StartChar: section
Encoding: 167 167 104
Width: 1047
Flags: W
HStem: -99 142<259.281 615.541> 1424 140<473.472 822.381>
VStem: 195 139<630.47 844.857> 268 142<1176.49 1363.21> 701 153<122.359 346.806> 783 145<658.88 869.447>
LayerCount: 2
Fore
SplineSet
268 1223 m 0,0,1
 268 1295 268 1295 295.5 1357 c 128,-1,2
 323 1419 323 1419 374 1465 c 128,-1,3
 425 1511 425 1511 497.5 1537.5 c 128,-1,4
 570 1564 570 1564 661 1564 c 0,5,6
 706 1564 706 1564 755 1552.5 c 128,-1,7
 804 1541 804 1541 848 1523.5 c 128,-1,8
 892 1506 892 1506 926.5 1486 c 128,-1,9
 961 1466 961 1466 978 1449 c 1,10,-1
 907 1316 l 1,11,12
 794 1424 794 1424 651 1424 c 0,13,14
 577 1424 577 1424 530.5 1407.5 c 128,-1,15
 484 1391 484 1391 457 1366 c 128,-1,16
 430 1341 430 1341 420 1310.5 c 128,-1,17
 410 1280 410 1280 410 1252 c 0,18,19
 410 1216 410 1216 438 1189.5 c 128,-1,20
 466 1163 466 1163 539 1134 c 2,21,-1
 675 1078 l 2,22,23
 748 1048 748 1048 796.5 1017.5 c 128,-1,24
 845 987 845 987 874.5 954.5 c 128,-1,25
 904 922 904 922 916 885.5 c 128,-1,26
 928 849 928 849 928 807 c 0,27,28
 928 721 928 721 898.5 666 c 128,-1,29
 869 611 869 611 826.5 579.5 c 128,-1,30
 784 548 784 548 737.5 535 c 128,-1,31
 691 522 691 522 657 519 c 1,32,33
 855 441 855 441 854 273 c 0,34,35
 854 199 854 199 830 137.5 c 128,-1,36
 806 76 806 76 762.5 29.5 c 128,-1,37
 719 -17 719 -17 657.5 -48 c 128,-1,38
 596 -79 596 -79 521 -91 c 0,39,40
 498 -94 498 -94 474.5 -96 c 128,-1,41
 451 -98 451 -98 426 -99 c 1,42,43
 395 -99 395 -99 360 -93 c 128,-1,44
 325 -87 325 -87 289.5 -77.5 c 128,-1,45
 254 -68 254 -68 221 -54.5 c 128,-1,46
 188 -41 188 -41 161 -26 c 0,47,48
 142 -16 142 -16 127 -5.5 c 128,-1,49
 112 5 112 5 103 16 c 1,50,-1
 176 150 l 1,51,52
 189 136 189 136 203.5 124 c 128,-1,53
 218 112 218 112 235 102 c 0,54,55
 283 71 283 71 335.5 57 c 128,-1,56
 388 43 388 43 430 43 c 0,57,58
 514 43 514 43 567 63.5 c 128,-1,59
 620 84 620 84 650 114.5 c 128,-1,60
 680 145 680 145 690.5 181 c 128,-1,61
 701 217 701 217 701 248 c 0,62,63
 701 278 701 278 692 301 c 128,-1,64
 683 324 683 324 664.5 342 c 128,-1,65
 646 360 646 360 618.5 374.5 c 128,-1,66
 591 389 591 389 555 403 c 2,67,-1
 415 456 l 2,68,69
 352 480 352 480 309.5 505.5 c 128,-1,70
 267 531 267 531 241.5 560 c 128,-1,71
 216 589 216 589 205.5 623 c 128,-1,72
 195 657 195 657 195 699 c 0,73,74
 195 760 195 760 210 805 c 128,-1,75
 225 850 225 850 249.5 882 c 128,-1,76
 274 914 274 914 304.5 934 c 128,-1,77
 335 954 335 954 365.5 965.5 c 128,-1,78
 396 977 396 977 424 982.5 c 128,-1,79
 452 988 452 988 471 990 c 1,80,81
 413 1016 413 1016 374 1042.5 c 128,-1,82
 335 1069 335 1069 311.5 1097 c 128,-1,83
 288 1125 288 1125 278 1156 c 128,-1,84
 268 1187 268 1187 268 1223 c 0,0,1
579 905 m 0,85,86
 334 905 334 905 334 723 c 0,87,88
 334 594 334 594 535 594 c 0,89,90
 612 594 612 594 660.5 611.5 c 128,-1,91
 709 629 709 629 736 656 c 128,-1,92
 763 683 763 683 773 715 c 128,-1,93
 783 747 783 747 783 776 c 0,94,95
 783 821 783 821 762 847 c 128,-1,96
 741 873 741 873 709.5 885.5 c 128,-1,97
 678 898 678 898 642.5 901.5 c 128,-1,98
 607 905 607 905 579 905 c 0,85,86
EndSplineSet
EndChar

StartChar: dieresis
Encoding: 168 168 105
Width: 931
Flags: W
HStem: 122 250<200.883 344.851 607.87 752> 266 0<791 791> 268 2<385 387>
VStem: 160 226<163.111 330.893> 565 227<161.111 268>
LayerCount: 2
Fore
SplineSet
386 270 m 2,0,1
 386 241 386 241 375 214.5 c 128,-1,2
 364 188 364 188 345.5 167.5 c 128,-1,3
 327 147 327 147 304 134.5 c 128,-1,4
 281 122 281 122 257 122 c 0,5,6
 212 122 212 122 185.5 152 c 128,-1,7
 159 182 159 182 160 227 c 0,8,9
 160 254 160 254 171 280.5 c 128,-1,10
 182 307 182 307 200.5 327 c 128,-1,11
 219 347 219 347 243 359.5 c 128,-1,12
 267 372 267 372 293 372 c 0,13,14
 335 372 335 372 360.5 342.5 c 128,-1,15
 386 313 386 313 386 268 c 2,16,-1
 386 270 l 2,0,1
792 268 m 1,17,18
 792 239 792 239 781 212.5 c 128,-1,19
 770 186 770 186 751.5 165.5 c 128,-1,20
 733 145 733 145 710 132.5 c 128,-1,21
 687 120 687 120 663 120 c 0,22,23
 618 120 618 120 591.5 150 c 128,-1,24
 565 180 565 180 565 225 c 0,25,26
 565 252 565 252 576 278.5 c 128,-1,27
 587 305 587 305 605.5 325 c 128,-1,28
 624 345 624 345 648 357.5 c 128,-1,29
 672 370 672 370 698 370 c 0,30,31
 740 370 740 370 766 340.5 c 128,-1,32
 792 311 792 311 791 266 c 1,33,34
 791 267 791 267 791.5 267 c 128,-1,35
 792 267 792 267 792 268 c 1,17,18
EndSplineSet
EndChar

StartChar: copyright
Encoding: 169 169 106
Width: 1853
Flags: W
HStem: -15 112<612.084 1077.72> 280 115<736.196 1078.8> 1194 113<843.888 1231.85> 1491 115<802.103 1268.08>
VStem: 158 126<433.173 942.707> 513 132<487.851 948.895> 1592 128<638.583 1149.55>
LayerCount: 2
Fore
SplineSet
843 97 m 0,0,1
 939 97 939 97 1032 125.5 c 128,-1,2
 1125 154 1125 154 1208 205.5 c 128,-1,3
 1291 257 1291 257 1361.5 330.5 c 128,-1,4
 1432 404 1432 404 1483 493.5 c 128,-1,5
 1534 583 1534 583 1563 686.5 c 128,-1,6
 1592 790 1592 790 1592 903 c 0,7,8
 1592 1020 1592 1020 1556 1126.5 c 128,-1,9
 1520 1233 1520 1233 1449.5 1314 c 128,-1,10
 1379 1395 1379 1395 1276 1443 c 128,-1,11
 1173 1491 1173 1491 1040 1491 c 0,12,13
 940 1491 940 1491 845.5 1461.5 c 128,-1,14
 751 1432 751 1432 667 1379 c 128,-1,15
 583 1326 583 1326 512.5 1251.5 c 128,-1,16
 442 1177 442 1177 391.5 1086.5 c 128,-1,17
 341 996 341 996 312.5 892 c 128,-1,18
 284 788 284 788 284 677 c 0,19,20
 284 550 284 550 324.5 443.5 c 128,-1,21
 365 337 365 337 438.5 260 c 128,-1,22
 512 183 512 183 615 140 c 128,-1,23
 718 97 718 97 843 97 c 0,0,1
1054 1606 m 0,24,25
 1207 1606 1207 1606 1330 1551.5 c 128,-1,26
 1453 1497 1453 1497 1540 1402.5 c 128,-1,27
 1627 1308 1627 1308 1673.5 1181.5 c 128,-1,28
 1720 1055 1720 1055 1720 912 c 0,29,30
 1720 820 1720 820 1700.5 731 c 128,-1,31
 1681 642 1681 642 1646 560 c 128,-1,32
 1611 478 1611 478 1562 404 c 128,-1,33
 1513 330 1513 330 1453 268 c 0,34,35
 1391 203 1391 203 1319 150.5 c 128,-1,36
 1247 98 1247 98 1167 61 c 128,-1,37
 1087 24 1087 24 1000.5 4.5 c 128,-1,38
 914 -15 914 -15 823 -15 c 0,39,40
 680 -15 680 -15 558 34.5 c 128,-1,41
 436 84 436 84 347 174 c 128,-1,42
 258 264 258 264 208 389 c 128,-1,43
 158 514 158 514 158 666 c 0,44,45
 158 789 158 789 191 906 c 128,-1,46
 224 1023 224 1023 283.5 1127.5 c 128,-1,47
 343 1232 343 1232 425.5 1320 c 128,-1,48
 508 1408 508 1408 607.5 1471.5 c 128,-1,49
 707 1535 707 1535 820 1570.5 c 128,-1,50
 933 1606 933 1606 1054 1606 c 0,24,25
645 670 m 1,51,52
 646 622 646 622 653 583.5 c 128,-1,53
 660 545 660 545 675 513 c 0,54,55
 733 395 733 395 899 395 c 0,56,57
 960 395 960 395 1024 412 c 128,-1,58
 1088 429 1088 429 1160 462 c 1,59,-1
 1136 351 l 1,60,61
 1063 314 1063 314 999 297 c 128,-1,62
 935 280 935 280 877 280 c 0,63,64
 778 280 778 280 708.5 312 c 128,-1,65
 639 344 639 344 595.5 399 c 128,-1,66
 552 454 552 454 532.5 526.5 c 128,-1,67
 513 599 513 599 513 680 c 0,68,69
 513 813 513 813 549.5 928 c 128,-1,70
 586 1043 586 1043 653 1127 c 128,-1,71
 720 1211 720 1211 814 1259 c 128,-1,72
 908 1307 908 1307 1023 1307 c 0,73,74
 1068 1307 1068 1307 1114 1298.5 c 128,-1,75
 1160 1290 1160 1290 1205 1273 c 0,76,77
 1221 1267 1221 1267 1235.5 1260.5 c 128,-1,78
 1250 1254 1250 1254 1264 1246 c 1,79,-1
 1257 1139 l 2,80,81
 1258 1140 1258 1140 1239.5 1148.5 c 128,-1,82
 1221 1157 1221 1157 1188 1167 c 128,-1,83
 1155 1177 1155 1177 1109.5 1185.5 c 128,-1,84
 1064 1194 1064 1194 1010 1194 c 0,85,86
 968 1194 968 1194 931 1185 c 0,87,88
 857 1168 857 1168 803 1121 c 128,-1,89
 749 1074 749 1074 714 1005 c 128,-1,90
 679 936 679 936 662 850 c 128,-1,91
 645 764 645 764 645 670 c 1,51,52
EndSplineSet
EndChar

StartChar: ordfeminine
Encoding: 170 170 107
Width: 1090
Flags: W
HStem: 396 129<238 856> 668 113<421.955 663.141> 1158 100<476.516 822.502> 1513 125<498.447 830.877>
VStem: 238 152<813.178 1075.36> 797 108<686 790.39> 851 142<1220.12 1490.32>
DStem2: 791 903 940.5 944.5 0.143536 0.989645<-49.1649 240.684 318.054 479.958>
LayerCount: 2
Fore
SplineSet
797 828 m 1,0,1
 667 668 667 668 496 668 c 0,2,3
 367 668 367 668 302.5 727 c 128,-1,4
 238 786 238 786 238 901 c 0,5,6
 238 980 238 980 265 1045.5 c 128,-1,7
 292 1111 292 1111 341.5 1158.5 c 128,-1,8
 391 1206 391 1206 461 1232 c 128,-1,9
 531 1258 531 1258 618 1258 c 0,10,11
 643 1258 643 1258 673.5 1254.5 c 128,-1,12
 704 1251 704 1251 734 1245 c 128,-1,13
 764 1239 764 1239 790.5 1232 c 128,-1,14
 817 1225 817 1225 835 1218 c 1,15,16
 844 1286 844 1286 847.5 1321.5 c 128,-1,17
 851 1357 851 1357 851 1380 c 0,18,19
 851 1418 851 1418 843 1443.5 c 128,-1,20
 835 1469 835 1469 816 1484.5 c 128,-1,21
 797 1500 797 1500 767 1506.5 c 128,-1,22
 737 1513 737 1513 693 1513 c 0,23,24
 639 1513 639 1513 587.5 1498.5 c 128,-1,25
 536 1484 536 1484 496 1467 c 128,-1,26
 456 1450 456 1450 432.5 1436 c 128,-1,27
 409 1422 409 1422 410 1423 c 1,28,-1
 375 1532 l 1,29,30
 409 1551 409 1551 447 1570 c 128,-1,31
 485 1589 485 1589 526.5 1604 c 128,-1,32
 568 1619 568 1619 612 1628.5 c 128,-1,33
 656 1638 656 1638 703 1638 c 0,34,35
 781 1638 781 1638 836 1623 c 128,-1,36
 891 1608 891 1608 926 1576 c 128,-1,37
 961 1544 961 1544 977 1493.5 c 128,-1,38
 993 1443 993 1443 993 1373 c 0,39,40
 993 1364 993 1364 992.5 1351.5 c 128,-1,41
 992 1339 992 1339 989 1313 c 128,-1,42
 986 1287 986 1287 980.5 1242.5 c 128,-1,43
 975 1198 975 1198 965 1125 c 128,-1,44
 955 1052 955 1052 940.5 944.5 c 128,-1,45
 926 837 926 837 905 686 c 1,46,-1
 797 686 l 1,47,-1
 797 828 l 1,0,1
824 1141 m 1,48,49
 776 1149 776 1149 734.5 1153.5 c 128,-1,50
 693 1158 693 1158 658 1158 c 0,51,52
 390 1158 390 1158 390 924 c 0,53,54
 390 781 390 781 547 781 c 0,55,56
 610 781 610 781 668.5 813.5 c 128,-1,57
 727 846 727 846 791 903 c 1,58,-1
 824 1141 l 1,48,49
238 525 m 1,59,-1
 874 525 l 1,60,-1
 856 396 l 1,61,-1
 220 396 l 1,62,-1
 238 525 l 1,59,-1
EndSplineSet
EndChar

StartChar: guillemotleft
Encoding: 171 171 108
Width: 1506
Flags: W
DStem2: 337 577 180 482 0.801718 -0.597702<0 462.024> 206 664 337 577 0.851275 0.52472<65.8663 586.941> 892 577 735 482 0.801718 -0.597702<0 462.024> 761 664 892 577 0.851275 0.52472<65.8663 587.793>
LayerCount: 2
Fore
SplineSet
1343 840 m 1,0,-1
 892 577 l 1,1,-1
 1267 307 l 1,2,-1
 1238 107 l 1,3,-1
 735 482 l 1,4,-1
 761 664 l 1,5,-1
 1371 1040 l 1,6,-1
 1343 840 l 1,0,-1
787 840 m 1,7,-1
 337 577 l 1,8,-1
 712 307 l 1,9,-1
 683 107 l 1,10,-1
 180 482 l 1,11,-1
 206 664 l 1,12,-1
 816 1040 l 1,13,-1
 787 840 l 1,7,-1
EndSplineSet
EndChar

StartChar: logicalnot
Encoding: 172 172 109
Width: 1595
Flags: W
HStem: 1014 171<255 1316>
VStem: 1222 186<339 525>
DStem2: 1222 339 1408 339 0.139291 0.990252<25.9081 681.513>
LayerCount: 2
Fore
SplineSet
1527 1185 m 1,0,-1
 1408 339 l 1,1,-1
 1222 339 l 1,2,-1
 1316 1014 l 1,3,-1
 230 1014 l 1,4,-1
 255 1185 l 1,5,-1
 1527 1185 l 1,0,-1
EndSplineSet
EndChar

StartChar: uni00AD
Encoding: 173 173 110
Width: 773
Flags: W
HStem: 504 123<176 685>
VStem: 159 543
LayerCount: 2
Fore
SplineSet
685 504 m 1,0,-1
 159 504 l 1,1,-1
 176 627 l 1,2,-1
 702 627 l 1,3,-1
 685 504 l 1,0,-1
EndSplineSet
EndChar

StartChar: registered
Encoding: 174 174 111
Width: 1258
Flags: W
HStem: 584 91<484.849 861.695> 1027 0<214 214> 1072 72<660 692> 1327 73<684 845.232> 1537 93<594.044 963.741>
VStem: 214 93<853.016 1236.93> 520 91<830 921> 854 90<1169.04 1305.61> 1143 93<966.458 1355.29>
DStem2: 520 830 611 830 0.144094 0.989564<13.1126 257.919 330.896 521.184>
LayerCount: 2
Fore
SplineSet
765 1081 m 1,0,1
 767 1079 767 1079 774 1068.5 c 128,-1,2
 781 1058 781 1058 790 1046 c 0,3,4
 800 1032 800 1032 813 1015 c 1,5,-1
 899 855 l 1,6,-1
 804 808 l 1,7,8
 789 840 789 840 777 869 c 128,-1,9
 765 898 765 898 754 926 c 2,10,-1
 692 1072 l 1,11,-1
 648 1072 l 1,12,-1
 611 830 l 1,13,-1
 520 830 l 1,14,-1
 603 1400 l 1,15,-1
 705 1400 l 2,16,17
 833 1400 833 1400 888.5 1369 c 128,-1,18
 944 1338 944 1338 944 1269 c 0,19,20
 944 1228 944 1228 931 1197.5 c 128,-1,21
 918 1167 918 1167 894.5 1144.5 c 128,-1,22
 871 1122 871 1122 838 1106.5 c 128,-1,23
 805 1091 805 1091 765 1081 c 1,0,1
785 1537 m 0,24,25
 682 1537 682 1537 594.5 1493 c 128,-1,26
 507 1449 507 1449 443 1378 c 128,-1,27
 379 1307 379 1307 343 1218 c 128,-1,28
 307 1129 307 1129 307 1038 c 0,29,30
 307 957 307 957 334 890 c 128,-1,31
 361 823 361 823 409.5 775 c 128,-1,32
 458 727 458 727 525.5 701 c 128,-1,33
 593 675 593 675 673 675 c 0,34,35
 766 675 766 675 851 714.5 c 128,-1,36
 936 754 936 754 1001 822 c 128,-1,37
 1066 890 1066 890 1104.5 980 c 128,-1,38
 1143 1070 1143 1070 1143 1171 c 0,39,40
 1143 1250 1143 1250 1116.5 1317 c 128,-1,41
 1090 1384 1090 1384 1042.5 1433 c 128,-1,42
 995 1482 995 1482 929 1509.5 c 128,-1,43
 863 1537 863 1537 785 1537 c 0,24,25
710 1144 m 2,44,45
 782 1144 782 1144 818 1171.5 c 128,-1,46
 854 1199 854 1199 854 1263 c 0,47,48
 854 1282 854 1282 845.5 1294.5 c 128,-1,49
 837 1307 837 1307 817 1314.5 c 128,-1,50
 797 1322 797 1322 764.5 1324.5 c 128,-1,51
 732 1327 732 1327 684 1327 c 1,52,-1
 660 1144 l 1,53,-1
 710 1144 l 2,44,45
214 1027 m 1,54,55
 213 1106 213 1106 234.5 1181.5 c 128,-1,56
 256 1257 256 1257 295.5 1324 c 128,-1,57
 335 1391 335 1391 389.5 1447 c 128,-1,58
 444 1503 444 1503 509 1544 c 128,-1,59
 574 1585 574 1585 647.5 1607.5 c 128,-1,60
 721 1630 721 1630 798 1630 c 0,61,62
 895 1630 895 1630 975.5 1596 c 128,-1,63
 1056 1562 1056 1562 1114 1502 c 128,-1,64
 1172 1442 1172 1442 1204 1360.5 c 128,-1,65
 1236 1279 1236 1279 1236 1183 c 0,66,67
 1236 1105 1236 1105 1215 1030.5 c 128,-1,68
 1194 956 1194 956 1156 889.5 c 128,-1,69
 1118 823 1118 823 1065 767 c 128,-1,70
 1012 711 1012 711 947 670.5 c 128,-1,71
 882 630 882 630 807 607 c 128,-1,72
 732 584 732 584 651 584 c 0,73,74
 557 584 557 584 477 618 c 128,-1,75
 397 652 397 652 338.5 711.5 c 128,-1,76
 280 771 280 771 247 853 c 128,-1,77
 214 935 214 935 214 1031 c 2,78,-1
 214 1027 l 1,54,55
EndSplineSet
EndChar

StartChar: macron
Encoding: 175 175 112
Width: 921
Flags: W
HStem: 0 138<110 740>
VStem: 93 665
LayerCount: 2
Fore
SplineSet
740 0 m 1,0,-1
 93 0 l 1,1,-1
 110 138 l 1,2,-1
 758 138 l 1,3,-1
 740 0 l 1,0,-1
EndSplineSet
EndChar

StartChar: degree
Encoding: 176 176 113
Width: 612
Flags: W
HStem: 762 63<256.757 414.75> 1096 63<288.064 445.689>
VStem: 165 65<858.004 1037.06> 473 65<883.934 1066.76>
LayerCount: 2
Fore
SplineSet
372 1096 m 0,0,1
 341 1096 341 1096 315 1082.5 c 128,-1,2
 289 1069 289 1069 270 1047 c 128,-1,3
 251 1025 251 1025 240.5 996.5 c 128,-1,4
 230 968 230 968 230 937 c 0,5,6
 229 889 229 889 256 857 c 128,-1,7
 283 825 283 825 334 825 c 0,8,9
 364 825 364 825 389 838.5 c 128,-1,10
 414 852 414 852 433 874 c 128,-1,11
 452 896 452 896 462.5 924.5 c 128,-1,12
 473 953 473 953 473 984 c 0,13,14
 473 1032 473 1032 446.5 1064 c 128,-1,15
 420 1096 420 1096 372 1096 c 0,0,1
165 926 m 0,16,17
 165 974 165 974 182 1016.5 c 128,-1,18
 199 1059 199 1059 228.5 1090.5 c 128,-1,19
 258 1122 258 1122 298 1140.5 c 128,-1,20
 338 1159 338 1159 383 1159 c 0,21,22
 419 1159 419 1159 447.5 1146.5 c 128,-1,23
 476 1134 476 1134 496 1112.5 c 128,-1,24
 516 1091 516 1091 527 1061.5 c 128,-1,25
 538 1032 538 1032 538 998 c 0,26,27
 538 949 538 949 521.5 906 c 128,-1,28
 505 863 505 863 476.5 831 c 128,-1,29
 448 799 448 799 409.5 780.5 c 128,-1,30
 371 762 371 762 326 762 c 0,31,32
 288 762 288 762 258.5 774 c 128,-1,33
 229 786 229 786 208 808 c 128,-1,34
 187 830 187 830 176 860 c 128,-1,35
 165 890 165 890 165 926 c 0,16,17
EndSplineSet
EndChar

StartChar: plusminus
Encoding: 177 177 114
Width: 1014
Flags: W
HStem: -59 139<169 793> 511 128<213 487 629 903>
VStem: 436 127<166 293> 555 122<863 985>
DStem2: 436 166 563 166 0.143789 0.989608<18.2612 348.748 495.836 827.6>
LayerCount: 2
Fore
SplineSet
793 -59 m 1,0,-1
 149 -59 l 1,1,-1
 169 80 l 1,2,-1
 812 80 l 1,3,-1
 793 -59 l 1,0,-1
903 511 m 1,4,-1
 612 511 l 1,5,-1
 563 166 l 1,6,-1
 436 166 l 1,7,-1
 487 511 l 1,8,-1
 195 511 l 1,9,-1
 213 639 l 1,10,-1
 504 639 l 1,11,-1
 555 985 l 1,12,-1
 677 985 l 1,13,-1
 629 639 l 1,14,-1
 922 639 l 1,15,-1
 903 511 l 1,4,-1
EndSplineSet
EndChar

StartChar: uni00B2
Encoding: 178 178 115
Width: 1104
Flags: W
HStem: -35 147<310 824> 1039 135<377.27 772.973>
VStem: 842 138<706.59 974.796>
DStem2: 227.5 194 310 112 0.792258 0.610186<15.326 729.275>
LayerCount: 2
Fore
SplineSet
842 855 m 0,0,1
 842 927 842 927 799 973 c 0,2,3
 737 1039 737 1039 596 1039 c 0,4,5
 566 1039 566 1039 531 1033.5 c 128,-1,6
 496 1028 496 1028 460 1018.5 c 128,-1,7
 424 1009 424 1009 387 997.5 c 128,-1,8
 350 986 350 986 316 974 c 1,9,-1
 278 1093 l 1,10,11
 296 1102 296 1102 314 1109.5 c 128,-1,12
 332 1117 332 1117 350 1125 c 1,13,14
 423 1152 423 1152 493 1163 c 128,-1,15
 563 1174 563 1174 638 1174 c 0,16,17
 725 1174 725 1174 789.5 1151 c 128,-1,18
 854 1128 854 1128 896.5 1086 c 128,-1,19
 939 1044 939 1044 959.5 984 c 128,-1,20
 980 924 980 924 980 851 c 0,21,22
 979 611 979 611 670 381 c 2,23,-1
 310 112 l 1,24,-1
 844 112 l 1,25,-1
 824 -35 l 1,26,-1
 94 -35 l 1,27,-1
 112 105 l 1,28,29
 131 119 131 119 158 140 c 128,-1,30
 185 161 185 161 227.5 194 c 128,-1,31
 270 227 270 227 332 275 c 128,-1,32
 394 323 394 323 483 391 c 2,33,-1
 595 477 l 2,34,35
 641 512 641 512 685.5 556.5 c 128,-1,36
 730 601 730 601 764.5 650.5 c 128,-1,37
 799 700 799 700 820.5 752 c 128,-1,38
 842 804 842 804 842 855 c 0,0,1
EndSplineSet
EndChar

StartChar: uni00B3
Encoding: 179 179 116
Width: 1075
Flags: W
HStem: -235 145<221.603 650.407> 443 140<518 660.289> 1037 146<374.627 796.266>
VStem: 777 162<33.5853 341.57> 849 153<705.216 985.666>
LayerCount: 2
Fore
SplineSet
518 583 m 1,0,1
 621 583 621 583 686 611.5 c 128,-1,2
 751 640 751 640 787 682.5 c 128,-1,3
 823 725 823 725 836 774 c 128,-1,4
 849 823 849 823 849 865 c 0,5,6
 849 958 849 958 789 997.5 c 128,-1,7
 729 1037 729 1037 601 1037 c 0,8,9
 568 1037 568 1037 531.5 1032 c 128,-1,10
 495 1027 495 1027 457.5 1018 c 128,-1,11
 420 1009 420 1009 382.5 997 c 128,-1,12
 345 985 345 985 312 972 c 1,13,-1
 286 1102 l 1,14,-1
 316 1116 l 2,15,16
 337 1125 337 1125 369.5 1136.5 c 128,-1,17
 402 1148 402 1148 442.5 1158.5 c 128,-1,18
 483 1169 483 1169 530 1176 c 128,-1,19
 577 1183 577 1183 628 1183 c 0,20,21
 668 1183 668 1183 711.5 1178 c 128,-1,22
 755 1173 755 1173 796.5 1160.5 c 128,-1,23
 838 1148 838 1148 875.5 1127 c 128,-1,24
 913 1106 913 1106 941 1074 c 128,-1,25
 969 1042 969 1042 985.5 998.5 c 128,-1,26
 1002 955 1002 955 1002 898 c 0,27,28
 1002 827 1002 827 987 773 c 128,-1,29
 972 719 972 719 947 678 c 128,-1,30
 922 637 922 637 889 608.5 c 128,-1,31
 856 580 856 580 820 560.5 c 128,-1,32
 784 541 784 541 747 530.5 c 128,-1,33
 710 520 710 520 677 515 c 1,34,35
 716 505 716 505 762 484.5 c 128,-1,36
 808 464 808 464 847.5 427.5 c 128,-1,37
 887 391 887 391 913 336.5 c 128,-1,38
 939 282 939 282 939 203 c 0,39,40
 939 87 939 87 893 4 c 128,-1,41
 847 -79 847 -79 775 -132 c 128,-1,42
 703 -185 703 -185 615.5 -210 c 128,-1,43
 528 -235 528 -235 444 -235 c 0,44,45
 382 -235 382 -235 326.5 -225.5 c 128,-1,46
 271 -216 271 -216 224.5 -201 c 128,-1,47
 178 -186 178 -186 140.5 -169 c 128,-1,48
 103 -152 103 -152 76 -137 c 1,49,50
 100 -90 100 -90 113 -65 c 128,-1,51
 126 -40 126 -40 132.5 -29 c 128,-1,52
 139 -18 139 -18 140 -17 c 128,-1,53
 141 -16 141 -16 141 -17 c 1,54,55
 146 -17 146 -17 174.5 -28.5 c 128,-1,56
 203 -40 203 -40 247.5 -53.5 c 128,-1,57
 292 -67 292 -67 349 -78.5 c 128,-1,58
 406 -90 406 -90 469 -90 c 0,59,60
 557 -90 557 -90 616.5 -63.5 c 128,-1,61
 676 -37 676 -37 711.5 5 c 128,-1,62
 747 47 747 47 762 98.5 c 128,-1,63
 777 150 777 150 777 201 c 0,64,65
 778 307 778 307 708.5 366.5 c 128,-1,66
 639 426 639 426 498 443 c 1,67,-1
 518 583 l 1,0,1
EndSplineSet
EndChar

StartChar: acute
Encoding: 180 180 117
Width: 730
Flags: W
HStem: 120 618
VStem: 190 424
LayerCount: 2
Fore
SplineSet
319 120 m 1,0,-1
 190 120 l 1,1,-1
 382 738 l 1,2,-1
 614 738 l 1,3,-1
 319 120 l 1,0,-1
EndSplineSet
EndChar

StartChar: uni00B5
Encoding: 181 181 118
Width: 1146
Flags: W
HStem: -32 142<343.563 620.464> -12 21G<804 932>
VStem: 261 145<965 1110> 804 128<4 105.639> 916 172<938 1110>
DStem2: 71 -270 210 -290 0.138648 0.990342<0 354.721 604.555 1393.01> 800 272 932 4 0.139666 0.990199<-55.6144 845.988>
LayerCount: 2
Fore
SplineSet
210 -290 m 1,0,-1
 71 -270 l 1,1,-1
 261 1110 l 1,2,-1
 406 1110 l 1,3,4
 380 927 380 927 362 798.5 c 128,-1,5
 344 670 344 670 332.5 583.5 c 128,-1,6
 321 497 321 497 314.5 446 c 128,-1,7
 308 395 308 395 305 367 c 128,-1,8
 302 339 302 339 301.5 327.5 c 128,-1,9
 301 316 301 316 301 308 c 0,10,11
 301 205 301 205 341 157.5 c 128,-1,12
 381 110 381 110 466 110 c 0,13,14
 524 110 524 110 575 126.5 c 128,-1,15
 626 143 626 143 669 167.5 c 128,-1,16
 712 192 712 192 745 220.5 c 128,-1,17
 778 249 778 249 800 272 c 1,18,-1
 916 1110 l 1,19,-1
 1088 1110 l 1,20,-1
 932 4 l 1,21,-1
 804 -12 l 1,22,-1
 804 156 l 1,23,24
 627 -32 627 -32 444 -32 c 0,25,26
 397 -32 397 -32 364 -22 c 128,-1,27
 331 -12 331 -12 309.5 2 c 128,-1,28
 288 16 288 16 276 32.5 c 128,-1,29
 264 49 264 49 258 62 c 1,30,-1
 210 -290 l 1,0,-1
EndSplineSet
EndChar

StartChar: paragraph
Encoding: 182 182 119
Width: 1115
Flags: W
HStem: 0 21G<411 586.817 710 881.817> 1427 149<785 911>
VStem: 411 173<0 173> 710 169<0 169>
DStem2: 411 0 584 0 0.139478 0.990225<24.1297 923.058> 710 0 879 0 0.139486 0.990224<23.5731 1441.09>
LayerCount: 2
Fore
SplineSet
1101 1576 m 1,0,-1
 879 0 l 1,1,-1
 710 0 l 1,2,-1
 911 1427 l 1,3,-1
 785 1427 l 1,4,-1
 584 0 l 1,5,-1
 411 0 l 1,6,-1
 540 914 l 1,7,8
 461 914 461 914 387.5 927 c 128,-1,9
 314 940 314 940 257.5 972.5 c 128,-1,10
 201 1005 201 1005 167 1059 c 128,-1,11
 133 1113 133 1113 133 1195 c 0,12,13
 133 1276 133 1276 153 1335.5 c 128,-1,14
 173 1395 173 1395 209 1437.5 c 128,-1,15
 245 1480 245 1480 294.5 1507 c 128,-1,16
 344 1534 344 1534 403.5 1549 c 128,-1,17
 463 1564 463 1564 530.5 1570 c 128,-1,18
 598 1576 598 1576 669 1576 c 2,19,-1
 1101 1576 l 1,0,-1
EndSplineSet
EndChar

StartChar: periodcentered
Encoding: 183 183 120
Width: 516
Flags: W
HStem: 531 250<241.606 383.479>
VStem: 200 225<572.111 739.889>
LayerCount: 2
Fore
SplineSet
334 781 m 0,0,1
 376 781 376 781 400.5 752.5 c 128,-1,2
 425 724 425 724 425 679 c 0,3,4
 425 650 425 650 414 623.5 c 128,-1,5
 403 597 403 597 384.5 576.5 c 128,-1,6
 366 556 366 556 342.5 543.5 c 128,-1,7
 319 531 319 531 295 531 c 0,8,9
 250 531 250 531 225 560.5 c 128,-1,10
 200 590 200 590 200 635 c 0,11,12
 200 663 200 663 211 689 c 128,-1,13
 222 715 222 715 240.5 735.5 c 128,-1,14
 259 756 259 756 283.5 768.5 c 128,-1,15
 308 781 308 781 334 781 c 0,0,1
EndSplineSet
EndChar

StartChar: cedilla
Encoding: 184 184 121
Width: 543
Flags: W
HStem: -578 112<47.5997 333.663> -437 20G<38.4444 58> -330 2<478 480> -238 88<210 307.897>
VStem: 359 120<-438.68 -328>
LayerCount: 2
Fore
SplineSet
35 -528 m 1,0,1
 35 -518 35 -518 35.5 -508.5 c 128,-1,2
 36 -499 36 -499 37 -489 c 2,3,-1
 39 -417 l 1,4,5
 77 -436 77 -436 113 -447 c 128,-1,6
 149 -458 149 -458 180 -463 c 0,7,8
 202 -466 202 -466 221 -466 c 0,9,10
 261 -466 261 -466 287.5 -454.5 c 128,-1,11
 314 -443 314 -443 330 -425.5 c 128,-1,12
 346 -408 346 -408 352.5 -387.5 c 128,-1,13
 359 -367 359 -367 359 -350 c 0,14,15
 359 -329 359 -329 342.5 -309 c 128,-1,16
 326 -289 326 -289 292 -273.5 c 128,-1,17
 258 -258 258 -258 207.5 -248 c 128,-1,18
 157 -238 157 -238 88 -238 c 1,19,-1
 167 23 l 1,20,-1
 281 23 l 1,21,22
 247 -56 247 -56 229.5 -99 c 128,-1,23
 212 -142 212 -142 210 -150 c 1,24,25
 247 -150 247 -150 293.5 -157 c 128,-1,26
 340 -164 340 -164 381 -183.5 c 128,-1,27
 422 -203 422 -203 450.5 -238 c 128,-1,28
 479 -273 479 -273 479 -330 c 2,29,-1
 479 -328 l 2,30,31
 479 -385 479 -385 457 -431.5 c 128,-1,32
 435 -478 435 -478 398 -510.5 c 128,-1,33
 361 -543 361 -543 313 -560.5 c 128,-1,34
 265 -578 265 -578 213 -578 c 0,35,36
 159 -578 159 -578 115.5 -564.5 c 128,-1,37
 72 -551 72 -551 35 -528 c 1,0,1
EndSplineSet
EndChar

StartChar: uni00B9
Encoding: 185 185 122
Width: 832
Flags: W
HStem: -35 21G<301 463.799>
VStem: 301 160<-35 125>
DStem2: 199 1058 226 944 0.938617 0.344962<0 228.942> 301 -35 461 -35 0.138598 0.990349<22.1757 1081.45>
LayerCount: 2
Fore
SplineSet
301 -35 m 1,0,-1
 451 1036 l 1,1,-1
 226 944 l 1,2,-1
 199 1058 l 1,3,-1
 433 1144 l 1,4,-1
 626 1144 l 1,5,-1
 461 -35 l 1,6,-1
 301 -35 l 1,0,-1
EndSplineSet
EndChar

StartChar: ordmasculine
Encoding: 186 186 123
Width: 1179
Flags: W
HStem: 386 129<232 850> 670 125<451.131 731.232> 1512 126<544.624 821.2>
VStem: 235 145<870.914 1299.18> 894 146<1004.8 1434.39>
LayerCount: 2
Fore
SplineSet
569 670 m 256,0,1
 485 670 485 670 422.5 697 c 128,-1,2
 360 724 360 724 318 773.5 c 128,-1,3
 276 823 276 823 255.5 892 c 128,-1,4
 235 961 235 961 235 1045 c 0,5,6
 235 1098 235 1098 244.5 1162.5 c 128,-1,7
 254 1227 254 1227 276 1293 c 128,-1,8
 298 1359 298 1359 334 1421 c 128,-1,9
 370 1483 370 1483 422 1531.5 c 128,-1,10
 474 1580 474 1580 544 1609 c 128,-1,11
 614 1638 614 1638 705 1638 c 0,12,13
 789 1638 789 1638 851.5 1610.5 c 128,-1,14
 914 1583 914 1583 956 1533 c 128,-1,15
 998 1483 998 1483 1019 1413 c 128,-1,16
 1040 1343 1040 1343 1040 1258 c 0,17,18
 1040 1194 1040 1194 1028.5 1126 c 128,-1,19
 1017 1058 1017 1058 992.5 992.5 c 128,-1,20
 968 927 968 927 930.5 868.5 c 128,-1,21
 893 810 893 810 840.5 766 c 128,-1,22
 788 722 788 722 720.5 696 c 128,-1,23
 653 670 653 670 569 670 c 256,0,1
587 795 m 0,24,25
 648 795 648 795 694.5 818 c 128,-1,26
 741 841 741 841 775 878.5 c 128,-1,27
 809 916 809 916 832 964 c 128,-1,28
 855 1012 855 1012 868.5 1063 c 128,-1,29
 882 1114 882 1114 888 1164 c 128,-1,30
 894 1214 894 1214 894 1255 c 0,31,32
 894 1375 894 1375 844 1443.5 c 128,-1,33
 794 1512 794 1512 688 1512 c 0,34,35
 628 1512 628 1512 582 1489.5 c 128,-1,36
 536 1467 536 1467 501.5 1429.5 c 128,-1,37
 467 1392 467 1392 444 1344 c 128,-1,38
 421 1296 421 1296 406.5 1244.5 c 128,-1,39
 392 1193 392 1193 386 1142.5 c 128,-1,40
 380 1092 380 1092 380 1050 c 0,41,42
 380 929 380 929 430.5 862 c 128,-1,43
 481 795 481 795 587 795 c 0,24,25
232 515 m 1,44,-1
 868 515 l 1,45,-1
 850 386 l 1,46,-1
 213 386 l 1,47,-1
 232 515 l 1,44,-1
EndSplineSet
EndChar

StartChar: guillemotright
Encoding: 187 187 124
Width: 1505
Flags: W
DStem2: 167 307 139 107 0.851514 0.524331<0 525.078> 270 1041 242 840 0.800191 -0.599745<98.1435 557.348> 723 307 694 107 0.851514 0.524331<0 524.227> 825 1041 797 840 0.800191 -0.599745<98.1435 557.348>
LayerCount: 2
Fore
SplineSet
797 840 m 1,0,-1
 825 1041 l 1,1,-1
 1328 664 l 1,2,-1
 1303 482 l 1,3,-1
 694 107 l 1,4,-1
 723 307 l 1,5,-1
 1173 576 l 1,6,-1
 797 840 l 1,0,-1
242 840 m 1,7,-1
 270 1041 l 1,8,-1
 773 664 l 1,9,-1
 748 482 l 1,10,-1
 139 107 l 1,11,-1
 167 307 l 1,12,-1
 618 576 l 1,13,-1
 242 840 l 1,7,-1
EndSplineSet
EndChar

StartChar: onequarter
Encoding: 188 188 125
Width: 1814
Flags: W
HStem: 31 105<950 1328 1491 1621>
VStem: 402 155<575 730>
DStem2: 156 -30 253 -124 0.693722 0.720243<0 1921.57> 225.365 -256 380.365 -256 0.207912 0.978148<881.791 1716.9> 364 1441 383 1353 0.938718 0.344686<0 188.206> 798 138 950 136 0.670647 0.741776<100.455 867.553> 1272 -256 1411.9 -256 0.207912 0.978148<53.6227 292.371 429.945 976.276>
LayerCount: 2
Fore
SplineSet
156 -30 m 1,0,-1
 1488 1355 l 1,1,-1
 1587 1261 l 1,2,-1
 253 -124 l 1,3,-1
 156 -30 l 1,0,-1
1524 941 m 1,4,-1
 1643 911 l 1,5,-1
 1491 137 l 1,6,-1
 1643 137 l 1,7,-1
 1621 31 l 1,8,-1
 1469 31 l 1,9,-1
 1417 -232 l 1,10,-1
 1272 -256 l 1,11,-1
 1328 31 l 1,12,-1
 798 31 l 1,13,-1
 798 138 l 1,14,-1
 1524 941 l 1,4,-1
950 136 m 1,15,-1
 1349 136 l 1,16,-1
 1470 700 l 1,17,-1
 950 136 l 1,15,-1
402 575 m 1,18,-1
 570 1426 l 1,19,-1
 383 1353 l 1,20,-1
 364 1441 l 1,21,-1
 620 1535 l 1,22,-1
 743 1510 l 1,23,-1
 557 575 l 1,24,-1
 402 575 l 1,18,-1
EndSplineSet
EndChar

StartChar: onehalf
Encoding: 189 189 126
Width: 2072
Flags: W
HStem: -181 149<1355 1737> 650 139<1306.96 1690.59>
VStem: 454 155<575 730> 1737 170<408.475 620.6>
DStem2: 181 -30 278 -124 0.693722 0.720243<0 1921.57> 293.307 -181 448.307 -181 0.207912 0.978148<805.116 1640.01> 416 1441 435 1353 0.93828 0.345876<0 187.159> 1127 -46 1355 -32 0.80889 0.58796<192.658 750.045>
LayerCount: 2
Fore
SplineSet
181 -30 m 1,0,-1
 1513 1355 l 1,1,-1
 1612 1261 l 1,2,-1
 278 -124 l 1,3,-1
 181 -30 l 1,0,-1
454 575 m 1,4,-1
 621 1426 l 1,5,-1
 435 1353 l 1,6,-1
 416 1441 l 1,7,-1
 671 1535 l 1,8,-1
 795 1510 l 1,9,-1
 609 575 l 1,10,-1
 454 575 l 1,4,-1
1446 195 m 2,11,12
 1483 223 1483 223 1533 258 c 128,-1,13
 1583 293 1583 293 1628.5 335.5 c 128,-1,14
 1674 378 1674 378 1705.5 428 c 128,-1,15
 1737 478 1737 478 1737 535 c 0,16,17
 1737 593 1737 593 1692 621.5 c 128,-1,18
 1647 650 1647 650 1569 650 c 0,19,20
 1540 650 1540 650 1502.5 645.5 c 128,-1,21
 1465 641 1465 641 1424.5 633.5 c 128,-1,22
 1384 626 1384 626 1343.5 617 c 128,-1,23
 1303 608 1303 608 1269 599 c 1,24,-1
 1301 742 l 1,25,26
 1314 747 1314 747 1328.5 751 c 128,-1,27
 1343 755 1343 755 1358 760 c 1,28,29
 1406 772 1406 772 1468 780.5 c 128,-1,30
 1530 789 1530 789 1615 789 c 0,31,32
 1702 789 1702 789 1758.5 767.5 c 128,-1,33
 1815 746 1815 746 1848 713 c 128,-1,34
 1881 680 1881 680 1894 639.5 c 128,-1,35
 1907 599 1907 599 1907 560 c 0,36,37
 1907 504 1907 504 1890 455 c 128,-1,38
 1873 406 1873 406 1835 356.5 c 128,-1,39
 1797 307 1797 307 1735 253 c 128,-1,40
 1673 199 1673 199 1582 133 c 2,41,-1
 1355 -32 l 1,42,-1
 1767 -32 l 1,43,-1
 1737 -181 l 1,44,-1
 1099 -181 l 1,45,-1
 1127 -46 l 1,46,-1
 1446 195 l 2,11,12
EndSplineSet
EndChar

StartChar: threequarters
Encoding: 190 190 127
Width: 2163
Flags: W
HStem: 540 132<375.078 744.053> 1142 65<784 796.461> 1541 136<516.511 877.518>
VStem: 843 163<766.978 1007.86> 926 158<1299.45 1507.2>
DStem2: 317 745 241 618 0.89182 -0.45239<0 245.354> 465 1612 539.5 1506.5 0.922229 0.386645<-3.98946 215.208>
LayerCount: 2
Fore
SplineSet
317 745 m 1,0,1
 340 733 340 733 368 720 c 128,-1,2
 396 707 396 707 429 696.5 c 128,-1,3
 462 686 462 686 500.5 679 c 128,-1,4
 539 672 539 672 583 672 c 0,5,6
 638 672 638 672 686 688.5 c 128,-1,7
 734 705 734 705 768.5 735 c 128,-1,8
 803 765 803 765 823 806.5 c 128,-1,9
 843 848 843 848 843 899 c 0,10,11
 843 972 843 972 790 1015.5 c 128,-1,12
 737 1059 737 1059 619 1072 c 1,13,-1
 645 1207 l 1,14,15
 691 1207 691 1207 740.5 1219.5 c 128,-1,16
 790 1232 790 1232 831.5 1257.5 c 128,-1,17
 873 1283 873 1283 899.5 1323 c 128,-1,18
 926 1363 926 1363 926 1418 c 0,19,20
 926 1478 926 1478 879 1509.5 c 128,-1,21
 832 1541 832 1541 729 1541 c 0,22,23
 701 1541 701 1541 668.5 1536.5 c 128,-1,24
 636 1532 636 1532 603 1524.5 c 128,-1,25
 570 1517 570 1517 539.5 1506.5 c 128,-1,26
 509 1496 509 1496 484 1484 c 1,27,-1
 461 1611 l 1,28,29
 464 1611 464 1611 465 1612 c 0,30,31
 474 1616 474 1616 501 1626.5 c 128,-1,32
 528 1637 528 1637 568 1648 c 128,-1,33
 608 1659 608 1659 657.5 1668 c 128,-1,34
 707 1677 707 1677 760 1677 c 0,35,36
 810 1677 810 1677 867 1666.5 c 128,-1,37
 924 1656 924 1656 972 1630.5 c 128,-1,38
 1020 1605 1020 1605 1052 1561.5 c 128,-1,39
 1084 1518 1084 1518 1084 1451 c 0,40,41
 1084 1393 1084 1393 1067 1348 c 128,-1,42
 1050 1303 1050 1303 1023 1268.5 c 128,-1,43
 996 1234 996 1234 962.5 1210 c 128,-1,44
 929 1186 929 1186 895.5 1171 c 128,-1,45
 862 1156 862 1156 832.5 1149 c 128,-1,46
 803 1142 803 1142 784 1142 c 1,47,48
 817 1135 817 1135 856 1120 c 128,-1,49
 895 1105 895 1105 928 1076.5 c 128,-1,50
 961 1048 961 1048 983.5 1004.5 c 128,-1,51
 1006 961 1006 961 1006 897 c 0,52,53
 1006 832 1006 832 985.5 780 c 128,-1,54
 965 728 965 728 930 688.5 c 128,-1,55
 895 649 895 649 848.5 620.5 c 128,-1,56
 802 592 802 592 750.5 574.5 c 128,-1,57
 699 557 699 557 645 548.5 c 128,-1,58
 591 540 591 540 542 540 c 0,59,60
 489 540 489 540 443 548 c 128,-1,61
 397 556 397 556 359 568 c 128,-1,62
 321 580 321 580 291.5 593.5 c 128,-1,63
 262 607 262 607 241 618 c 1,64,-1
 317 745 l 1,0,1
EndSplineSet
EndChar

StartChar: questiondown
Encoding: 191 191 128
Width: 1043
Flags: W
HStem: 1 146<378.955 787.582> 1225 298<762.469 1007.98>
VStem: 167 159<198.771 473.03> 773 139<1014.15 1093>
LayerCount: 2
Fore
SplineSet
326 321 m 0,0,1
 326 277 326 277 339 244.5 c 128,-1,2
 352 212 352 212 380.5 190.5 c 128,-1,3
 409 169 409 169 454.5 158 c 128,-1,4
 500 147 500 147 566 147 c 0,5,6
 608 147 608 147 651 154.5 c 128,-1,7
 694 162 694 162 734 174 c 128,-1,8
 774 186 774 186 811 200.5 c 128,-1,9
 848 215 848 215 878 228 c 1,10,-1
 932 94 l 1,11,12
 896 78 896 78 854.5 61.5 c 128,-1,13
 813 45 813 45 766 31.5 c 128,-1,14
 719 18 719 18 666.5 9.5 c 128,-1,15
 614 1 614 1 555 1 c 0,16,17
 444 1 444 1 369.5 25.5 c 128,-1,18
 295 50 295 50 250 92.5 c 128,-1,19
 205 135 205 135 186 191.5 c 128,-1,20
 167 248 167 248 167 312 c 0,21,22
 167 404 167 404 202 483 c 128,-1,23
 237 562 237 562 292 627.5 c 128,-1,24
 347 693 347 693 414 745.5 c 128,-1,25
 481 798 481 798 545 837 c 128,-1,26
 609 876 609 876 663 901.5 c 128,-1,27
 717 927 717 927 745 939 c 1,28,-1
 773 1093 l 1,29,-1
 912 1093 l 1,30,-1
 882 846 l 1,31,32
 865 839 865 839 845.5 830.5 c 128,-1,33
 826 822 826 822 804 811 c 0,34,35
 757 788 757 788 703.5 758.5 c 128,-1,36
 650 729 650 729 597 693.5 c 128,-1,37
 544 658 544 658 495 617 c 128,-1,38
 446 576 446 576 408.5 529 c 128,-1,39
 371 482 371 482 348.5 430 c 128,-1,40
 326 378 326 378 326 321 c 0,0,1
1037 1523 m 1,41,42
 1026 1448 1026 1448 1018.5 1375.5 c 128,-1,43
 1011 1303 1011 1303 1004 1225 c 1,44,45
 937 1225 937 1225 870 1223 c 128,-1,46
 803 1221 803 1221 734 1218 c 1,47,48
 744 1293 744 1293 751.5 1366 c 128,-1,49
 759 1439 759 1439 766 1517 c 1,50,51
 833 1517 833 1517 899 1519 c 128,-1,52
 965 1521 965 1521 1037 1523 c 1,41,42
EndSplineSet
EndChar

StartChar: AE
Encoding: 198 198 135
Width: 1978
Flags: W
HStem: 0 138<1128 1865> 384 97<555 1003> 779 107<1236 1871> 1441 131<1314 2057>
VStem: 43 182<0 182>
DStem2: 43 0 225 0 0.555066 0.831806<101.022 558.647 684.293 1209> 948 0 1128 138 0.137644 0.990482<161.462 387.915 485.919 809.024 917.208 1445.76> 1092 1572 1147 1432 0.555066 0.831806<-1767.44 -1331.22 -927.072 -85.9242>
LayerCount: 2
Fore
SplineSet
1236 886 m 1,0,-1
 1884 886 l 1,1,-1
 1871 779 l 1,2,-1
 1220 779 l 1,3,-1
 1128 138 l 1,4,-1
 1883 138 l 1,5,-1
 1865 0 l 1,6,-1
 948 0 l 1,7,-1
 1003 384 l 1,8,-1
 474 384 l 1,9,-1
 225 0 l 1,10,-1
 43 0 l 1,11,-1
 1092 1572 l 1,12,-1
 2076 1572 l 1,13,-1
 2057 1441 l 1,14,-1
 1314 1441 l 1,15,-1
 1236 886 l 1,0,-1
1017 481 m 1,16,-1
 1147 1432 l 1,17,-1
 555 481 l 1,18,-1
 1017 481 l 1,16,-1
EndSplineSet
EndChar

StartChar: Eth
Encoding: 208 208 145
Width: 1319
Flags: W
HStem: 0 144<297 837.305> 737 142<124 208 400 758> 1426 146<476 1020.54>
VStem: 1177 177<631.379 1262.19>
DStem2: 103 0 297 144 0.141069 0.99<169.927 744.442 912.107 1464.36> 1141.5 670.5 1331.5 736.5 0.14587 0.989304<-233.504 340.979>
LayerCount: 2
Fore
SplineSet
1354 1009 m 0,0,1
 1354 958 1354 958 1349.5 887.5 c 128,-1,2
 1345 817 1345 817 1331.5 736.5 c 128,-1,3
 1318 656 1318 656 1294 570 c 128,-1,4
 1270 484 1270 484 1231.5 402 c 128,-1,5
 1193 320 1193 320 1138 247 c 128,-1,6
 1083 174 1083 174 1008 119 c 128,-1,7
 933 64 933 64 835 32 c 128,-1,8
 737 0 737 0 613 0 c 2,9,-1
 103 0 l 1,10,-1
 208 737 l 1,11,-1
 107 737 l 1,12,-1
 124 879 l 1,13,-1
 228 879 l 1,14,-1
 327 1572 l 1,15,-1
 837 1572 l 2,16,17
 1098 1572 1098 1572 1225.5 1431.5 c 128,-1,18
 1353 1291 1353 1291 1354 1009 c 0,0,1
1177 1012 m 0,19,20
 1177 1124 1177 1124 1154.5 1203 c 128,-1,21
 1132 1282 1132 1282 1087 1331.5 c 128,-1,22
 1042 1381 1042 1381 973.5 1403.5 c 128,-1,23
 905 1426 905 1426 814 1426 c 2,24,-1
 476 1426 l 1,25,-1
 400 879 l 1,26,-1
 775 879 l 1,27,-1
 758 737 l 1,28,-1
 380 737 l 1,29,-1
 297 144 l 1,30,-1
 637 144 l 2,31,32
 754 144 754 144 840 190 c 128,-1,33
 926 236 926 236 986 310.5 c 128,-1,34
 1046 385 1046 385 1083.5 479.5 c 128,-1,35
 1121 574 1121 574 1141.5 670.5 c 128,-1,36
 1162 767 1162 767 1169.5 856.5 c 128,-1,37
 1177 946 1177 946 1177 1012 c 0,19,20
EndSplineSet
EndChar

StartChar: multiply
Encoding: 215 215 152
Width: 1155
Flags: W
DStem2: 197 231 271 134 0.731181 0.682184<0 449.963 601.415 1049.23> 388 955 285 857 0.621119 -0.783716<12.8289 400.746 533.828 921.744>
LayerCount: 2
Fore
SplineSet
713 546 m 1,0,-1
 961 233 l 1,1,-1
 858 134 l 1,2,-1
 609 449 l 1,3,-1
 271 134 l 1,4,-1
 197 231 l 1,5,-1
 533 544 l 1,6,-1
 285 857 l 1,7,-1
 388 955 l 1,8,-1
 637 641 l 1,9,-1
 973 955 l 1,10,-1
 1047 858 l 1,11,-1
 713 546 l 1,0,-1
EndSplineSet
EndChar

StartChar: Oslash
Encoding: 216 216 153
Width: 1446
Flags: W
HStem: -41 146<614.705 925.283> -20 144<613 717.035> 1462 147<768.164 1092.82>
VStem: 219 184<272.958 897.711> 1300 181<660.999 1292.49>
DStem2: 392 -98 490 -143 0.41478 0.909922<0 135.962 304.311 1677.84 1845.9 1999.83>
LayerCount: 2
Fore
SplineSet
1300 1049 m 0,0,1
 1300 1155 1300 1155 1275 1241 c 128,-1,2
 1250 1327 1250 1327 1186 1384 c 1,3,-1
 613 124 l 1,4,5
 642 115 642 115 674 110 c 128,-1,6
 706 105 706 105 743 105 c 0,7,8
 837 105 837 105 914.5 143.5 c 128,-1,9
 992 182 992 182 1054 248.5 c 128,-1,10
 1116 315 1116 315 1162 406 c 128,-1,11
 1208 497 1208 497 1239 601.5 c 128,-1,12
 1270 706 1270 706 1285 820.5 c 128,-1,13
 1300 935 1300 935 1300 1049 c 0,0,1
1481 1043 m 0,14,15
 1481 888 1481 888 1456 747 c 128,-1,16
 1431 606 1431 606 1384 486 c 128,-1,17
 1337 366 1337 366 1270 268.5 c 128,-1,18
 1203 171 1203 171 1118.5 102 c 128,-1,19
 1034 33 1034 33 933.5 -4 c 128,-1,20
 833 -41 833 -41 720 -41 c 0,21,22
 625 -41 625 -41 546 -20 c 1,23,-1
 490 -143 l 1,24,-1
 392 -98 l 1,25,-1
 446 21 l 1,26,27
 338 80 338 80 278 200 c 128,-1,28
 218 320 218 320 219 509 c 0,29,30
 219 660 219 660 243.5 800.5 c 128,-1,31
 268 941 268 941 314 1063 c 128,-1,32
 360 1185 360 1185 426.5 1285.5 c 128,-1,33
 493 1386 493 1386 576.5 1458 c 128,-1,34
 660 1530 660 1530 759 1569.5 c 128,-1,35
 858 1609 858 1609 970 1609 c 0,36,37
 1076 1609 1076 1609 1159 1585 c 1,38,-1
 1223 1721 l 1,39,-1
 1321 1680 l 1,40,-1
 1258 1543 l 1,41,42
 1319 1508 1319 1508 1361.5 1458 c 128,-1,43
 1404 1408 1404 1408 1430.5 1344.5 c 128,-1,44
 1457 1281 1457 1281 1469 1205.5 c 128,-1,45
 1481 1130 1481 1130 1481 1043 c 0,14,15
954 1462 m 0,46,47
 853 1462 853 1462 773 1420.5 c 128,-1,48
 693 1379 693 1379 632 1307.5 c 128,-1,49
 571 1236 571 1236 527.5 1141.5 c 128,-1,50
 484 1047 484 1047 456.5 941 c 128,-1,51
 429 835 429 835 416 723.5 c 128,-1,52
 403 612 403 612 403 507 c 0,53,54
 403 389 403 389 431.5 310 c 128,-1,55
 460 231 460 231 518 179 c 1,56,-1
 1094 1441 l 1,57,58
 1034 1462 1034 1462 954 1462 c 0,46,47
EndSplineSet
EndChar

StartChar: Thorn
Encoding: 222 222 159
Width: 1351
Flags: W
HStem: 0 21G<146 323.767> 506 139<410 915.505> 1304 138<523 1022.2> 1558 20G<365.186 541>
VStem: 146 175<0 175> 1137 163<835.516 1208.3>
DStem2: 146 0 321 0 0.139313 0.990248<24.3797 535.197 675.489 1341.16 1480.46 1593.54>
LayerCount: 2
Fore
SplineSet
368 1578 m 1,0,-1
 541 1578 l 1,1,-1
 523 1442 l 1,2,-1
 709 1442 l 2,3,4
 867 1442 867 1442 979 1421 c 128,-1,5
 1091 1400 1091 1400 1162.5 1356 c 128,-1,6
 1234 1312 1234 1312 1267 1243.5 c 128,-1,7
 1300 1175 1300 1175 1300 1079 c 0,8,9
 1300 924 1300 924 1252 815.5 c 128,-1,10
 1204 707 1204 707 1109 638 c 128,-1,11
 1014 569 1014 569 873 537.5 c 128,-1,12
 732 506 732 506 546 506 c 2,13,-1
 391 506 l 1,14,-1
 321 0 l 1,15,-1
 146 0 l 1,16,-1
 368 1578 l 1,0,-1
1137 1063 m 0,17,18
 1137 1109 1137 1109 1127 1142 c 0,19,20
 1115 1185 1115 1185 1086 1216 c 128,-1,21
 1057 1247 1057 1247 1005 1266.5 c 128,-1,22
 953 1286 953 1286 875.5 1295 c 128,-1,23
 798 1304 798 1304 690 1304 c 2,24,-1
 504 1304 l 1,25,-1
 410 645 l 1,26,-1
 564 645 l 2,27,28
 721 645 721 645 830.5 666.5 c 128,-1,29
 940 688 940 688 1008 737 c 128,-1,30
 1076 786 1076 786 1106.5 866 c 128,-1,31
 1137 946 1137 946 1137 1063 c 0,17,18
EndSplineSet
EndChar

StartChar: germandbls
Encoding: 223 223 160
Width: 1295
Flags: W
HStem: -126 150<465 709.104> 0 21G<146 312.79> 777 127<559 786.284> 1439 139<596.406 927.037>
VStem: 146 164<0 164> 995 142<1038.65 1372.94> 1039 164<278.151 639.202>
DStem2: 146 0 310 0 0.138727 0.990331<22.7512 1373.09>
LayerCount: 2
Fore
SplineSet
559 904 m 1,0,1
 691 904 691 904 776 926.5 c 128,-1,2
 861 949 861 949 909.5 991.5 c 128,-1,3
 958 1034 958 1034 976.5 1094 c 128,-1,4
 995 1154 995 1154 995 1229 c 0,5,6
 995 1337 995 1337 935.5 1388 c 128,-1,7
 876 1439 876 1439 743 1439 c 0,8,9
 683 1439 683 1439 639.5 1419.5 c 128,-1,10
 596 1400 596 1400 565.5 1366.5 c 128,-1,11
 535 1333 535 1333 516 1290 c 128,-1,12
 497 1247 497 1247 484.5 1200.5 c 128,-1,13
 472 1154 472 1154 465 1106.5 c 128,-1,14
 458 1059 458 1059 452 1018 c 2,15,-1
 310 0 l 1,16,-1
 146 0 l 1,17,-1
 284 991 l 2,18,19
 295 1069 295 1069 310.5 1143 c 128,-1,20
 326 1217 326 1217 349.5 1282 c 128,-1,21
 373 1347 373 1347 408 1401.5 c 128,-1,22
 443 1456 443 1456 492.5 1495 c 128,-1,23
 542 1534 542 1534 609.5 1556 c 128,-1,24
 677 1578 677 1578 766 1578 c 0,25,26
 867 1578 867 1578 937.5 1548.5 c 128,-1,27
 1008 1519 1008 1519 1052.5 1469.5 c 128,-1,28
 1097 1420 1097 1420 1117 1355.5 c 128,-1,29
 1137 1291 1137 1291 1137 1221 c 0,30,31
 1137 1129 1137 1129 1111.5 1061.5 c 128,-1,32
 1086 994 1086 994 1040 948 c 128,-1,33
 994 902 994 902 929.5 877 c 128,-1,34
 865 852 865 852 787 846 c 1,35,36
 864 839 864 839 938.5 813.5 c 128,-1,37
 1013 788 1013 788 1072 743 c 128,-1,38
 1131 698 1131 698 1167 633.5 c 128,-1,39
 1203 569 1203 569 1203 484 c 0,40,41
 1203 328 1203 328 1143 215.5 c 128,-1,42
 1083 103 1083 103 979.5 29.5 c 128,-1,43
 876 -44 876 -44 736.5 -81.5 c 128,-1,44
 597 -119 597 -119 439 -126 c 1,45,-1
 465 24 l 1,46,47
 585 35 585 35 674 58.5 c 128,-1,48
 763 82 763 82 826.5 116 c 128,-1,49
 890 150 890 150 931.5 192 c 128,-1,50
 973 234 973 234 996.5 282.5 c 128,-1,51
 1020 331 1020 331 1029.5 383.5 c 128,-1,52
 1039 436 1039 436 1039 491 c 0,53,54
 1039 639 1039 639 914 708 c 128,-1,55
 789 777 789 777 539 777 c 1,56,-1
 559 904 l 1,0,1
EndSplineSet
EndChar

StartChar: ae
Encoding: 230 230 167
Width: 1742
Flags: W
HStem: -21 125<412.24 698.301 1132.64 1458.16> 1040 128<638.355 1029.47 1266.57 1563.52>
VStem: 176 154<192.543 654.928> 868 159<291.752 558.343> 1629 143<775.603 973.426>
DStem2: 1058 670 1040 557 0.991518 0.129972<0 577.875>
LayerCount: 2
Fore
SplineSet
1622 102 m 1,0,1
 1580 72 1580 72 1533 49.5 c 128,-1,2
 1486 27 1486 27 1438 11 c 128,-1,3
 1390 -5 1390 -5 1343 -13 c 128,-1,4
 1296 -21 1296 -21 1254 -21 c 0,5,6
 1121 -21 1121 -21 1038.5 32 c 128,-1,7
 956 85 956 85 911 184 c 1,8,9
 875 140 875 140 827 103 c 128,-1,10
 779 66 779 66 726.5 38 c 128,-1,11
 674 10 674 10 621 -5.5 c 128,-1,12
 568 -21 568 -21 523 -21 c 0,13,14
 430 -21 430 -21 364 11.5 c 128,-1,15
 298 44 298 44 256.5 101 c 128,-1,16
 215 158 215 158 195.5 234.5 c 128,-1,17
 176 311 176 311 176 400 c 0,18,19
 176 480 176 480 196 568 c 128,-1,20
 216 656 216 656 254.5 741.5 c 128,-1,21
 293 827 293 827 348.5 904.5 c 128,-1,22
 404 982 404 982 475 1040.5 c 128,-1,23
 546 1099 546 1099 631 1133.5 c 128,-1,24
 716 1168 716 1168 814 1168 c 0,25,26
 901 1168 901 1168 965.5 1151.5 c 128,-1,27
 1030 1135 1030 1135 1072 1115.5 c 128,-1,28
 1114 1096 1114 1096 1134 1080 c 128,-1,29
 1154 1064 1154 1064 1152 1065 c 1,30,31
 1212 1113 1212 1113 1284.5 1140.5 c 128,-1,32
 1357 1168 1357 1168 1442 1168 c 0,33,34
 1519 1168 1519 1168 1580.5 1145.5 c 128,-1,35
 1642 1123 1642 1123 1684.5 1076.5 c 128,-1,36
 1727 1030 1727 1030 1749.5 958 c 128,-1,37
 1772 886 1772 886 1772 788 c 0,38,39
 1772 764 1772 764 1767.5 742.5 c 128,-1,40
 1763 721 1763 721 1741.5 701 c 128,-1,41
 1720 681 1720 681 1675 662.5 c 128,-1,42
 1630 644 1630 644 1548.5 626 c 128,-1,43
 1467 608 1467 608 1343 591 c 128,-1,44
 1219 574 1219 574 1040 557 c 1,45,46
 1033 512 1033 512 1030 473.5 c 128,-1,47
 1027 435 1027 435 1027 400 c 0,48,49
 1027 248 1027 248 1098 176.5 c 128,-1,50
 1169 105 1169 105 1294 105 c 0,51,52
 1369 105 1369 105 1441.5 140 c 128,-1,53
 1514 175 1514 175 1587 233 c 1,54,-1
 1622 102 l 1,0,1
330 397 m 1,55,56
 331 319 331 319 345.5 263 c 128,-1,57
 360 207 360 207 388.5 172 c 128,-1,58
 417 137 417 137 460 120.5 c 128,-1,59
 503 104 503 104 560 104 c 0,60,61
 604 104 604 104 650 122.5 c 128,-1,62
 696 141 696 141 739 169 c 128,-1,63
 782 197 782 197 818 229.5 c 128,-1,64
 854 262 854 262 878 290 c 1,65,66
 868 346 868 346 868 412 c 0,67,68
 868 481 868 481 881.5 556 c 128,-1,69
 895 631 895 631 920 704.5 c 128,-1,70
 945 778 945 778 981 847 c 128,-1,71
 1017 916 1017 916 1063 974 c 0,72,73
 1064 974 1064 974 1048.5 984.5 c 128,-1,74
 1033 995 1033 995 1001 1007 c 128,-1,75
 969 1019 969 1019 919 1029.5 c 128,-1,76
 869 1040 869 1040 801 1040 c 0,77,78
 741 1040 741 1040 682.5 1016.5 c 128,-1,79
 624 993 624 993 571.5 950 c 128,-1,80
 519 907 519 907 475 847.5 c 128,-1,81
 431 788 431 788 398.5 716.5 c 128,-1,82
 366 645 366 645 348 564 c 128,-1,83
 330 483 330 483 330 397 c 1,55,56
1058 670 m 1,84,85
 1200 688 1200 688 1297.5 703 c 128,-1,86
 1395 718 1395 718 1458.5 730.5 c 128,-1,87
 1522 743 1522 743 1556.5 753.5 c 128,-1,88
 1591 764 1591 764 1607 773 c 128,-1,89
 1623 782 1623 782 1626 790.5 c 128,-1,90
 1629 799 1629 799 1629 807 c 0,91,92
 1629 922 1629 922 1578.5 981 c 128,-1,93
 1528 1040 1528 1040 1438 1039 c 0,94,95
 1366 1039 1366 1039 1305 1014.5 c 128,-1,96
 1244 990 1244 990 1195.5 942.5 c 128,-1,97
 1147 895 1147 895 1112 826.5 c 128,-1,98
 1077 758 1077 758 1058 670 c 1,84,85
EndSplineSet
EndChar

StartChar: igrave
Encoding: 236 236 173
Width: 586
Flags: W
HStem: 0 21G<209 372.835>
VStem: 209 161<0 161> 373 163<1008 1171>
DStem2: 209 0 370 0 0.140356 0.990101<22.5973 1182.43>
LayerCount: 2
Fore
SplineSet
370 0 m 1,0,-1
 209 0 l 1,1,-1
 373 1171 l 1,2,-1
 536 1171 l 1,3,-1
 370 0 l 1,0,-1
534 1255 m 1,4,-1
 475 1228 l 1,5,-1
 257 1774 l 1,6,-1
 489 1868 l 1,7,-1
 534 1255 l 1,4,-1
EndSplineSet
EndChar

StartChar: iacute
Encoding: 237 237 174
Width: 586
Flags: W
HStem: 0 21G<209 372.835>
VStem: 209 161<0 161> 373 163<1008 1171>
DStem2: 209 0 370 0 0.140356 0.990101<22.5973 1182.43>
LayerCount: 2
Fore
SplineSet
370 0 m 1,0,-1
 209 0 l 1,1,-1
 373 1171 l 1,2,-1
 536 1171 l 1,3,-1
 370 0 l 1,0,-1
476 1209 m 1,4,-1
 435 1236 l 1,5,-1
 684 1843 l 1,6,-1
 875 1747 l 1,7,-1
 476 1209 l 1,4,-1
EndSplineSet
EndChar

StartChar: icircumflex
Encoding: 238 238 175
Width: 586
Flags: W
VStem: 212 154<-60 94> 365 167<943 1110> 406 195<1443.91 1572.15>
DStem2: 212 -60 366 -60 0.129665 0.991558<19.9684 1179.96>
LayerCount: 2
Fore
SplineSet
601 1504 m 1,0,1
 602 1481 602 1481 593.5 1461.5 c 128,-1,2
 585 1442 585 1442 569 1429.5 c 128,-1,3
 553 1417 553 1417 531 1412 c 128,-1,4
 509 1407 509 1407 484 1414 c 1,5,6
 442 1414 442 1414 422 1443 c 128,-1,7
 402 1472 402 1472 406 1514 c 1,8,9
 405 1534 405 1534 414 1552.5 c 128,-1,10
 423 1571 423 1571 439.5 1583.5 c 128,-1,11
 456 1596 456 1596 478 1601.5 c 128,-1,12
 500 1607 500 1607 526 1600 c 1,13,14
 563 1600 563 1600 584 1573 c 128,-1,15
 605 1546 605 1546 601 1504 c 1,0,1
365 1110 m 1,16,-1
 532 1110 l 1,17,-1
 387 180 l 1,18,-1
 366 -60 l 1,19,-1
 310 -76 l 1,20,21
 314 -71 314 -71 317 -60 c 1,22,-1
 212 -60 l 1,23,-1
 365 1110 l 1,16,-1
EndSplineSet
EndChar

StartChar: idieresis
Encoding: 239 239 176
Width: 586
Flags: W
HStem: 0 21G<209 372.835> 1238 250<212.883 356.851 620.112 764> 1382 2<802 804> 1384 2<397 399>
VStem: 171 227<1279.11 1445.88> 209 161<0 161> 373 163<1008 1171> 577 226<1276.76 1444.89>
DStem2: 209 0 370 0 0.140356 0.990101<22.5973 1182.43>
LayerCount: 2
Fore
SplineSet
370 0 m 1,0,-1
 209 0 l 1,1,-1
 373 1171 l 1,2,-1
 536 1171 l 1,3,-1
 370 0 l 1,0,-1
398 1386 m 2,4,5
 398 1357 398 1357 387 1330.5 c 128,-1,6
 376 1304 376 1304 357.5 1283.5 c 128,-1,7
 339 1263 339 1263 316 1250.5 c 128,-1,8
 293 1238 293 1238 269 1238 c 0,9,10
 224 1238 224 1238 197.5 1268 c 128,-1,11
 171 1298 171 1298 171 1343 c 0,12,13
 171 1370 171 1370 182.5 1396.5 c 128,-1,14
 194 1423 194 1423 212.5 1443 c 128,-1,15
 231 1463 231 1463 255 1475.5 c 128,-1,16
 279 1488 279 1488 305 1488 c 0,17,18
 347 1488 347 1488 372.5 1458.5 c 128,-1,19
 398 1429 398 1429 398 1384 c 2,20,-1
 398 1386 l 2,4,5
803 1384 m 2,21,22
 803 1355 803 1355 792 1328.5 c 128,-1,23
 781 1302 781 1302 763 1281.5 c 128,-1,24
 745 1261 745 1261 721.5 1248.5 c 128,-1,25
 698 1236 698 1236 674 1236 c 0,26,27
 629 1236 629 1236 603 1266 c 128,-1,28
 577 1296 577 1296 577 1341 c 0,29,30
 577 1368 577 1368 588 1394.5 c 128,-1,31
 599 1421 599 1421 617.5 1441 c 128,-1,32
 636 1461 636 1461 660 1473.5 c 128,-1,33
 684 1486 684 1486 710 1486 c 0,34,35
 752 1486 752 1486 778 1456.5 c 128,-1,36
 804 1427 804 1427 803 1382 c 1,37,-1
 803 1384 l 2,21,22
EndSplineSet
EndChar

StartChar: eth
Encoding: 240 240 177
Width: 1172
Flags: W
HStem: -20 138<406.425 693.872> 996 137<530.255 826.126> 1555 20G<1133.4 1193.33>
VStem: 176 153<202.305 709.485> 925 170<500.383 891.974>
DStem2: 602 1365 621 1268 0.941923 0.33583<0 201.802 369.955 610.638>
LayerCount: 2
Fore
SplineSet
329 400 m 0,0,1
 329 364 329 364 332.5 333 c 128,-1,2
 336 302 336 302 343 275 c 0,3,4
 383 118 383 118 538 118 c 0,5,6
 601 118 601 118 662 145.5 c 128,-1,7
 723 173 723 173 774 228.5 c 128,-1,8
 825 284 825 284 862 366.5 c 128,-1,9
 899 449 899 449 915 560 c 0,10,11
 920 595 920 595 923 632 c 128,-1,12
 926 669 926 669 925 711 c 1,13,14
 926 796 926 796 902 851 c 128,-1,15
 878 906 878 906 842 938.5 c 128,-1,16
 806 971 806 971 764 983.5 c 128,-1,17
 722 996 722 996 687 996 c 0,18,19
 612 996 612 996 556.5 967 c 128,-1,20
 501 938 501 938 461.5 890 c 128,-1,21
 422 842 422 842 396 780.5 c 128,-1,22
 370 719 370 719 355.5 652.5 c 128,-1,23
 341 586 341 586 335 520.5 c 128,-1,24
 329 455 329 455 329 400 c 0,0,1
176 410 m 0,25,26
 176 497 176 497 191 584.5 c 128,-1,27
 206 672 206 672 235 752.5 c 128,-1,28
 264 833 264 833 306 902.5 c 128,-1,29
 348 972 348 972 403 1023 c 128,-1,30
 458 1074 458 1074 524.5 1103.5 c 128,-1,31
 591 1133 591 1133 669 1133 c 0,32,33
 719 1133 719 1133 764.5 1118 c 128,-1,34
 810 1103 810 1103 848.5 1080 c 128,-1,35
 887 1057 887 1057 916 1028.5 c 128,-1,36
 945 1000 945 1000 962 972 c 1,37,38
 951 1069 951 1069 920.5 1161.5 c 128,-1,39
 890 1254 890 1254 842 1347 c 1,40,-1
 621 1268 l 1,41,-1
 602 1365 l 1,42,-1
 792 1433 l 1,43,44
 750 1496 750 1496 708.5 1545.5 c 128,-1,45
 667 1595 667 1595 624 1633 c 1,46,-1
 708 1741 l 1,47,48
 774 1692 774 1692 831 1628.5 c 128,-1,49
 888 1565 888 1565 936 1484 c 1,50,-1
 1189 1575 l 1,51,-1
 1210 1478 l 1,52,-1
 983 1398 l 1,53,54
 1095 1155 1095 1155 1095 873 c 0,55,56
 1095 754 1095 754 1078.5 642 c 128,-1,57
 1062 530 1062 530 1030 430.5 c 128,-1,58
 998 331 998 331 950 248.5 c 128,-1,59
 902 166 902 166 838.5 106 c 128,-1,60
 775 46 775 46 696.5 13 c 128,-1,61
 618 -20 618 -20 524 -20 c 0,62,63
 429 -20 429 -20 363 13.5 c 128,-1,64
 297 47 297 47 255.5 105.5 c 128,-1,65
 214 164 214 164 195 242 c 128,-1,66
 176 320 176 320 176 410 c 0,25,26
EndSplineSet
EndChar

StartChar: divide
Encoding: 247 247 184
Width: 682
Flags: W
HStem: 0 255<197 407> 605 255<287 497>
VStem: 156 251<0 251> 197 251<4 255> 246 251<605 856> 287 251<609 860>
DStem2: 156 0 407 0 0.150589 0.988597<37.7977 258.266 649.452 869.92>
LayerCount: 2
Fore
SplineSet
246 605 m 1,0,-1
 287 860 l 1,1,-1
 538 860 l 1,2,-1
 497 605 l 1,3,-1
 246 605 l 1,0,-1
156 0 m 1,4,-1
 197 255 l 1,5,-1
 448 255 l 1,6,-1
 407 0 l 1,7,-1
 156 0 l 1,4,-1
EndSplineSet
EndChar

StartChar: oslash
Encoding: 248 248 185
Width: 1078
Flags: W
HStem: -21 127<504 736.766> 1001 128<551.827 815.141>
VStem: 176 156<218.297 703.647> 945 157<391.32 898.599>
DStem2: 298 -145 369 -181 0.416588 0.909096<0 181.586 322.604 1220.72 1370.66 1537.94>
LayerCount: 2
Fore
SplineSet
504 115 m 1,0,1
 524 110 524 110 543.5 108 c 128,-1,2
 563 106 563 106 583 106 c 0,3,4
 642 106 642 106 689 125 c 128,-1,5
 736 144 736 144 772.5 176 c 128,-1,6
 809 208 809 208 836 250.5 c 128,-1,7
 863 293 863 293 882 339.5 c 128,-1,8
 901 386 901 386 913.5 434.5 c 128,-1,9
 926 483 926 483 933 528 c 0,10,11
 940 574 940 574 942.5 613.5 c 128,-1,12
 945 653 945 653 945 681 c 0,13,14
 945 766 945 766 929 829 c 128,-1,15
 913 892 913 892 878 932 c 1,16,-1
 504 115 l 1,0,1
176 426 m 0,17,18
 176 487 176 487 187 562.5 c 128,-1,19
 198 638 198 638 223 716 c 128,-1,20
 248 794 248 794 289.5 868.5 c 128,-1,21
 331 943 331 943 391.5 1001 c 128,-1,22
 452 1059 452 1059 533.5 1094 c 128,-1,23
 615 1129 615 1129 721 1129 c 0,24,25
 809 1129 809 1129 874 1104 c 1,26,-1
 944 1254 l 1,27,-1
 1011 1220 l 1,28,-1
 942 1070 l 1,29,30
 1027 1007 1027 1007 1065 905 c 128,-1,31
 1103 803 1103 803 1102 674 c 0,32,33
 1102 646 1102 646 1100 618.5 c 128,-1,34
 1098 591 1098 591 1095 563 c 0,35,36
 1081 450 1081 450 1041 345 c 128,-1,37
 1001 240 1001 240 934 158.5 c 128,-1,38
 867 77 867 77 773 28 c 128,-1,39
 679 -21 679 -21 557 -21 c 0,40,41
 527 -21 527 -21 500.5 -18 c 128,-1,42
 474 -15 474 -15 448 -10 c 1,43,-1
 369 -181 l 1,44,-1
 298 -145 l 1,45,-1
 372 17 l 1,46,47
 320 43 320 43 283 84.5 c 128,-1,48
 246 126 246 126 222 179.5 c 128,-1,49
 198 233 198 233 187 295.5 c 128,-1,50
 176 358 176 358 176 426 c 0,17,18
816 980 m 1,51,52
 791 990 791 990 765 995.5 c 128,-1,53
 739 1001 739 1001 712 1001 c 0,54,55
 631 1001 631 1001 570.5 967.5 c 128,-1,56
 510 934 510 934 467.5 880.5 c 128,-1,57
 425 827 425 827 397.5 760 c 128,-1,58
 370 693 370 693 355 627 c 0,59,60
 342 572 342 572 337 520 c 128,-1,61
 332 468 332 468 332 426 c 0,62,63
 332 231 332 231 433 148 c 1,64,-1
 816 980 l 1,51,52
EndSplineSet
EndChar

StartChar: yacute
Encoding: 253 253 190
Width: 1018
Flags: W
HStem: -458 119<102.988 225.074> 1127 20G<214 380.978 973.732 1157>
VStem: 214 163<984 1147>
DStem2: 377 1147 214 1147 0.203608 -0.979052<0 932.89> 390 -104 537 -101.5 0.444773 0.895643<-214.583 134.614 376.103 1321.83> 983 1147 1157 1147 0.444773 0.895643<-1619.82 -1249.59 -986.229 0>
LayerCount: 2
Fore
SplineSet
81 -339 m 1,0,1
 156 -329 156 -329 207 -304 c 1,2,3
 246 -286 246 -286 277 -259 c 128,-1,4
 308 -232 308 -232 335.5 -194 c 128,-1,5
 363 -156 363 -156 390 -104 c 128,-1,6
 417 -52 417 -52 449 17 c 1,7,8
 441 54 441 54 433.5 90.5 c 128,-1,9
 426 127 426 127 418 165 c 2,10,-1
 214 1147 l 1,11,-1
 377 1147 l 1,12,-1
 559 232 l 1,13,-1
 983 1147 l 1,14,-1
 1157 1147 l 1,15,-1
 631 95 l 2,16,17
 609 51 609 51 586 0.5 c 128,-1,18
 563 -50 563 -50 537 -101.5 c 128,-1,19
 511 -153 511 -153 481 -203 c 128,-1,20
 451 -253 451 -253 415.5 -296.5 c 128,-1,21
 380 -340 380 -340 337.5 -374.5 c 128,-1,22
 295 -409 295 -409 244 -430 c 1,23,24
 185 -453 185 -453 106 -458 c 1,25,-1
 81 -339 l 1,0,1
EndSplineSet
EndChar

StartChar: thorn
Encoding: 254 254 191
Width: 1167
Flags: W
HStem: -490 21G<160.803 298> -20 136<536.743 853.935> 993 136<687.542 960.935>
VStem: 446 157<1408 1565> 1036 154<398.009 912.001>
DStem2: 158 -490 319 -467 0.13879 0.990322<45.1225 638.951 737.051 1400.82 1466.84 2075.08>
LayerCount: 2
Fore
SplineSet
1190 697 m 0,0,1
 1190 625 1190 625 1178 544 c 128,-1,2
 1166 463 1166 463 1141 383 c 128,-1,3
 1116 303 1116 303 1076.5 230.5 c 128,-1,4
 1037 158 1037 158 982 102 c 128,-1,5
 927 46 927 46 856 13 c 128,-1,6
 785 -20 785 -20 696 -20 c 0,7,8
 478 -20 478 -20 402 121 c 1,9,-1
 319 -467 l 1,10,-1
 158 -490 l 1,11,-1
 446 1565 l 1,12,-1
 603 1565 l 1,13,-1
 516 941 l 1,14,15
 588 1029 588 1029 677 1079 c 128,-1,16
 766 1129 766 1129 860 1129 c 0,17,18
 951 1129 951 1129 1014 1093.5 c 128,-1,19
 1077 1058 1077 1058 1116 998.5 c 128,-1,20
 1155 939 1155 939 1172.5 860.5 c 128,-1,21
 1190 782 1190 782 1190 697 c 0,0,1
713 116 m 0,22,23
 780 116 780 116 830 145 c 128,-1,24
 880 174 880 174 915.5 221.5 c 128,-1,25
 951 269 951 269 974.5 331 c 128,-1,26
 998 393 998 393 1011.5 458.5 c 128,-1,27
 1025 524 1025 524 1030.5 588.5 c 128,-1,28
 1036 653 1036 653 1036 706 c 0,29,30
 1036 993 1036 993 835 993 c 0,31,32
 782 993 782 993 733 976 c 128,-1,33
 684 959 684 959 641 934 c 128,-1,34
 598 909 598 909 564 880 c 128,-1,35
 530 851 530 851 508 828 c 1,36,-1
 425 246 l 1,37,38
 429 241 429 241 450.5 220 c 128,-1,39
 472 199 472 199 509 176 c 128,-1,40
 546 153 546 153 597.5 134.5 c 128,-1,41
 649 116 649 116 713 116 c 0,22,23
EndSplineSet
EndChar

StartChar: ydieresis
Encoding: 255 255 192
Width: 1018
Flags: W
HStem: -458 119<102.988 225.074> 1127 20G<214 380.978 973.732 1157>
VStem: 214 163<984 1147>
DStem2: 377 1147 214 1147 0.203608 -0.979052<0 932.89> 390 -104 537 -101.5 0.444773 0.895643<-214.583 134.614 376.103 1321.83> 983 1147 1157 1147 0.444773 0.895643<-1619.82 -1249.59 -986.229 0>
LayerCount: 2
Fore
SplineSet
81 -339 m 1,0,1
 156 -329 156 -329 207 -304 c 1,2,3
 246 -286 246 -286 277 -259 c 128,-1,4
 308 -232 308 -232 335.5 -194 c 128,-1,5
 363 -156 363 -156 390 -104 c 128,-1,6
 417 -52 417 -52 449 17 c 1,7,8
 441 54 441 54 433.5 90.5 c 128,-1,9
 426 127 426 127 418 165 c 2,10,-1
 214 1147 l 1,11,-1
 377 1147 l 1,12,-1
 559 232 l 1,13,-1
 983 1147 l 1,14,-1
 1157 1147 l 1,15,-1
 631 95 l 2,16,17
 609 51 609 51 586 0.5 c 128,-1,18
 563 -50 563 -50 537 -101.5 c 128,-1,19
 511 -153 511 -153 481 -203 c 128,-1,20
 451 -253 451 -253 415.5 -296.5 c 128,-1,21
 380 -340 380 -340 337.5 -374.5 c 128,-1,22
 295 -409 295 -409 244 -430 c 1,23,24
 185 -453 185 -453 106 -458 c 1,25,-1
 81 -339 l 1,0,1
EndSplineSet
EndChar

StartChar: OE
Encoding: 338 338 255
Width: 2577
Flags: W
HStem: -41 145<564.809 936.1> 0 138<1364 2083> 779 108<1469 2089> 1439 138<1548 2274> 1464 145<750.221 1123.8>
VStem: 219 182<289.082 928.306>
DStem2: 1206 237 1364 138 0.139399 0.990236<-76.0083 0 222.953 571.279 1102.79 1237.94>
LayerCount: 2
Fore
SplineSet
2083 0 m 1,0,-1
 1172 0 l 1,1,-1
 1206 237 l 1,2,3
 1179 166 1179 166 1127 113.5 c 128,-1,4
 1075 61 1075 61 1009.5 26.5 c 128,-1,5
 944 -8 944 -8 871.5 -24.5 c 128,-1,6
 799 -41 799 -41 731 -41 c 0,7,8
 609 -41 609 -41 514 -6.5 c 128,-1,9
 419 28 419 28 353.5 100 c 128,-1,10
 288 172 288 172 253.5 282.5 c 128,-1,11
 219 393 219 393 219 545 c 0,12,13
 219 692 219 692 242.5 828 c 128,-1,14
 266 964 266 964 310.5 1082.5 c 128,-1,15
 355 1201 355 1201 419 1298 c 128,-1,16
 483 1395 483 1395 563.5 1464 c 128,-1,17
 644 1533 644 1533 741 1571 c 128,-1,18
 838 1609 838 1609 947 1609 c 0,19,20
 1106 1609 1106 1609 1215.5 1538.5 c 128,-1,21
 1325 1468 1325 1468 1367 1328 c 1,22,-1
 1394 1577 l 1,23,-1
 2294 1577 l 1,24,-1
 2274 1439 l 1,25,-1
 1548 1439 l 1,26,-1
 1469 887 l 1,27,-1
 2104 887 l 1,28,-1
 2089 779 l 1,29,-1
 1454 779 l 1,30,-1
 1364 138 l 1,31,-1
 2102 138 l 1,32,-1
 2083 0 l 1,0,-1
1292 1017 m 0,33,34
 1292 1109 1292 1109 1275.5 1190.5 c 128,-1,35
 1259 1272 1259 1272 1218 1332.5 c 128,-1,36
 1177 1393 1177 1393 1108.5 1428.5 c 128,-1,37
 1040 1464 1040 1464 936 1464 c 0,38,39
 838 1464 838 1464 760 1424.5 c 128,-1,40
 682 1385 682 1385 622.5 1317 c 128,-1,41
 563 1249 563 1249 521 1158 c 128,-1,42
 479 1067 479 1067 452.5 964.5 c 128,-1,43
 426 862 426 862 413.5 753 c 128,-1,44
 401 644 401 644 401 541 c 0,45,46
 401 104 401 104 751 104 c 0,47,48
 844 104 844 104 920 140.5 c 128,-1,49
 996 177 996 177 1056 241.5 c 128,-1,50
 1116 306 1116 306 1160.5 393.5 c 128,-1,51
 1205 481 1205 481 1234 582.5 c 128,-1,52
 1263 684 1263 684 1277.5 794.5 c 128,-1,53
 1292 905 1292 905 1292 1017 c 0,33,34
EndSplineSet
EndChar

StartChar: oe
Encoding: 339 339 256
Width: 1875
Flags: W
HStem: -21 146<428.562 782.047 1248.56 1598.68> 560 112<1188 1749.99> 1034 134<581.541 904.836 1364.68 1699.5>
VStem: 176 162<223.652 713.226> 1761 145<666 968.104>
LayerCount: 2
Fore
SplineSet
1170 560 m 1,0,1
 1156 473 1156 473 1155 406 c 1,2,3
 1155 328 1155 328 1173.5 274.5 c 128,-1,4
 1192 221 1192 221 1226.5 188 c 128,-1,5
 1261 155 1261 155 1311 140 c 128,-1,6
 1361 125 1361 125 1425 125 c 0,7,8
 1578 125 1578 125 1720 240 c 1,9,-1
 1753 101 l 1,10,11
 1711 72 1711 72 1660.5 49 c 128,-1,12
 1610 26 1610 26 1560 10.5 c 128,-1,13
 1510 -5 1510 -5 1465 -13 c 128,-1,14
 1420 -21 1420 -21 1387 -21 c 0,15,16
 1316 -21 1316 -21 1254.5 -2.5 c 128,-1,17
 1193 16 1193 16 1147 51 c 128,-1,18
 1101 86 1101 86 1074 137 c 128,-1,19
 1047 188 1047 188 1045 253 c 1,20,21
 965 143 965 143 882.5 81 c 128,-1,22
 800 19 800 19 711 -4 c 0,23,24
 649 -21 649 -21 587 -21 c 0,25,26
 495 -22 495 -22 419 8.5 c 128,-1,27
 343 39 343 39 289 97 c 128,-1,28
 235 155 235 155 205.5 238.5 c 128,-1,29
 176 322 176 322 176 428 c 0,30,31
 176 505 176 505 189 590 c 128,-1,32
 202 675 202 675 231 757 c 128,-1,33
 260 839 260 839 306 913.5 c 128,-1,34
 352 988 352 988 418 1044.5 c 128,-1,35
 484 1101 484 1101 571 1134.5 c 128,-1,36
 658 1168 658 1168 769 1168 c 0,37,38
 849 1168 849 1168 910 1144.5 c 128,-1,39
 971 1121 971 1121 1013.5 1082 c 128,-1,40
 1056 1043 1056 1043 1081.5 993.5 c 128,-1,41
 1107 944 1107 944 1116 892 c 1,42,43
 1151 962 1151 962 1203 1014 c 128,-1,44
 1255 1066 1255 1066 1313.5 1100 c 128,-1,45
 1372 1134 1372 1134 1433 1151 c 128,-1,46
 1494 1168 1494 1168 1547 1168 c 0,47,48
 1732 1168 1732 1168 1819 1074.5 c 128,-1,49
 1906 981 1906 981 1906 782 c 0,50,51
 1906 709 1906 709 1895.5 649 c 128,-1,52
 1885 589 1885 589 1870 538 c 1,53,54
 1685 549 1685 549 1513 554 c 128,-1,55
 1341 559 1341 559 1170 560 c 1,0,1
602 112 m 1,56,57
 680 117 680 117 740.5 146 c 128,-1,58
 801 175 801 175 846.5 221 c 128,-1,59
 892 267 892 267 923.5 326 c 128,-1,60
 955 385 955 385 974.5 449.5 c 128,-1,61
 994 514 994 514 1002.5 580.5 c 128,-1,62
 1011 647 1011 647 1011 708 c 0,63,64
 1011 775 1011 775 998 834.5 c 128,-1,65
 985 894 985 894 955 938 c 128,-1,66
 925 982 925 982 874.5 1008 c 128,-1,67
 824 1034 824 1034 749 1034 c 0,68,69
 672 1034 672 1034 612 1006 c 128,-1,70
 552 978 552 978 506 930.5 c 128,-1,71
 460 883 460 883 428 821.5 c 128,-1,72
 396 760 396 760 376 693.5 c 128,-1,73
 356 627 356 627 347 559 c 128,-1,74
 338 491 338 491 338 432 c 0,75,76
 338 366 338 366 350.5 308 c 128,-1,77
 363 250 363 250 393.5 207 c 128,-1,78
 424 164 424 164 474.5 138.5 c 128,-1,79
 525 113 525 113 602 112 c 1,56,57
1188 672 m 1,80,81
 1332 672 1332 672 1468.5 671.5 c 128,-1,82
 1605 671 1605 671 1747 666 c 1,83,84
 1756 720 1756 720 1758.5 750.5 c 128,-1,85
 1761 781 1761 781 1761 804 c 0,86,87
 1761 919 1761 919 1710 979.5 c 128,-1,88
 1659 1040 1659 1040 1568 1040 c 0,89,90
 1407 1040 1407 1040 1313 950 c 128,-1,91
 1219 860 1219 860 1188 672 c 1,80,81
EndSplineSet
EndChar

StartChar: ycircumflex
Encoding: 375 375 289
Width: 1018
Flags: W
HStem: -458 119<102.988 225.074> 1127 20G<214 380.978 973.732 1157>
VStem: 214 163<984 1147>
DStem2: 377 1147 214 1147 0.203608 -0.979052<0 932.89> 390 -104 537 -101.5 0.444773 0.895643<-214.583 134.614 376.103 1321.83> 983 1147 1157 1147 0.444773 0.895643<-1619.82 -1249.59 -986.229 0>
LayerCount: 2
Fore
SplineSet
81 -339 m 1,0,1
 156 -329 156 -329 207 -304 c 1,2,3
 246 -286 246 -286 277 -259 c 128,-1,4
 308 -232 308 -232 335.5 -194 c 128,-1,5
 363 -156 363 -156 390 -104 c 128,-1,6
 417 -52 417 -52 449 17 c 1,7,8
 441 54 441 54 433.5 90.5 c 128,-1,9
 426 127 426 127 418 165 c 2,10,-1
 214 1147 l 1,11,-1
 377 1147 l 1,12,-1
 559 232 l 1,13,-1
 983 1147 l 1,14,-1
 1157 1147 l 1,15,-1
 631 95 l 2,16,17
 609 51 609 51 586 0.5 c 128,-1,18
 563 -50 563 -50 537 -101.5 c 128,-1,19
 511 -153 511 -153 481 -203 c 128,-1,20
 451 -253 451 -253 415.5 -296.5 c 128,-1,21
 380 -340 380 -340 337.5 -374.5 c 128,-1,22
 295 -409 295 -409 244 -430 c 1,23,24
 185 -453 185 -453 106 -458 c 1,25,-1
 81 -339 l 1,0,1
EndSplineSet
EndChar

StartChar: florin
Encoding: 402 402 297
Width: 737
Flags: W
HStem: -298 137<-39.9975 193.605> 1004 74<250 402 570 871> 1443 136<657.344 865.537>
DStem2: 282 196 439 193 0.146427 0.989221<-317.439 816.862 914.664 1243.54>
LayerCount: 2
Fore
SplineSet
761 1443 m 0,0,1
 727 1443 727 1443 699 1433 c 128,-1,2
 671 1423 671 1423 648 1385.5 c 128,-1,3
 625 1348 625 1348 605.5 1275.5 c 128,-1,4
 586 1203 586 1203 570 1078 c 1,5,-1
 879 1078 l 1,6,-1
 871 1004 l 1,7,-1
 559 1004 l 1,8,-1
 439 193 l 2,9,10
 415 35 415 35 378.5 -61 c 128,-1,11
 342 -157 342 -157 295 -210 c 128,-1,12
 248 -263 248 -263 191.5 -280.5 c 128,-1,13
 135 -298 135 -298 71 -298 c 0,14,15
 30 -298 30 -298 -4.5 -284 c 128,-1,16
 -39 -270 -39 -270 -64 -253 c 128,-1,17
 -89 -236 -89 -236 -103.5 -221.5 c 128,-1,18
 -118 -207 -118 -207 -118 -206 c 2,19,-1
 -45 -86 l 1,20,21
 -13 -124 -13 -124 19 -142.5 c 128,-1,22
 51 -161 51 -161 89 -161 c 0,23,24
 123 -161 123 -161 151 -151 c 128,-1,25
 179 -141 179 -141 202 -104.5 c 128,-1,26
 225 -68 225 -68 244.5 3 c 128,-1,27
 264 74 264 74 282 196 c 2,28,-1
 402 1004 l 1,29,-1
 243 1004 l 1,30,-1
 250 1078 l 1,31,-1
 413 1078 l 1,32,33
 428 1186 428 1186 449.5 1265 c 128,-1,34
 471 1344 471 1344 498 1399.5 c 128,-1,35
 525 1455 525 1455 556.5 1490 c 128,-1,36
 588 1525 588 1525 624 1545 c 128,-1,37
 660 1565 660 1565 699.5 1572 c 128,-1,38
 739 1579 739 1579 781 1579 c 256,39,40
 823 1579 823 1579 858 1564.5 c 128,-1,41
 893 1550 893 1550 918 1532.5 c 128,-1,42
 943 1515 943 1515 956.5 1500 c 128,-1,43
 970 1485 970 1485 969 1484 c 2,44,-1
 895 1367 l 1,45,46
 834 1443 834 1443 761 1443 c 0,0,1
EndSplineSet
EndChar

StartChar: circumflex
Encoding: 710 710 313
Width: 772
Flags: W
HStem: 119 524<381 403>
VStem: 77 153<119 272> 488 130<119 249>
DStem2: 77 119 230 119 0.52825 0.849089<80.8222 453.841> 510 643 425 437 0.201864 -0.979414<184.601 508.772>
LayerCount: 2
Fore
SplineSet
403 643 m 1,0,-1
 510 643 l 1,1,-1
 618 119 l 1,2,-1
 488 119 l 1,3,-1
 425 437 l 1,4,-1
 230 119 l 1,5,-1
 77 119 l 1,6,-1
 403 643 l 1,0,-1
EndSplineSet
EndChar

StartChar: caron
Encoding: 711 711 314
Width: 772
Flags: W
HStem: 119 524<256 289>
VStem: 159 130<513 643> 547 153<490 643>
DStem2: 289 643 159 643 0.182022 -0.983294<0 323.973> 351 325 363 119 0.54092 0.841074<0 373.482>
LayerCount: 2
Fore
SplineSet
363 119 m 1,0,-1
 256 119 l 1,1,-1
 159 643 l 1,2,-1
 289 643 l 1,3,-1
 351 325 l 1,4,-1
 547 643 l 1,5,-1
 700 643 l 1,6,-1
 363 119 l 1,0,-1
EndSplineSet
EndChar

StartChar: ring
Encoding: 730 730 315
Width: 611
Flags: W
HStem: 120 82<216.682 368.553> 436 81<234.361 385.423>
VStem: 114 86<220.906 405.122> 403 89<232.495 417.147>
LayerCount: 2
Fore
SplineSet
318 436 m 0,0,1
 291 436 291 436 269.5 424.5 c 128,-1,2
 248 413 248 413 232.5 394 c 128,-1,3
 217 375 217 375 208.5 350 c 128,-1,4
 200 325 200 325 200 299 c 0,5,6
 200 257 200 257 220.5 229.5 c 128,-1,7
 241 202 241 202 286 202 c 0,8,9
 311 202 311 202 332.5 213.5 c 128,-1,10
 354 225 354 225 370 244.5 c 128,-1,11
 386 264 386 264 394.5 288.5 c 128,-1,12
 403 313 403 313 403 339 c 0,13,14
 403 381 403 381 381.5 408.5 c 128,-1,15
 360 436 360 436 318 436 c 0,0,1
114 283 m 0,16,17
 114 331 114 331 131 373.5 c 128,-1,18
 148 416 148 416 177.5 448 c 128,-1,19
 207 480 207 480 247 498.5 c 128,-1,20
 287 517 287 517 332 517 c 0,21,22
 368 517 368 517 397.5 504 c 128,-1,23
 427 491 427 491 448 468.5 c 128,-1,24
 469 446 469 446 480.5 415.5 c 128,-1,25
 492 385 492 385 492 351 c 0,26,27
 492 302 492 302 475 260 c 128,-1,28
 458 218 458 218 429 187 c 128,-1,29
 400 156 400 156 360 138 c 128,-1,30
 320 120 320 120 275 120 c 0,31,32
 238 120 238 120 208.5 132 c 128,-1,33
 179 144 179 144 158 165.5 c 128,-1,34
 137 187 137 187 125.5 217 c 128,-1,35
 114 247 114 247 114 283 c 0,16,17
EndSplineSet
EndChar

StartChar: tilde
Encoding: 732 732 316
Width: 744
Flags: W
HStem: 120 143<414.362 600.155> 238 142<140.156 325.672>
VStem: -8 143<146 234.402> 605 141<266.6 355>
DStem2: 304.5 361.5 272.5 219.5 0.898716 -0.43853<-32.7036 246.752>
LayerCount: 2
Fore
SplineSet
547 120 m 0,0,1
 498 120 498 120 449 138.5 c 128,-1,2
 400 157 400 157 355.5 179 c 128,-1,3
 311 201 311 201 272.5 219.5 c 128,-1,4
 234 238 234 238 207 238 c 0,5,6
 194 238 194 238 181.5 236 c 128,-1,7
 169 234 169 234 158.5 225 c 128,-1,8
 148 216 148 216 141.5 197.5 c 128,-1,9
 135 179 135 179 135 146 c 1,10,-1
 -8 146 l 1,11,12
 -8 206 -8 206 9 250 c 128,-1,13
 26 294 26 294 56 323 c 128,-1,14
 86 352 86 352 126.5 366 c 128,-1,15
 167 380 167 380 214 380 c 256,16,17
 261 380 261 380 304.5 361.5 c 128,-1,18
 348 343 348 343 388 321.5 c 128,-1,19
 428 300 428 300 464 281.5 c 128,-1,20
 500 263 500 263 532 263 c 0,21,22
 549 263 549 263 562.5 266.5 c 128,-1,23
 576 270 576 270 585.5 279.5 c 128,-1,24
 595 289 595 289 600 307 c 128,-1,25
 605 325 605 325 605 355 c 1,26,-1
 746 355 l 1,27,28
 746 286 746 286 730.5 241 c 128,-1,29
 715 196 715 196 688 169 c 128,-1,30
 661 142 661 142 624.5 131 c 128,-1,31
 588 120 588 120 547 120 c 0,0,1
EndSplineSet
EndChar

StartChar: acutecomb
Encoding: 769 769 317
Width: 1020
Flags: W
HStem: 91 637
VStem: 390 446
LayerCount: 2
Fore
SplineSet
390 117 m 1,0,-1
 635 728 l 1,1,-1
 836 637 l 1,2,-1
 439 91 l 1,3,-1
 390 117 l 1,0,-1
EndSplineSet
EndChar

StartChar: uni0306
Encoding: 774 774 318
Width: 696
Flags: W
HStem: 69 108<244.479 441.16>
VStem: 114 106<201.88 302.781> 487 103<216.465 303>
LayerCount: 2
Fore
SplineSet
590 303 m 1,0,1
 587 278 587 278 581 254 c 0,2,3
 557 170 557 170 493.5 119.5 c 128,-1,4
 430 69 430 69 318 69 c 0,5,6
 210 69 210 69 162 118 c 128,-1,7
 114 167 114 167 114 252 c 0,8,9
 114 263 114 263 115 276 c 128,-1,10
 116 289 116 289 118 303 c 1,11,-1
 222 303 l 1,12,13
 221 296 221 296 220.5 290 c 128,-1,14
 220 284 220 284 220 279 c 0,15,16
 220 229 220 229 253 201 c 1,17,18
 284 177 284 177 336 177 c 0,19,20
 396 177 396 177 437 211 c 128,-1,21
 478 245 478 245 487 303 c 1,22,-1
 590 303 l 1,0,1
EndSplineSet
EndChar

StartChar: afii10051
Encoding: 1026 1026 321
Width: 1467
Flags: W
HStem: -231 140<749 897> 0 21G<412 585.78> 1050 138<923.774 1218.82> 1440 137<209 613 783 1212>
VStem: 412 171<0 171> 1265 170<480.181 1004.66>
DStem2: 412 0 583 0 0.138243 0.990398<23.6396 967.017 1014.02 1453.96> 1197 296 1364 276 0.123488 0.992346<-231.144 557.006>
LayerCount: 2
Fore
SplineSet
749 -91 m 1,0,1
 791 -90 791 -90 827.5 -87.5 c 128,-1,2
 864 -85 864 -85 897 -79 c 1,3,-1
 894 -79 l 1,4,5
 941 -70 941 -70 981 -53.5 c 128,-1,6
 1021 -37 1021 -37 1053.5 -11 c 128,-1,7
 1086 15 1086 15 1112 52 c 128,-1,8
 1138 89 1138 89 1157 139 c 0,9,10
 1166 162 1166 162 1172.5 182 c 128,-1,11
 1179 202 1179 202 1185 229 c 128,-1,12
 1191 256 1191 256 1197 296 c 128,-1,13
 1203 336 1203 336 1211.5 399.5 c 128,-1,14
 1220 463 1220 463 1231 555 c 128,-1,15
 1242 647 1242 647 1258 778 c 0,16,17
 1261 807 1261 807 1263 825.5 c 128,-1,18
 1265 844 1265 844 1265 849 c 0,19,20
 1265 919 1265 919 1245 968 c 1,21,22
 1225 1013 1225 1013 1187 1031.5 c 128,-1,23
 1149 1050 1149 1050 1092 1050 c 0,24,25
 1033 1050 1033 1050 974 1033 c 128,-1,26
 915 1016 915 1016 863.5 991.5 c 128,-1,27
 812 967 812 967 771 938 c 128,-1,28
 730 909 730 909 706 885 c 1,29,-1
 583 0 l 1,30,-1
 412 0 l 1,31,-1
 613 1440 l 1,32,-1
 189 1440 l 1,33,-1
 209 1577 l 1,34,-1
 1231 1577 l 1,35,-1
 1212 1440 l 1,36,-1
 783 1440 l 1,37,-1
 719 981 l 1,38,39
 783 1045 783 1045 834.5 1085 c 128,-1,40
 886 1125 886 1125 932.5 1148 c 128,-1,41
 979 1171 979 1171 1023 1179.5 c 128,-1,42
 1067 1188 1067 1188 1116 1188 c 0,43,44
 1435 1188 1435 1188 1435 859 c 0,45,46
 1435 854 1435 854 1433.5 834.5 c 128,-1,47
 1432 815 1432 815 1428 785 c 0,48,49
 1423 745 1423 745 1416.5 691 c 128,-1,50
 1410 637 1410 637 1402.5 579.5 c 128,-1,51
 1395 522 1395 522 1388.5 466.5 c 128,-1,52
 1382 411 1382 411 1376.5 368 c 128,-1,53
 1371 325 1371 325 1367.5 299.5 c 128,-1,54
 1364 274 1364 274 1364 276 c 1,55,56
 1335 65 1335 65 1213.5 -59.5 c 128,-1,57
 1092 -184 1092 -184 878 -218 c 0,58,59
 844 -223 844 -223 807.5 -226.5 c 128,-1,60
 771 -230 771 -230 731 -231 c 1,61,-1
 749 -91 l 1,0,1
EndSplineSet
EndChar

StartChar: afii10052
Encoding: 1027 1027 322
Width: 1184
Flags: W
HStem: 0 21G<146 319.796> 1438 139<518 1304>
VStem: 146 171<0 171>
DStem2: 146 0 317 0 0.139399 0.990236<23.8373 1475.82>
LayerCount: 2
Fore
SplineSet
579 1673 m 1,0,-1
 764 2295 l 1,1,-1
 1002 2302 l 1,2,-1
 710 1677 l 1,3,-1
 579 1673 l 1,0,-1
1323 1577 m 1,4,-1
 1304 1438 l 1,5,-1
 518 1438 l 1,6,-1
 317 0 l 1,7,-1
 146 0 l 1,8,-1
 368 1577 l 1,9,-1
 1323 1577 l 1,4,-1
EndSplineSet
EndChar

StartChar: afii10053
Encoding: 1028 1028 323
Width: 1169
Flags: W
HStem: -41 145<555.67 979.472> 727 108<430 1065> 1463 146<777.707 1236.51>
VStem: 218 182<283.696 724.625> 218 1<515.095 523.869>
LayerCount: 2
Fore
SplineSet
218 515 m 1,0,1
 217 657 217 657 238.5 793 c 128,-1,2
 260 929 260 929 304 1050.5 c 128,-1,3
 348 1172 348 1172 414 1274.5 c 128,-1,4
 480 1377 480 1377 567.5 1451.5 c 128,-1,5
 655 1526 655 1526 764 1567.5 c 128,-1,6
 873 1609 873 1609 1003 1609 c 0,7,8
 1040 1609 1040 1609 1093.5 1604.5 c 128,-1,9
 1147 1600 1147 1600 1214 1582 c 0,10,11
 1249 1573 1249 1573 1285 1560.5 c 128,-1,12
 1321 1548 1321 1548 1359 1531 c 1,13,-1
 1298 1392 l 1,14,15
 1250 1415 1250 1415 1205.5 1429 c 128,-1,16
 1161 1443 1161 1443 1120.5 1450.5 c 128,-1,17
 1080 1458 1080 1458 1043.5 1460.5 c 128,-1,18
 1007 1463 1007 1463 976 1463 c 0,19,20
 929 1463 929 1463 884 1454 c 0,21,22
 806 1439 806 1439 735.5 1397 c 128,-1,23
 665 1355 665 1355 606 1280.5 c 128,-1,24
 547 1206 547 1206 502 1096 c 128,-1,25
 457 986 457 986 430 835 c 1,26,-1
 1083 835 l 1,27,-1
 1065 727 l 1,28,-1
 413 727 l 1,29,30
 407 675 407 675 403.5 630.5 c 128,-1,31
 400 586 400 586 400 543 c 0,32,33
 400 450 400 450 417 369.5 c 128,-1,34
 434 289 434 289 473 230 c 128,-1,35
 512 171 512 171 574.5 137.5 c 128,-1,36
 637 104 637 104 728 104 c 0,37,38
 828 104 828 104 926.5 132 c 128,-1,39
 1025 160 1025 160 1128 211 c 1,40,-1
 1157 78 l 1,41,42
 1113 58 1113 58 1065.5 36.5 c 128,-1,43
 1018 15 1018 15 965 -2 c 128,-1,44
 912 -19 912 -19 852.5 -30 c 128,-1,45
 793 -41 793 -41 726 -41 c 0,46,47
 598 -41 598 -41 503 -2.5 c 128,-1,48
 408 36 408 36 345 108.5 c 128,-1,49
 282 181 282 181 250.5 287 c 128,-1,50
 219 393 219 393 219 528 c 1,51,52
 219 518 219 518 218 515 c 1,0,1
EndSplineSet
EndChar

StartChar: afii10058
Encoding: 1033 1033 328
Width: 2416
Flags: W
HStem: -21 21G<37.1579 99.5> 0 139<58.5845 341.933 1557 2076.16> 794 141<1668 2128.19> 1439 138<858 1568>
VStem: 2283 156<312.314 676.6>
DStem2: 392.422 -21 559.345 -21 0.207912 0.978148<252.563 1524.89> 1367 0 1557 139 0.138337 0.990385<163.948 825.377 967.65 1452.97>
LayerCount: 2
Fore
SplineSet
1533 0 m 1,0,-1
 1367 0 l 1,1,-1
 1568 1439 l 1,2,-1
 858 1439 l 1,3,-1
 727 773 l 2,4,5
 698 625 698 625 672 509 c 128,-1,6
 646 393 646 393 612.5 304.5 c 128,-1,7
 579 216 579 216 534 154 c 128,-1,8
 489 92 489 92 421.5 53.5 c 128,-1,9
 354 15 354 15 259.5 -3 c 128,-1,10
 165 -21 165 -21 34 -21 c 1,11,-1
 55 112 l 1,12,13
 170 118 170 118 247 141 c 128,-1,14
 324 164 324 164 374 207.5 c 128,-1,15
 424 251 424 251 452 316 c 128,-1,16
 480 381 480 381 497 471 c 2,17,-1
 569 843 l 1,18,-1
 711 1577 l 1,19,-1
 1758 1577 l 1,20,-1
 1668 935 l 1,21,-1
 1821 935 l 2,22,23
 1993 935 1993 935 2111 909.5 c 128,-1,24
 2229 884 2229 884 2302 835 c 128,-1,25
 2375 786 2375 786 2407 715.5 c 128,-1,26
 2439 645 2439 645 2439 554 c 0,27,28
 2438 400 2438 400 2392 295 c 128,-1,29
 2346 190 2346 190 2255 124 c 256,30,31
 2164 58 2164 58 2032 29 c 128,-1,32
 1900 0 1900 0 1722 0 c 2,33,-1
 1533 0 l 1,0,-1
2283 551 m 0,34,35
 2282 574 2282 574 2278 594.5 c 128,-1,36
 2274 615 2274 615 2266 634 c 0,37,38
 2242 688 2242 688 2189.5 719.5 c 128,-1,39
 2137 751 2137 751 2071.5 767.5 c 128,-1,40
 2006 784 2006 784 1934.5 789 c 128,-1,41
 1863 794 1863 794 1802 794 c 2,42,-1
 1649 794 l 1,43,-1
 1557 139 l 1,44,-1
 1753 139 l 2,45,46
 1918 139 1918 139 2022 166 c 128,-1,47
 2126 193 2126 193 2184.5 245.5 c 128,-1,48
 2243 298 2243 298 2263.5 375 c 128,-1,49
 2284 452 2284 452 2283 551 c 0,34,35
EndSplineSet
EndChar

StartChar: afii10059
Encoding: 1034 1034 329
Width: 2150
Flags: W
HStem: 0 139<1291 1824.24> 766 109<439 1208> 794 141<1402 1876.51> 1557 20G<365.185 538 1320.15 1493>
VStem: 146 171<0 171> 368 170<1407 1577> 1323 170<1407 1577> 2016 157<300.394 685.267>
DStem2: 146 0 317 0 0.139399 0.990236<23.8373 797.274 907.301 1592.55> 1101 0 1291 139 0.139399 0.990236<164.129 773.437 967.83 1592.55>
LayerCount: 2
Fore
SplineSet
1266 0 m 1,0,-1
 1101 0 l 1,1,-1
 1208 766 l 1,2,-1
 424 766 l 1,3,-1
 317 0 l 1,4,-1
 146 0 l 1,5,-1
 368 1577 l 1,6,-1
 538 1577 l 1,7,-1
 439 875 l 1,8,-1
 1223 875 l 1,9,-1
 1323 1577 l 1,10,-1
 1493 1577 l 1,11,-1
 1402 935 l 1,12,-1
 1555 935 l 2,13,14
 1691 935 1691 935 1793 919 c 128,-1,15
 1895 903 1895 903 1967 872 c 128,-1,16
 2039 841 2039 841 2084 796.5 c 128,-1,17
 2129 752 2129 752 2151 695 c 0,18,19
 2173 636 2173 636 2173 562 c 0,20,21
 2174 407 2174 407 2128.5 300 c 128,-1,22
 2083 193 2083 193 1992.5 126.5 c 128,-1,23
 1902 60 1902 60 1767.5 30 c 128,-1,24
 1633 0 1633 0 1456 0 c 2,25,-1
 1266 0 l 1,0,-1
2016 561 m 1,26,27
 2015 586 2015 586 2010 607.5 c 128,-1,28
 2005 629 2005 629 1997 646 c 0,29,30
 1972 699 1972 699 1919 729 c 128,-1,31
 1866 759 1866 759 1800.5 773.5 c 128,-1,32
 1735 788 1735 788 1665 791 c 128,-1,33
 1595 794 1595 794 1536 794 c 2,34,-1
 1383 794 l 1,35,-1
 1291 139 l 1,36,-1
 1487 139 l 2,37,38
 1607 139 1607 139 1693 151 c 128,-1,39
 1779 163 1779 163 1838 187.5 c 128,-1,40
 1897 212 1897 212 1932 247.5 c 128,-1,41
 1967 283 1967 283 1985.5 330 c 128,-1,42
 2004 377 2004 377 2010 435 c 128,-1,43
 2016 493 2016 493 2016 561 c 1,26,27
EndSplineSet
EndChar

StartChar: afii10060
Encoding: 1035 1035 330
Width: 1404
Flags: W
HStem: 0 21G<415 587.807 1155 1334.5> 798 137<715 1182.52> 1439 138<209 615 785 1212>
VStem: 415 170<0 170> 1155 171<0 171> 1232 170<240.875 748.289>
DStem2: 415 0 585 0 0.137662 0.990479<23.4026 829.223 967.397 1452.83> 1155 0 1326 0 0.127271 0.991868<21.7634 612.514>
LayerCount: 2
Fore
SplineSet
585 0 m 1,0,-1
 415 0 l 1,1,-1
 615 1439 l 1,2,-1
 189 1439 l 1,3,-1
 209 1577 l 1,4,-1
 1231 1577 l 1,5,-1
 1212 1439 l 1,6,-1
 785 1439 l 1,7,-1
 715 935 l 1,8,-1
 1082 935 l 2,9,10
 1156 935 1156 935 1215.5 915.5 c 128,-1,11
 1275 896 1275 896 1316.5 856.5 c 128,-1,12
 1358 817 1358 817 1380 756 c 128,-1,13
 1402 695 1402 695 1402 612 c 0,14,15
 1402 601 1402 601 1401 584.5 c 128,-1,16
 1400 568 1400 568 1396 532 c 0,17,18
 1393 506 1393 506 1388 465.5 c 128,-1,19
 1383 425 1383 425 1375 362 c 128,-1,20
 1367 299 1367 299 1355 210 c 128,-1,21
 1343 121 1343 121 1326 0 c 1,22,-1
 1155 0 l 1,23,24
 1171 121 1171 121 1183 209.5 c 128,-1,25
 1195 298 1195 298 1203.5 361 c 128,-1,26
 1212 424 1212 424 1217.5 464.5 c 128,-1,27
 1223 505 1223 505 1226 529 c 0,28,29
 1231 566 1231 566 1231.5 581.5 c 128,-1,30
 1232 597 1232 597 1232 608 c 0,31,32
 1232 662 1232 662 1218 698 c 128,-1,33
 1204 734 1204 734 1179.5 756.5 c 128,-1,34
 1155 779 1155 779 1122 788.5 c 128,-1,35
 1089 798 1089 798 1052 798 c 2,36,-1
 697 798 l 1,37,-1
 585 0 l 1,0,-1
EndSplineSet
EndChar

StartChar: afii10062
Encoding: 1038 1038 333
Width: 1109
Flags: W
HStem: -114 118<273 472.813> 1557 20G<347 510.412 1109.91 1291> 1682 109<750.279 947.395>
VStem: 347 160<1417 1577> 619 106<1818.33 1916.78> 992 103<1830.44 1917>
LayerCount: 2
Fore
SplineSet
1095 1917 m 1,0,1
 1092 1892 1092 1892 1086 1868 c 0,2,3
 1062 1784 1062 1784 998.5 1733 c 128,-1,4
 935 1682 935 1682 823 1682 c 0,5,6
 715 1682 715 1682 667 1731.5 c 128,-1,7
 619 1781 619 1781 619 1866 c 0,8,9
 619 1877 619 1877 620 1890 c 128,-1,10
 621 1903 621 1903 623 1917 c 1,11,-1
 727 1917 l 1,12,13
 726 1910 726 1910 725.5 1904 c 128,-1,14
 725 1898 725 1898 725 1893 c 0,15,16
 725 1844 725 1844 757 1817.5 c 128,-1,17
 789 1791 789 1791 841 1791 c 0,18,19
 901 1791 901 1791 942 1824 c 128,-1,20
 983 1857 983 1857 992 1917 c 1,21,-1
 1095 1917 l 1,0,1
674 598 m 1,22,-1
 1119 1577 l 1,23,-1
 1291 1577 l 1,24,-1
 713 430 l 1,25,-1
 675 193 l 2,26,27
 661 109 661 109 629 50.5 c 128,-1,28
 597 -8 597 -8 547 -44.5 c 128,-1,29
 497 -81 497 -81 428.5 -97.5 c 128,-1,30
 360 -114 360 -114 273 -114 c 1,31,-1
 247 4 l 1,32,33
 308 6 308 6 358 9.5 c 128,-1,34
 408 13 408 13 445.5 31 c 128,-1,35
 483 49 483 49 507.5 88 c 128,-1,36
 532 127 532 127 543 200 c 2,37,-1
 580 428 l 1,38,-1
 347 1577 l 1,39,-1
 507 1577 l 1,40,-1
 674 598 l 1,22,-1
EndSplineSet
EndChar

StartChar: afii10145
Encoding: 1039 1039 334
Width: 1394
Flags: W
HStem: -421 21G<587 738.85> 0 138<335 646 796 1117> 1557 20G<365.185 538 1317.18 1491>
VStem: 368 170<1407 1577> 587 149<-421 -272> 1320 171<1406 1577>
DStem2: 146 0 335 138 0.139399 0.990236<162.999 1592.55> 587 -421 736 -421 0.141092 0.989996<21.0227 425.113> 1117 138 1269 0 0.139399 0.990236<0 1453.25>
LayerCount: 2
Fore
SplineSet
1269 0 m 1,0,-1
 796 0 l 1,1,-1
 736 -421 l 1,2,-1
 587 -421 l 1,3,-1
 646 0 l 1,4,-1
 146 0 l 1,5,-1
 368 1577 l 1,6,-1
 538 1577 l 1,7,-1
 335 138 l 1,8,-1
 1117 138 l 1,9,-1
 1320 1577 l 1,10,-1
 1491 1577 l 1,11,-1
 1269 0 l 1,0,-1
EndSplineSet
EndChar

